<?xml version="1.0" encoding="UTF-8"?><svg xmlns="http://www.w3.org/2000/svg" viewBox="0 0 114.95 160.28"><defs><style>.d{fill:#fff;}</style></defs><g id="a"/><g id="b"><g id="c"><g><path class="d" d="M102.86,160.11c1.81-10.41,.75-21.03-1.17-31.33-1.92-10.31-4.26-20.8-10.23-29.48-3.23-4.7-7.4-8.62-11.55-12.48s-8.02-7.44-12-11.19c-8.05-7.58-16.08-15.23-23.49-23.45-8.35-9.24-15.69-19.27-21.36-30.38-.12-.25-.53-.08-.4,.17,9.43,19.22,24.72,34.95,40.02,49.6,8.11,7.76,16.65,15.22,23.98,23.73s10.94,18.51,13.29,29.19c2.56,11.64,4.43,23.71,2.53,35.59-.04,.24,.34,.29,.38,.04h0Z"/><path class="d" d="M55.12,63.39c-7.7-5.02-6.72-15.42-6.73-23.36,0-4.06-.54-7.97-1.68-11.87-1.27-4.34-3.01-8.51-4.64-12.72-1.97-5.09-3.91-10.18-5.91-15.25-.15-.37-.7-.12-.56,.24,1.76,4.63,3.55,9.26,5.34,13.89,1.66,4.33,3.46,8.63,4.86,13.04s2,8.99,2,13.71c0,4.14-.21,8.35,.75,12.42s2.93,7.78,6.51,10.02c.07,.05,.16-.06,.08-.11h-.02Z"/><path class="d" d="M34.96,1.42c2.67,7.01,1.05,14.57,.81,21.84-.12,3.56,.12,7.09,1.13,10.53,1.2,4.07,3.23,7.85,5.25,11.55,2.68,4.93,5.33,9.87,8,14.8l.49-.3c-5.43-7.39-13.78-11.69-22.11-15.02-9.22-3.67-18.73-6.59-28.14-9.74-.23-.07-.52,.22-.32,.43,6.49,6.38,14.43,11.42,22.89,14.76,8.57,3.38,17.83,4.79,26.21,8.67,.39,.18,.63-.45,.24-.62-8.25-3.66-17.21-5.09-25.61-8.29C15.03,46.69,7.24,41.56,.45,35.12l-.26,.48c9.16,2.88,18.35,5.87,27.3,9.35s17.15,7.64,22.69,15.25c.19,.26,.66,0,.49-.3-2.35-4.36-4.73-8.69-7.08-13.05-2.05-3.8-4.23-7.6-5.67-11.69-2.63-7.46-1.2-15.01-.96-22.69,.13-3.82-.16-7.66-1.53-11.25-.12-.33-.61-.12-.49,.21h.02Z"/><path class="d" d="M49.98,59.87c1.3,1.37,2.9,2.48,4.67,3.14,.35,.13,.56-.41,.2-.55-1.67-.65-3.13-1.68-4.3-3.05-.31-.37-.91,.11-.58,.45h0Z"/><path class="d" d="M93.62,102.93c-1.33-5.2-4.59-9.49-7.49-13.88-3.27-4.97-5.3-10.17-6.35-16.02-.98-5.5-1.32-11.09-2.19-16.6s-2.37-11.11-4.37-16.43c-2.31-6.11-5.34-11.92-8.98-17.34-.26-.38-.9,0-.69,.41,5.19,10.2,2.8,22.03,3.97,33,1.28,11.98,6.88,23.17,14.59,32.3,4.27,5.04,9.62,9.87,11.08,16.59,.07,.33,.57,.25,.52-.08-1.14-5.68-4.85-10.14-8.55-14.38-4.09-4.7-7.83-9.58-10.73-15.12s-4.95-11.46-5.87-17.62c-.83-5.64-.59-11.34-.71-17.02-.14-6.16-.73-12.4-3.57-17.98l-.69,.41c6.52,9.66,10.99,20.64,13.03,32.12,1.87,10.54,1.6,21.7,7.26,31.17,3.26,5.45,7.83,10.24,9.45,16.52,.05,.17,.31,.13,.27-.04h0l.03-.02Z"/><path class="d" d="M95.49,110.39c-9.3-18.75-27.09-32.75-47.33-37.88-5.66-1.43-11.49-2.17-17.32-2.13-.29,0-.47,.46-.13,.55,9.01,2.32,16.39,8.01,24.18,12.8,3.74,2.31,7.63,4.42,11.8,5.82,4.4,1.48,9.04,2.1,13.41,3.72s8.84,4.75,10.36,9.51c.11,.36,.64,.13,.53-.23-2.81-8.82-13.09-10.62-20.81-12.69-9.35-2.5-17.05-8.08-25.22-13-4.42-2.66-9.04-5.09-14.03-6.47l-.13,.55c20.72,.23,40.81,9.69,54.57,25.13,3.89,4.37,7.26,9.21,9.95,14.4,.07,.13,.27,.04,.2-.09h0Z"/><path class="d" d="M92.4,103.38c-.17-.12-.37,.14-.2,.27s.37-.14,.2-.27h0Z"/><path class="d" d="M98.69,118.15c-4.49-15.92-.3-32.8,7.72-46.86,2.5-4.39,5.37-8.53,8.46-12.51l-.6-.33c-2.75,7.68-.63,16.09-3.15,23.8-1.47,4.5-4.05,8.54-5.89,12.88-1.7,3.99-3.05,8.12-4.07,12.33-1.19,4.97-1.89,10.02-1.99,15.13l.62-.18c-1.31-1.56-1.31-3.78-1.43-5.72-.13-2.06-.13-4.13-.05-6.19,.16-3.82,.69-7.62,1.47-11.37,1.59-7.67,4.25-15.07,7.23-22.3,1.7-4.12,3.52-8.18,5.36-12.23,.12-.27-.31-.44-.43-.17-6.53,14.7-13.28,29.93-14.09,46.23-.11,2.17-.11,4.35,.02,6.52,.11,1.95,.14,4.06,1.38,5.67,.18,.23,.6,.13,.62-.18,.57-8.99,2.34-17.85,5.69-26.24,1.69-4.22,4-8.17,5.62-12.42,1.44-3.8,1.82-7.77,1.96-11.79,.17-4.55,.2-9.18,1.78-13.52,.14-.37-.36-.64-.6-.33-10.48,13.33-18.33,29.54-17.96,46.83,.1,4.43,.75,8.81,1.96,13.06,.06,.21,.43,.11,.36-.1h0Z"/><path class="d" d="M112.38,61.65c-.3-.22-.64,.24-.34,.46s.64-.24,.34-.46h0Z"/><path class="d" d="M91.78,98.21c-6.32-7.2-11.38-15.46-14.91-24.36-1.77-4.44-3.11-9.05-4.03-13.74s-1.31-9.35-1.74-14.06c-.49-5.3-1.1-10.62-2.98-15.63-.13-.36-.68-.12-.54,.23,3.53,9.24,2.96,19.31,4.86,28.9s5.18,18.13,9.91,26.23c2.64,4.51,5.7,8.74,9.14,12.68,.17,.19,.47-.05,.31-.25h-.01Z"/><path class="d" d="M49.44,58.78c-2.97-6.51-5.95-13.1-7.26-20.18-.68-3.65-.61-7.3-.82-10.99s-1.39-7.27-2.34-10.93c-1.06-4.07-1.53-8.28-1.31-12.47,.01-.3-.45-.36-.47-.05-.22,3.59-.04,7.21,.71,10.73,.81,3.8,2.34,7.4,2.76,11.28s.22,7.39,.76,11.06,1.51,6.89,2.73,10.2c1.43,3.92,3.16,7.72,4.89,11.51,.1,.21,.43,.07,.33-.14h0l.03-.02Z"/><path class="d" d="M47.8,57.31c-2.55-3.34-6.48-4.43-10.07-6.28-1.97-1.02-3.59-2.68-5.63-3.55-1.83-.78-3.91-.85-5.84-1.21-8.95-1.69-17.36-5.64-24.42-11.38-.2-.16-.44,.16-.24,.32,6.49,5.38,14.2,9.18,22.43,11.02,2.09,.47,4.23,.64,6.32,1.08,2.48,.51,4.15,2.27,6.28,3.5,3.64,2.11,8.4,3.06,10.86,6.75,.14,.2,.45-.04,.29-.23h0Z"/><path class="d" d="M34.99,70.87c4.18,1.38,8.35,2.64,12.43,4.3s8.09,3.57,12.01,5.63c8.13,4.27,16.27,8.57,24.28,13.09,.32,.17,.67-.28,.34-.47-7.95-4.55-16.1-8.73-24.23-12.96s-16.15-7.82-24.75-9.9c-.18-.04-.25,.26-.07,.32h0Z"/><path class="d" d="M102.9,139.79c-1.29-8.69-3.85-17.1-9.53-23.97-5.68-6.87-13.85-12.05-22.19-15.81-5.08-2.29-10.37-4.06-15.6-5.98-.23-.09-.37,.21-.2,.37,6.41,5.73,12.84,11.45,19.88,16.41,6.1,4.3,12.78,7.84,18.42,12.77,3.21,2.79,5.94,6.1,7.7,9.99,.13,.27,.6,.16,.52-.14-4.18-15.59-19.35-23.79-32.35-31.19-4.18-2.38-8.36-4.75-12.54-7.12-.23-.13-.47,.2-.24,.33,4.53,2.58,9.07,5.16,13.61,7.73s9.17,5.15,13.5,8.14c7.86,5.41,15.03,12.7,17.49,22.2l.52-.14c-2.97-6.71-8.69-11.47-14.67-15.47-3.11-2.08-6.34-3.99-9.47-6.04-3.7-2.43-7.23-5.09-10.65-7.9-3.91-3.19-7.68-6.54-11.46-9.89l-.2,.37c16.64,6.04,35.72,13.8,43.3,31.15,1.98,4.54,3.11,9.38,3.96,14.23,.03,.13,.22,.1,.21-.03h0v-.02Z"/></g></g></g></svg>