<?xml version="1.0" encoding="UTF-8"?><svg xmlns="http://www.w3.org/2000/svg" viewBox="0 0 292.65 461.02"><defs><style>.d{fill:#1b1b18;}.e{fill:#5c5b5a;}.f{fill:#edd7af;}.g{isolation:isolate;}.h{mix-blend-mode:multiply;opacity:.4;}.h,.i{fill:#8e7657;}.j{fill:#eec99e;}.k{fill:#665041;}.l{fill:#d2b18b;}.m{fill:#ab815b;}.n{fill:#b69a79;}.o{fill:#ffedce;}.p{fill:#292928;}.q{fill:none;}.r{fill:#a38367;}.s{fill:#333332;}</style></defs><g class="g"><g id="a"/><g id="b"><g id="c"><g><g><path class="l" d="M99.84,415.32c-.23,1.38-1.03,2.57-1.7,3.8-2.85,5.27-3.19,11.51-3.15,17.51,.02,3.95,.04,8.32-2.57,11.28-1.02,1.16-2.37,1.99-3.77,2.63-4.87,2.21-10.42,2.25-15.75,1.88-8.53-.6-17.3-2.12-25.46,.42-1.81,.56-3.57,1.32-5.39,1.8,0,0,0,0-.01,0-.83,.22-1.66,.38-2.51,.43-3.16,.22-6.32-1.04-8.7-3.13-1.08-.95-2.08-2.37-1.6-3.73,.05-.13,.1-.25,.17-.35,.35-.56,.91-.81,1.46-1.2,.22-.17,.42-.28,.68-.38,.67-.25,1.35-.44,2.05-.59,1.4-.31,2.83-.47,4.24-.73,1.56-.28,3.13-.7,4.52-1.49,.66-.38,1.18-.93,1.82-1.32,.45-.27,.77-.6,1.16-.97,1.47-1.37,3.12-2.53,4.9-3.47,1.35-.71,2.77-1.28,4.24-1.69,2.56-.72,5.25-.97,7.72-1.96,3.22-1.28,5.84-3.71,8.3-6.16,5.53-5.49,10.71-11.33,15.51-17.48l-.72,.3c1.29-.73,2.67-1.37,4.09-1.79,1.66-.49,3.36-.69,5.05-.36,2.1,.41,4.06,1.87,4.97,3.74,.45,.92,.64,1.95,.47,2.99Z"/><path class="r" d="M32.52,456.32l2.16,.1c-.72,.02-1.45-.01-2.16-.1Z"/><path class="r" d="M99.84,415.32c-.23,1.38-1.03,2.57-1.7,3.8-2.85,5.27-3.19,11.51-3.15,17.51,.02,3.95,.04,8.32-2.57,11.28-1.02,1.16-2.37,1.99-3.77,2.63-4.87,2.21-10.42,2.25-15.75,1.88-8.53-.6-17.3-2.12-25.46,.42-1.81,.56-3.57,1.32-5.39,1.8,.95-.46,1.85-1.01,2.7-1.64,1.34-1,2.54-2.2,3.94-3.13,2.32-1.55,5.1-2.28,7.85-2.74,2.67-.44,5.37-.64,8.03-1.09,1.46-.25,2.89-.79,4.35-.98,.57-.07,1.24,.07,1.77-.18,1.94-.91,.8-3.99,.56-5.48-.63-3.97,1.63-7.76,3.79-11.14,2.41-3.78,4.83-7.55,7.24-11.33,2.08-3.25,4.35-6.67,7.88-8.23,2.12-.94,4.75-.85,6.8,.24,.98,.52,1.84,1.31,2.33,2.32,.27,.55,.23,1.03,.32,1.6,.14,.86,.36,1.59,.21,2.48Z"/><path class="j" d="M89.36,408.95c-.16,.27-.33,.53-.5,.8-2.67,4.16-5.34,8.33-8.01,12.49-1.16,1.81-2.37,3.68-4.15,4.9-1.92,1.32-4.31,1.76-6.32,2.93-2.45,1.41-4.18,3.78-6.39,5.54-4.73,3.77-11.32,4.52-16.12,8.22-2.98,2.29-5.59,5.84-9.34,5.86-.44,0-.92-.07-1.21-.4-.26-.31-.3-.78-.62-1.03-.27-.21-.63-.19-.96-.17-2.03,.16-4.15,.4-6.14-.15-.07-.02-.13-.03-.2-.06,.35-.56,.91-.81,1.46-1.2,.22-.17,.42-.28,.68-.38,.67-.25,1.35-.44,2.05-.59,1.4-.31,2.83-.47,4.24-.73,1.56-.28,3.13-.7,4.52-1.49,.66-.38,1.18-.93,1.82-1.32,.45-.27,.77-.6,1.16-.97,1.47-1.37,3.12-2.53,4.9-3.47,1.35-.71,2.77-1.28,4.24-1.69,2.56-.72,5.25-.97,7.72-1.96,3.22-1.28,5.84-3.71,8.3-6.16,5.53-5.49,10.71-11.33,15.51-17.48l-.72,.3c1.29-.73,2.67-1.37,4.09-1.79Z"/></g><g><g><path class="l" d="M292.09,454.62c-.27,.43-.65,.78-.94,1.2-.33,.48-.53,1.03-.82,1.53-1.11,1.87-3.44,2.7-5.61,2.69-.94,0-1.94-.12-2.77,.31-.29,.15-.54,.36-.84,.48-.35,.14-.73,.15-1.1,.16-2.1,.05-4.23,.09-6.26-.4-.77-.18-1.53-.44-2.32-.46-.95-.02-1.86,.32-2.81,.45-.94,.13-2.02-.01-2.61-.74-.12-.14-.21-.3-.27-.46-.32-.74-.19-1.65-.04-2.47,.11-.58,.22-1.15,.32-1.73,.2-1.04,.39-2.08,.58-3.12,.12-.63,.24-1.28,.63-1.79,.28-.37,.69-.65,.91-1.07,.21-.39,.22-.85,.22-1.3,.02-6.59-.63-13.18-.47-19.77,.17-7.05,1.26-14.23-.37-21.09l.18-.27c.31-.28,.62-.56,.94-.83,1.32-1.11,2.79-2.08,4.47-2.09,1.5-.02,2.89,.74,4.37,.99,.65,.11,1.35,.14,1.9,.52,.61,.42,.86,1.19,1.05,1.91,1.67,6.46,1.08,13.58,4.21,19.48,.96,1.83,2.29,3.54,2.63,5.58,.23,1.34,0,2.74,.21,4.09,.2,1.29,.78,2.48,1.32,3.66,1.07,2.34,2.01,4.73,2.82,7.17,.06,.17,.11,.34,.16,.51,.46,1.43,.85,2.88,.88,4.37,.02,.87-.09,1.78-.56,2.51Z"/><path class="r" d="M292.09,454.62c-.27,.43-.65,.78-.94,1.2-.33,.48-.53,1.03-.82,1.53-1.11,1.87-3.44,2.7-5.61,2.69-.94,0-1.94-.12-2.77,.31-.29,.15-.54,.36-.84,.48-.35,.14-.73,.15-1.1,.16-2.1,.05-4.23,.09-6.26-.4-.77-.18-1.53-.44-2.32-.46-.95-.02-1.86,.32-2.81,.45-.94,.13-2.02-.01-2.61-.74-.12-.14-.21-.3-.27-.46,.13-.01,.24-.03,.35-.05,.59-.13,1.15-.37,1.65-.72,.9-.64,1.57-1.63,2.59-2.03,2.32-.92,4.91,1.56,7.27,.79,1.1-.36,1.99-1.4,3.15-1.37,.94,.03,2.01,.73,2.73,.11,.28-.25,.4-.65,.67-.9,.55-.51,1.49-.27,2.09-.7,.39-.27,.56-.76,.88-1.1,.42-.44,1.05-.59,1.6-.86,1.74-.89,2.37-2.89,3.05-4.79,.46,1.43,.85,2.88,.88,4.37,.02,.87-.09,1.78-.56,2.51Z"/><path class="j" d="M278.05,435.71c-.34,.83-.94,1.51-1.47,2.23-1.35,1.87-2.18,4.11-2.38,6.4-.09,1.06-.06,2.15-.44,3.14-.33,.85-.94,1.55-1.57,2.21-1.79,1.91-3.74,3.66-5.84,5.24-.11,.09-.22,.17-.34,.25,.2-1.04,.39-2.08,.58-3.12,.12-.63,.24-1.28,.63-1.79,.28-.37,.69-.65,.91-1.07,.21-.39,.22-.85,.22-1.3,.02-6.59-.63-13.18-.47-19.77,.17-7.05,1.26-14.23-.37-21.09l.18-.27c.31-.28,.62-.56,.94-.83,.2,.28,.31,.62,.37,.98,.19,1.32,.29,2.67,.36,4,.15,2.69,.15,5.39,.13,8.07-.02,3.04-.05,6.08,.12,9.12,.1,1.9,.6,4.22,2.42,4.77,1.91,.58,4.41-1.16,5.77,.31,.61,.65,.6,1.69,.26,2.51Z"/></g><g><g><path class="s" d="M219.92,249.23c-4.89,4.65-8.37,10.54-12.09,16.17-10.91,16.47-24.32,31.11-37,46.25-2.75,3.29-5.48,6.61-7.68,10.29-3.11,5.18-5.1,10.96-7.94,16.3-1.44,2.7-3.09,5.28-4.94,7.72-.8,1.05-1.57,2.15-2.59,2.98-.87,.71-1.44,1.67-2.03,2.63-1.35,2.16-2.5,4.44-3.55,6.76-2.1,4.63-3.79,9.43-5.88,14.06-1.12,2.5-2.35,4.94-3.68,7.32-8.68,15.65-21.37,28.9-34.17,41.65-1.1,1.1-2.2,2.19-3.3,3.28l-9.17-12.92c11.13-19.56,21.2-39.69,31.28-59.81,.95-1.9,2.19-3.8,2.79-5.85,.18-.61,.38-1.09,.7-1.65,.82-1.39,1.5-2.83,2.07-4.34,1.13-2.99,1.88-6.11,2.93-9.14,1.44-4.15,3.43-8.1,5.92-11.7,1.25-1.83,2.75-3.44,4.1-5.19,.44-.56,.63-1.09,.79-1.77,.56-2.35,1.6-4.57,2.35-6.87,1.34-4.04,2.42-8.17,4.01-12.11,1.46-3.59,3.32-7.01,5.18-10.41,7.5-13.75,15.01-27.5,22.52-41.24l10.49,1.61,21.96,3.37,16.94,2.6Z"/><path class="e" d="M181.02,243.25c-.29,1.09-.64,2.16-1.04,3.16-3.28,8.35-8.4,15.97-14.91,22.15-5.45,5.18-12.03,9.61-15.21,16.42-2.87,6.14-2.51,13.33-4.91,19.66-3.05,8.02-10.2,13.89-13.57,21.79-2.38,5.6-2.7,11.82-3.17,17.89-.39,5.05-.9,10.09-1.55,15.12-.39,3.05-.84,6.12-1.98,8.97-3.11,7.76-10.73,12.59-16.29,18.84-8.15,9.14-11.87,22.03-10.04,34.12-1.1,1.1-2.2,2.19-3.3,3.28l-9.17-12.92c11.13-19.56,21.2-39.69,31.28-59.81,.95-1.9,2.19-3.8,2.79-5.85,.18-.61,.38-1.09,.7-1.65,.82-1.39,1.5-2.83,2.07-4.34,1.13-2.99,1.88-6.11,2.93-9.14,1.44-4.15,3.43-8.1,5.92-11.7,1.25-1.83,2.75-3.44,4.1-5.19,.44-.56,.63-1.09,.79-1.77,.56-2.35,1.6-4.57,2.35-6.87,1.34-4.04,2.42-8.17,4.01-12.11,1.46-3.59,3.32-7.01,5.18-10.41,7.5-13.75,15.01-27.5,22.52-41.24l10.49,1.61Z"/><path class="d" d="M219.92,249.23c-4.89,4.65-8.37,10.54-12.09,16.17-10.91,16.47-24.32,31.11-37,46.25-2.75,3.29-5.48,6.61-7.68,10.29-3.11,5.18-5.1,10.96-7.94,16.3-1.44,2.7-3.09,5.28-4.94,7.72-.8,1.05-1.57,2.15-2.59,2.98-.87,.71-1.44,1.67-2.03,2.63-1.35,2.16-2.5,4.44-3.55,6.76-2.1,4.63-3.79,9.43-5.88,14.06-1.12,2.5-2.35,4.94-3.68,7.32,.99-2.92,2.33-5.75,3.51-8.61,4.94-11.97,7.14-24.91,11.8-37,4.77-12.37,12.03-23.64,20.18-34.1,2.7-3.47,5.51-6.87,7.86-10.58,3.65-5.77,6.14-12.18,9.25-18.26,4.63-9.03,10.68-17.34,17.85-24.53l16.94,2.6Z"/></g><path class="s" d="M167.46,245.51c-.06,.33-.1,.65-.11,.98-.07,.11-.13,.21-.19,.32l.3-1.29Z"/><path class="s" d="M225.45,255.64c-1.1,1.57-2.64,2.76-4.17,3.92-1.51,1.14-3.06,2.29-4.87,2.81-.66,.19-1.33,.29-2.02,.33-1.15,.07-2.32-.03-3.47-.14-3.65-.36-7.28-.85-10.92-1.35-2.24-.3-4.48-.61-6.72-.91-1.66-.23-3.34-.56-5.02-.57-1.34-.02-2.65-.27-3.98-.34-.17-.01-.34-.01-.51-.01-2.03-.02-4.06-.03-6.09-.04-1.06,0-2.14-.02-3.18-.26-1.66-.39-3.12-1.34-4.54-2.28-.51-.34-1.03-.68-1.55-1.02-.71-.47-1.52-1.35-1.01-2.04,.16-.23,.43-.35,.66-.52,.6-.45,.85-1.26,.7-1.98-.08-.39-.26-.61-.53-.88-.2-.2-.28-.4-.38-.67-.21-.6-.37-1.22-.45-1.85-.04-.3-.21-1.08-.06-1.35,2.63-4.47,6.56-8.02,10.43-11.5,5.37-4.83,10.75-9.66,16.13-14.49,1.11-1,2.22-2,3.34-3,2.1-1.89,4.23-3.79,6.74-5.07,3.99-2.04,8.68-2.34,13.12-1.74,1.15,.15,2.34,.39,3.24,1.11,1.22,.99,1.62,2.66,1.9,4.21,1.4,7.55,1.93,15.25,3.56,22.76,.62,2.84,1.39,5.66,1.58,8.55,.18,2.9-.29,5.94-1.94,8.32Z"/><g><g><g><g><g><g><path class="l" d="M96.71,433.25c-.23,3.67-.52,7.34-1.22,10.94-.4,2.05-.93,4.07-1.59,6.05-.04,.11-.07,.22-.11,.32-.23,.65-.5,1.29-.92,1.82-.5,.62-1.25,1.06-2.01,.96-.85-.12-1.48-.84-1.91-1.66,.03-.06,.06-.12,.08-.18,.26-.54,.5-1.09,.7-1.66,.09-.21,.16-.42,.23-.63,.08-.21,.14-.42,.2-.63,.05-.15,.1-.3,.14-.45,.11-.38,.21-.77,.3-1.16,.04-.18,.08-.35,.12-.53,.03-.14,.06-.28,.09-.41,.05-.22,.09-.43,.12-.65,.04-.22,.07-.44,.11-.65,.03-.22,.06-.44,.09-.65,.39-3.01,.37-6.07,.31-9.1,.02,0,.05-.02,.07-.03,.14-.04,.27-.09,.4-.15,.03-.01,.05-.02,.07-.03h0s0,0,.01,0h0c.18-.07,.35-.14,.51-.22,.17-.07,.33-.15,.49-.23,.12-.07,.25-.13,.37-.19,.15-.08,.3-.16,.45-.24,.15-.08,.29-.17,.44-.25,.44-.26,.87-.52,1.29-.79,.25-.16,.5-.32,.75-.48h0c.09-.05,.17-.11,.25-.17h0c.06,.35,.12,.69,.17,1.04Z"/><path class="l" d="M96.84,430.97l-.06,1.08c-.02,.4-.05,.79-.07,1.19-.05-.35-.11-.69-.17-1.04-.09,.06-.17,.12-.26,.17l.2-.49,.36-.91Z"/><path class="l" d="M91.11,444.08c-.03,.22-.06,.44-.09,.65-.04,.22-.07,.43-.11,.65-.03,.22-.08,.43-.12,.65-.03,.13-.05,.26-.08,.38,0,0,0,.01,0,.02,0,0,0,.01,0,.02-.04,.18-.08,.35-.12,.53-.04,.15-.07,.3-.11,.45-.06,.24-.12,.48-.19,.71-.05,.15-.09,.3-.14,.45-.03,.11-.06,.21-.1,.32-.04,.11-.07,.21-.11,.31-.07,.21-.14,.42-.23,.63-.04,.09-.07,.19-.11,.28-.07,.19-.15,.38-.23,.56h0c-.04,.11-.08,.21-.13,.32-.07,.16-.15,.32-.22,.48l-.02,.03c-.02,.06-.06,.12-.08,.18-.21,.45-.45,.87-.7,1.29-.34,.56-.83,1.14-1.39,1.3-.21,.07-.43,.07-.65,0-.81-.28-.98-1.39-1-2.29-.1-5.8,.67-11.6,.78-17.38h1.25l4.17,.03c0,.12,0,.23,0,.35,.06,3.04,.08,6.09-.31,9.1Z"/><path class="l" d="M104.18,422.47h0v.02c-.08,.79-.28,1.57-.57,2.32h0c-.49,1.24-1.23,2.4-2.12,3.4h0s-.02,.02-.02,.02c-.24,.26-.48,.52-.73,.75-1.15,1.13-2.46,2.09-3.82,2.98-.05,.03-.1,.06-.14,.09h0c-.08,.06-.16,.11-.24,.15h0c-.09,.07-.17,.12-.25,.17h0c-.25,.17-.5,.33-.75,.48-.22,.14-.43,.27-.64,.4-.22,.14-.43,.27-.65,.39-.6,.35-1.2,.68-1.84,.95-.14,.06-.28,.12-.41,.18h0s0,0-.01,0c-.03,.02-.05,.03-.08,.03-.13,.05-.26,.1-.4,.15-.03,.01-.05,.02-.07,.03h0c-.05,.02-.1,.04-.15,.06-1.19,.39-2.63,.55-3.98,.66-.44,.04-.88,.07-1.29,.09h0c.01-.4,.02-.78,.02-1.17,0-1.49-.05-2.97-.19-4.46-.01-.11-.03-.22-.06-.32-.05-.21-.14-.39-.33-.47-.43-.18-.42,.46-.45,.68-.14,.9-.7,1.83-1.21,2.55-.51,.72-1.12,1.36-1.81,1.91-1.6,1.28-3.55,2.07-5.55,2.56-.54,.13-1.1,.25-1.64,.14-.23-.04-.45-.13-.64-.26-.28-.18-.49-.44-.57-.75-.21-.85,.59-1.59,1.27-2.13,1.06-.84,2.08-1.75,3.02-2.73,.89-.91,1.72-1.88,2.39-2.97,3.13-5.12,2.03-11.92,4.81-17.23l4.48-3.54,7.56-5.98c-.05,2.05,.81,4.02,1.84,5.8,1.02,1.78,2.23,3.47,2.98,5.38,.53,1.34,.82,2.76,1.22,4.15,.43,1.48,.97,2.94,1.05,4.47,.02,.36,0,.72-.03,1.07Z"/><path class="l" d="M105.93,437.81c-.04,.38-.08,.76-.14,1.14-.08,.56-.27,1.23-.83,1.5-.38,.18-.74,.06-.98-.3-.17-.26-.23-.56-.28-.85-.23-1.21-.39-2.43-.58-3.65-.15-.9-.3-1.8-.51-2.68-.11-.44-.22-.88-.35-1.32-.07-.22-.14-.44-.22-.65-.03-.09-.04-.16-.05-.25-.04-.25-.21-1.04-.65-.94-.01,0-.02,0-.04,.02-.26,.08-.28,.38-.27,.62,0,.17,.02,.35,.03,.52,.07,.96,.18,1.92,.22,2.88,.02,.48,.02,.96-.01,1.44-.02,.17-.03,.34,0,.51,.08,.57,.09,1.15,.11,1.73,.08,2.04,.06,4.12-.24,6.13-.2,1.3-.5,2.58-.97,3.82-.16,.41-.34,.82-.65,1.13-.31,.31-.79,.48-1.2,.34-.47-.18-.71-.69-.85-1.17-.64-2.15-.39-4.44-.31-6.68,.1-2.6-.05-5.21-.45-7.79,0-.01,0-.03,0-.04-.05-.35-.11-.69-.17-1.04h0l-.06-.32c-.11-.61-.24-1.22-.38-1.82l5.79-14.21c.49,.28,.8,.78,1.03,1.29,.5,1.08,.71,2.27,.92,3.44,.03,.18,.07,.36,.1,.54,.08,.45,.16,.89,.24,1.34h0s0,.02,0,.02c.26,1.47,.52,2.93,.78,4.39,.18,.96,.35,1.91,.52,2.87,.05,.24,.09,.48,.13,.72,.01,.1,.05,.17,.08,.25,.13,.37,.13,.83,.18,1.22,.23,1.94,.27,3.91,.07,5.87Z"/><path class="n" d="M93.79,450.55c-.23,.65-.5,1.29-.92,1.82-.5,.62-1.25,1.06-2.01,.96-.85-.12-1.48-.84-1.91-1.66,.03-.06,.06-.12,.08-.18,.25-.55,.49-1.1,.7-1.66,.08-.21,.16-.42,.23-.63,.07-.21,.14-.42,.2-.63,.05-.15,.09-.3,.14-.45,.11-.38,.21-.77,.3-1.16,.04-.18,.08-.35,.12-.53,.03-.14,.06-.28,.09-.41,.05-.22,.09-.43,.12-.65,.04-.22,.07-.44,.11-.65,.03-.22,.06-.44,.09-.65,.39-3.01,.37-6.07,.31-9.1,.02,0,.05-.02,.07-.03,.14-.04,.27-.09,.4-.15,.03,0,.05-.02,.08-.03,0,0,0,0,.01,0h0s0,.65,0,.72c0,.29,0,.58,0,.87,0,.63,0,1.25-.01,1.88-.02,1.2-.08,2.4-.19,3.6-.04,.43-.06,.84-.11,1.25-.02,.21-.05,.41-.08,.61-.15,.94-.25,1.89-.29,2.85-.01,.2-.01,.4-.02,.6-.01,.51,0,1.05,.24,1.5,.46,.88,1.59,1.17,2.25,1.9Z"/></g><path class="n" d="M88.73,413.4c.32,.23,.59,.54,.78,.88,.42,.75,.53,1.61,.58,2.45,.01,.2,.05,.42,.01,.61-.03,.15-.1,.28-.13,.43-.09,.44-.18,.89-.29,1.33-.21,.79-.48,1.56-.82,2.3-.44,.93-.99,1.81-1.55,2.68-2,3.1-4.22,6.23-7.4,8.1-1.41,.82-2.98,1.39-4.23,2.44-.36,.3-.68,.66-.94,1.05-.26,.39-.47,.82-.6,1.27-.28-.18-.49-.44-.57-.75-.21-.85,.59-1.59,1.27-2.13,1.06-.84,2.08-1.75,3.02-2.73,.89-.91,1.72-1.88,2.39-2.97,1.09-1.78,1.68-3.81,2.08-5.85,.2-1.02,.39-2.06,.52-3.1,.02-.19,.08-.38,.13-.56,.23-.8,.54-1.57,.92-2.31,.48-.94,1.08-1.82,1.77-2.61,.32-.36,.67-.72,1.11-.89,.65-.26,1.37-.07,1.95,.36Z"/><path class="n" d="M101.14,443.65c-.2,1.3-.5,2.58-.97,3.82-.16,.41-.34,.82-.65,1.13-.31,.31-.79,.48-1.2,.34-.47-.18-.71-.69-.85-1.17-.64-2.15-.39-4.44-.31-6.68,.1-2.6-.05-5.21-.45-7.79,.01-.21,.03-.42,.05-.63,.02-.24,.05-.48,.16-.69,0-.02,.01-.04,.02-.05,.12-.2,.3-.36,.48-.51,.92-.78,1.84-1.56,2.77-2.33,.16-.14,.33-.28,.53-.36,.01,.09,.03,.18,.03,.27,.06,.61-.13,1.23-.5,1.72-.42,.55-1.07,.91-1.38,1.54-.21,.45-.21,.97-.19,1.47,.13,2.5,.66,4.97,1.59,7.3,.3,.75,.64,1.5,.81,2.29,.03,.12,.05,.24,.06,.35Z"/><path class="n" d="M105.93,437.81c-.04,.38-.08,.76-.14,1.14-.08,.56-.27,1.23-.83,1.5-.38,.18-.74,.06-.98-.3-.17-.26-.23-.56-.28-.85-.23-1.21-.39-2.43-.58-3.65-.15-.9-.3-1.8-.51-2.68-.11-.44-.22-.88-.35-1.32-.07-.22-.14-.44-.22-.65-.03-.09-.04-.16-.05-.25-.04-.25-.21-1.04-.65-.94-.01,0-.02,0-.04,.02-.02-.47,0-.94,.12-1.39,.02-.08,.05-.15,.07-.22,.01-.04,.03-.08,.04-.12,.35-.9,1.02-1.62,1.56-2.41,.14-.19,.26-.39,.38-.6,.04-.07,.09-.24,.15-.28h0s.06-.02,.09,.04c.1,.17,.01,.46-.02,.63-.05,.27-.09,.55-.12,.82-.13,1.1-.16,2.21-.08,3.32,.08,1.1,.25,2.2,.52,3.28,.27,1.07,.64,2.12,1.1,3.12,.28,.59,.58,1.18,.82,1.79Z"/><path class="j" d="M87.28,435.69c-.02,.86-.12,1.72-.21,2.57-.44,4-.71,8.01-.99,12.01-.03,.4-.06,.8,.04,1.19,.16,.65,.64,1.18,.79,1.84,.08,.32,.06,.66-.05,.98-.21,.07-.43,.07-.65,0-.81-.28-.98-1.39-1-2.29-.1-5.8,.67-11.6,.78-17.38h.01c0-1.49-.05-2.97-.19-4.46-.01-.11-.03-.22-.06-.32,.02,0,.03,0,.04,0,.21,.05,.33,.33,.42,.5,.29,.55,.44,1.15,.58,1.76,.18,.77,.36,1.55,.44,2.34,0,.06,0,.12,0,.18,.04,.36,.04,.72,.03,1.08Z"/></g><path class="l" d="M122.29,259.12c-3.26,1.41-6.43,3.06-9.26,5.21-2.96,2.26-5.48,5.03-7.98,7.78-1.03,1.14-2.08,2.29-3.07,3.46-.31,.37-.33,.77-.36,1.24-.08,1.37-.11,2.75-.11,4.12,.02,2.75,.18,5.5,.43,8.23,.52,5.51,1.41,10.97,2.2,16.45,.43,2.95,.4,6.03,.61,9.01,.2,2.9,.43,5.81,.68,8.7,.24,2.84,.51,5.67,.79,8.5,.14,1.42,.29,2.83,.45,4.24,.13,1.23,.5,2.44,.72,3.66,.34,1.87,.61,3.75,.68,5.66,.01,.34,.02,.69,.02,1.03,0,1.2-.1,2.41-.22,3.61-.44,4.65-1.13,9.28-2.08,13.86-.22,1.06-.54,2.1-.79,3.17-.25,1.09-.5,2.18-.75,3.27-.18,.78-.36,1.56-.54,2.34-.85,3.74-1.69,7.48-2.48,11.23-.79,3.75-1.54,7.51-2.22,11.29-.55,3.02-1.05,6.04-1.49,9.07h0c-.05,.35-.1,.69-.15,1.03l-12.97,8.17c-.03-.21-.06-.41-.08-.62-.1-.87-.15-1.75-.19-2.63-.05-1.39-.05-2.79-.06-4.18,0-1.15-.02-2.31-.09-3.46-.02-.39,0-.85-.1-1.23-.02-.08-.05-.14-.06-.23-.07-.46-.09-.93-.13-1.39-.09-.9-.16-1.8-.19-2.7-.01-.49-.03-.97-.01-1.46,.03-2.18,.19-4.36,.32-6.53,.02-.23,.03-.47,.05-.7,.42-7.18,.35-14.38-.22-21.55l.19,3.4c-.02-.23-.05-.46-.07-.69-.36-3.85-.62-7.71-.79-11.58-.07-1.63-.13-3.26-.16-4.89,0-.35,.04-.71,.05-1.06,.02-.64,.05-1.28,.07-1.92,.02-.44,.03-.88,.05-1.31,0-.18,0-.36,.06-.53,.03-.1,.06-.19,.08-.29,.1-.47,.09-.98,.15-1.46,.12-1.04,.24-2.09,.34-3.13,.37-3.79,.59-7.61,.41-11.43-.05-.95-.12-1.9-.22-2.84-.09-.88-.32-1.79-.31-2.67,0-.62-.15-1.42-.26-2.05-.82-4.77-1.42-9.28-2.28-14.05-.62-3.43-1.23-6.88-2.37-10.18-2.02-5.87-5.72-11.65-4.66-17.77,.29-1.63,.9-3.23,1.08-4.85,.07-.59,.08-1.18-.01-1.78-.18-1.22-.74-2.32-1.34-3.41-.29-.53-.6-1.04-.87-1.57-1.15-2.17-1.87-4.53-2.55-6.89-2.11-7.33-3.87-14.76-5.27-22.25l7.24,2.21,36.42,11.14,13.66,4.18Z"/><path class="j" d="M89.7,331.92c-.94,3-2.89,5.58-4.16,8.46-1.06,2.41-1.65,5-2.41,7.52,.1-.47,.09-.98,.15-1.46,.12-1.04,.24-2.09,.34-3.13,.37-3.79,.59-7.61,.41-11.43-.05-.95-.12-1.9-.22-2.84-.09-.88-.32-1.79-.31-2.67,0-.62-.15-1.42-.26-2.05-.82-4.77-1.42-9.28-2.28-14.05-.62-3.43-1.23-6.88-2.37-10.18-2.02-5.87-5.72-11.65-4.66-17.77,.29-1.63,.9-3.23,1.08-4.85,.79,.71,1.02,1.91,1.24,2.91,.68,3.06,1.39,6.13,2.58,9.04,.14,.34,.29,.68,.44,1.01,.94,2.04,2.14,3.95,3.24,5.91,4.85,8.66,7.67,18.49,7.92,28.42,.06,2.41-.04,4.86-.76,7.16Z"/></g><path class="r" d="M122.29,259.12c-3.26,1.41-6.43,3.06-9.26,5.21-2.96,2.26-5.48,5.03-7.98,7.78-1.03,1.14-2.08,2.29-3.07,3.46-.31,.37-.33,.77-.36,1.24-.08,1.37-.11,2.75-.11,4.12,.02,2.75,.18,5.5,.43,8.23,.52,5.51,1.41,10.97,2.2,16.45,.43,2.95,.4,6.03,.61,9.01,.2,2.9,.43,5.81,.68,8.7,.24,2.84,.51,5.67,.79,8.5,.14,1.42,.29,2.83,.45,4.24,.13,1.23,.5,2.44,.72,3.66,.34,1.87,.61,3.75,.68,5.66,.01,.34,.02,.69,.02,1.03,0,1.2-.1,2.41-.22,3.61-.44,4.65-1.13,9.28-2.08,13.86-.22,1.06-.54,2.1-.79,3.17-.25,1.09-.5,2.18-.75,3.27-1.29-2.47-1.93-5.34-2.09-8.15-.26-4.48,.53-8.95,.86-13.43,.67-9.04-.55-18.21-3.56-26.76-.95-2.7-2.09-5.39-2.33-8.24-.29-3.35,.66-6.66,1.21-9.98,.86-5.18,.73-10.53-.39-15.67-.6-2.77-1.49-5.61-.9-8.38,1.16-5.48,7.49-8.47,9.3-13.77,.87-2.54,.6-5.33,1.09-7.97,.2-1.05,.6-2.13,1.18-3.06l13.66,4.18Z"/><path class="n" d="M88.38,395.32c-.36,2.3-.07,4.69-.58,6.97-.33,1.46-.97,2.82-1.68,4.13-.63,1.18-1.3,2.33-1.87,3.53l-.12,.26c-.05-1.39-.05-2.79-.06-4.18,0-1.15-.02-2.31-.09-3.46-.02-.39,0-.85-.1-1.23-.02-.08-.05-.14-.06-.23-.07-.46-.09-.93-.13-1.39-.09-.9-.16-1.8-.19-2.7-.01-.49-.03-.97-.01-1.46,.03-2.18,.19-4.36,.32-6.53,.64-1.39,1.43-2.7,2.49-3.79,.92-.96,2.59-1.71,3.48-.72,.34,.37,.45,.89,.49,1.39,.3,3.21-1.42,6.23-1.91,9.42Z"/></g><path class="j" d="M79.93,259.21c-.43,2.23-1.4,4.3-2.48,6.28-.98,1.79-2.08,3.52-3.04,5.33-.26,.48-.5,.97-.73,1.47-.29-.53-.6-1.04-.87-1.57-1.15-2.17-1.87-4.53-2.55-6.89-2.11-7.33-3.87-14.76-5.27-22.25l7.24,2.21c.18,.84,.28,1.7,.33,2.55,.09,1.55,0,3.13,.38,4.64,.38,1.51,1.32,2.99,2.79,3.5,1.08,.37,2.35,.2,3.28,.86,1.14,.82,1.2,2.48,.94,3.86Z"/></g><g><g><g><g><path class="l" d="M63.14,19.91c-.74-3.68-1.55-7.35-2.76-10.89-.69-2.02-1.5-3.99-2.43-5.89-.05-.1-.1-.21-.15-.31-.32-.63-.68-1.24-1.17-1.71-.58-.56-1.39-.9-2.12-.69-.83,.24-1.35,1.06-1.65,1.94,.03,.06,.07,.11,.1,.17,.34,.51,.65,1.04,.93,1.58,.11,.2,.21,.4,.31,.61,.1,.2,.2,.4,.29,.61,.07,.15,.14,.29,.2,.44,.16,.37,.31,.75,.46,1.13,.06,.17,.13,.34,.19,.52,.05,.13,.1,.27,.14,.4,.08,.21,.15,.42,.21,.64,.07,.21,.13,.43,.2,.64,.06,.21,.12,.43,.18,.65,.81,2.99,1.22,6.08,1.6,9.16,.03,0,.05,0,.07,.02,.14,.02,.28,.05,.41,.09,.03,0,.05,.01,.07,.02h0s0,0,.02,0h0c.18,.05,.36,.09,.54,.15,.17,.05,.34,.1,.51,.16,.13,.05,.26,.09,.39,.14,.16,.06,.32,.12,.48,.18,.16,.06,.31,.13,.47,.19,.47,.2,.93,.41,1.39,.62,.27,.12,.54,.25,.81,.38h0c.09,.04,.18,.08,.27,.13h0c.01-.36,.02-.72,.02-1.07Z"/><path class="l" d="M63.59,22.19c-.07-.36-.14-.73-.21-1.09-.08-.4-.16-.8-.24-1.19,0,.36-.01,.72-.02,1.07-.09-.05-.19-.09-.28-.13l.26,.46,.49,.87Z"/><path class="l" d="M56.06,9.73c-.06-.21-.12-.43-.18-.65-.07-.21-.13-.43-.2-.64-.07-.21-.14-.43-.21-.64-.04-.12-.09-.25-.13-.38,0,0,0-.01,0-.01,0,0,0,0,0-.01-.06-.17-.12-.34-.19-.52-.06-.15-.11-.29-.17-.44-.09-.24-.19-.47-.29-.69-.07-.15-.13-.29-.2-.44-.04-.1-.09-.2-.14-.31-.05-.1-.1-.2-.15-.3-.1-.2-.2-.41-.31-.61-.05-.09-.1-.18-.14-.26-.1-.18-.2-.36-.3-.54h0c-.05-.1-.11-.2-.17-.3-.09-.15-.19-.3-.29-.45l-.02-.03c-.03-.06-.07-.11-.1-.17-.27-.42-.57-.82-.88-1.21-.41-.52-.98-1.04-1.56-1.13-.21-.04-.43-.01-.64,.1-.76,.39-.78,1.54-.66,2.45,.73,5.87,2.31,11.63,3.24,17.46h.02l1.22-.18,4.12-.6c-.02-.12-.03-.23-.04-.35-.38-3.08-.79-6.17-1.6-9.16Z"/><path class="l" d="M72.06,29.76h0v-.02c-.19-.79-.5-1.55-.89-2.27h0c-.66-1.19-1.56-2.25-2.58-3.14h0s-.02-.02-.02-.02c-.27-.23-.55-.46-.83-.66-1.3-.99-2.74-1.77-4.21-2.48-.05-.02-.1-.05-.15-.07h0c-.09-.04-.17-.09-.25-.12h0c-.09-.05-.18-.1-.27-.13h0c-.27-.13-.54-.26-.81-.38-.23-.11-.46-.21-.69-.31-.23-.11-.47-.21-.7-.3-.64-.27-1.29-.52-1.95-.71-.14-.04-.29-.08-.43-.12h0s-.01,0-.02,0c-.03-.01-.05-.02-.08-.02-.14-.03-.27-.07-.41-.09-.03,0-.05-.01-.07-.02h0c-.05-.01-.11-.03-.16-.03-1.24-.22-2.69-.19-4.04-.11-.44,.03-.88,.06-1.29,.09h0c.07,.4,.13,.79,.19,1.18,.22,1.5,.38,3.01,.45,4.53,0,.11,0,.22,0,.33-.02,.21-.08,.42-.26,.52-.4,.24-.48-.4-.54-.62-.27-.89-.95-1.75-1.57-2.41-.6-.66-1.31-1.22-2.06-1.68-1.77-1.08-3.81-1.6-5.86-1.82-.55-.06-1.12-.1-1.65,.09-.22,.07-.42,.19-.59,.35-.25,.22-.43,.51-.45,.84-.09,.89,.81,1.52,1.56,1.97,1.17,.7,2.31,1.48,3.38,2.33,1.01,.79,1.97,1.66,2.79,2.67,3.83,4.74,3.7,11.77,7.21,16.75l4.94,2.96,8.34,5c-.34-2.07,.24-4.17,1-6.12,.76-1.94,1.71-3.82,2.19-5.85,.34-1.43,.42-2.9,.62-4.36,.21-1.55,.55-3.1,.4-4.67-.03-.37-.09-.73-.18-1.08Z"/><path class="l" d="M71.63,14.01c-.09-.38-.19-.76-.3-1.13-.16-.55-.44-1.21-1.04-1.4-.4-.13-.74,.04-.93,.44-.13,.28-.14,.59-.16,.9-.05,1.26-.04,2.52-.06,3.77-.02,.93-.04,1.86-.12,2.78-.04,.46-.09,.92-.16,1.38-.04,.23-.08,.46-.12,.69-.02,.09-.01,.17-.01,.26,0,.26-.06,1.08-.51,1.04-.02,0-.03,0-.04,0-.26-.05-.33-.34-.35-.59-.02-.17-.03-.35-.04-.53-.07-.98-.09-1.96-.19-2.94-.05-.48-.12-.97-.21-1.45-.04-.17-.08-.34-.08-.52,0-.59-.08-1.18-.14-1.77-.21-2.08-.53-4.17-1.11-6.17-.38-1.29-.86-2.54-1.51-3.73-.21-.39-.45-.79-.8-1.06-.35-.27-.85-.38-1.24-.17-.44,.24-.61,.8-.68,1.31-.33,2.26,.25,4.54,.65,6.8,.47,2.62,.69,5.28,.66,7.94,0,.01,0,.03,0,.04,0,.36-.01,.72-.02,1.07h0v.33c-.04,.63-.08,1.27-.13,1.89l7.75,13.56c.44-.35,.68-.9,.84-1.45,.34-1.16,.38-2.39,.43-3.61,0-.19,.01-.37,.02-.56,.02-.46,.03-.93,.05-1.39h0s0-.02,0-.02c.05-1.52,.1-3.03,.15-4.55,.04-.99,.07-1.98,.1-2.97,.01-.25,.02-.5,.03-.74,0-.1,.02-.17,.04-.26,.08-.39,.01-.86,0-1.26-.05-1.99-.29-4-.76-5.94Z"/><path class="n" d="M57.8,2.82c-.32-.63-.68-1.24-1.17-1.71-.58-.56-1.39-.9-2.12-.69-.83,.24-1.35,1.06-1.65,1.94,.03,.06,.07,.11,.1,.17,.33,.52,.64,1.04,.93,1.58,.11,.2,.21,.4,.31,.61,.1,.2,.19,.4,.29,.61,.07,.15,.13,.29,.2,.44,.16,.37,.31,.75,.46,1.13,.06,.17,.13,.34,.19,.52,.05,.13,.1,.27,.14,.4,.08,.21,.15,.42,.21,.64,.07,.22,.13,.43,.2,.64,.06,.21,.12,.43,.18,.65,.81,2.99,1.22,6.08,1.6,9.16,.03,0,.05,0,.07,.02,.14,.02,.28,.05,.41,.09,.03,0,.05,0,.08,.02,0,0,0,0,.02,0h0s-.09-.66-.1-.73c-.04-.29-.07-.58-.11-.88-.09-.63-.18-1.27-.28-1.9-.19-1.21-.42-2.42-.7-3.62-.1-.43-.18-.84-.28-1.25-.05-.21-.1-.4-.16-.61-.28-.93-.52-1.88-.69-2.84-.04-.2-.07-.4-.1-.6-.08-.52-.15-1.06,.02-1.55,.33-.95,1.4-1.41,1.96-2.23Z"/></g><path class="j" d="M58.06,41.08c.28-.28,.51-.63,.65-1,.31-.81,.3-1.7,.23-2.56-.02-.2-.01-.43-.07-.62-.05-.14-.14-.27-.19-.41-.15-.44-.3-.87-.48-1.3-.32-.77-.69-1.51-1.14-2.21-.56-.88-1.24-1.69-1.92-2.49-2.42-2.86-5.06-5.71-8.48-7.16-1.51-.64-3.15-.99-4.53-1.88-.4-.25-.76-.57-1.08-.93-.31-.35-.58-.76-.77-1.2-.25,.22-.43,.51-.45,.84-.09,.89,.81,1.52,1.56,1.97,1.17,.7,2.31,1.48,3.38,2.34,1.01,.79,1.97,1.66,2.79,2.67,1.34,1.65,2.2,3.62,2.89,5.62,.35,1.01,.68,2.03,.95,3.06,.05,.19,.13,.37,.21,.55,.34,.77,.76,1.51,1.24,2.21,.61,.88,1.32,1.69,2.12,2.4,.36,.32,.76,.63,1.23,.75,.68,.17,1.37-.12,1.88-.63Z"/><path class="n" d="M66.05,8.78c-.38-1.29-.86-2.54-1.51-3.73-.21-.39-.45-.79-.8-1.06-.35-.27-.85-.38-1.24-.17-.44,.24-.61,.8-.68,1.31-.33,2.26,.25,4.54,.65,6.8,.47,2.62,.69,5.28,.66,7.94,.04,.21,.09,.42,.14,.63,.05,.24,.11,.48,.25,.68,0,.02,.01,.03,.03,.05,.14,.19,.34,.32,.54,.45,1.02,.66,2.04,1.32,3.07,1.97,.18,.11,.36,.23,.57,.29,0-.09,0-.18,0-.27-.03-.62-.3-1.23-.74-1.67-.5-.49-1.19-.77-1.58-1.36-.27-.43-.35-.96-.39-1.46-.23-2.54-.05-5.12,.54-7.6,.19-.8,.42-1.6,.48-2.43,0-.12,.01-.24,0-.36Z"/><path class="n" d="M71.63,14.01c-.09-.38-.19-.76-.3-1.13-.16-.55-.44-1.21-1.04-1.4-.4-.13-.74,.04-.93,.44-.13,.28-.14,.59-.16,.9-.05,1.26-.04,2.52-.06,3.77-.02,.93-.04,1.86-.12,2.78-.04,.46-.09,.92-.16,1.38-.04,.23-.08,.46-.12,.69-.02,.09-.01,.17-.01,.26,0,.26-.06,1.08-.51,1.04-.02,0-.03,0-.04,0,.05,.47,.13,.95,.32,1.38,.03,.07,.07,.15,.1,.21,.02,.04,.04,.07,.06,.11,.48,.86,1.24,1.5,1.88,2.22,.16,.17,.31,.36,.46,.55,.05,.07,.12,.23,.18,.26h0s.06,.01,.08-.05c.08-.19-.05-.46-.1-.64-.08-.27-.16-.54-.23-.82-.29-1.1-.47-2.22-.55-3.35-.08-1.13-.07-2.26,.05-3.39,.12-1.12,.33-2.23,.65-3.3,.19-.64,.41-1.27,.56-1.92Z"/><path class="j" d="M53.46,18.75c-.14-.87-.36-1.72-.57-2.57-1-3.98-1.84-7.99-2.69-12-.08-.4-.17-.8-.13-1.21,.06-.68,.46-1.29,.52-1.97,.03-.34-.04-.68-.18-.98-.21-.04-.43-.01-.64,.1-.76,.39-.78,1.54-.66,2.45,.73,5.87,2.31,11.63,3.24,17.46h.01c.22,1.5,.38,3.01,.45,4.53,0,.11,0,.22,0,.33,.01,0,.02,0,.04-.01,.2-.07,.28-.38,.34-.57,.21-.59,.27-1.23,.32-1.86,.07-.81,.14-1.62,.1-2.43,0-.06,0-.12-.01-.18-.02-.37-.06-.73-.12-1.09Z"/></g><path class="l" d="M113.18,192.39l-.07,.03-1.46,.69c-.25,.12-.49,.23-.74,.35-2.13,1.01-4.26,2.02-6.39,3.03-1.41,.67-2.82,1.34-4.23,2-.02,0-.03,.02-.05,.03l-34.49,16.33-6.85,3.24c.21-5.05,.57-10.1,1.09-15.13,.28-2.71,.61-5.41,.97-8.11,.34-2.47,.72-4.96,1.55-7.31,.2-.57,.43-1.13,.64-1.71,.45-1.18,.85-2.37,.85-3.63,0-.62-.09-1.21-.24-1.8-.08-.3-.17-.6-.27-.9-.13-.36-.26-.7-.4-1.05-.08-.2-.16-.39-.24-.58-.03-.09-.07-.17-.1-.25-.27-.65-.54-1.3-.75-1.97-.24-.75-.4-1.51-.51-2.26-.19-1.4-.18-2.81-.02-4.23,0-.02,0-.04,0-.06,.15-1.45,.44-2.91,.78-4.37h0s.02-.06,.02-.09c.04-.17,.08-.33,.12-.49,.07-.3,.15-.6,.22-.9,.08-.3,.15-.59,.23-.88,.04-.15,.08-.31,.12-.46,.08-.3,.15-.59,.23-.89,.16-.61,.31-1.22,.46-1.84,.07-.28,.13-.55,.19-.82,.04-.15,.07-.3,.1-.45,.06-.3,.12-.59,.18-.88,.65-3.49,.77-7.07,.9-10.62,.18-4.94,.13-9.58,.27-14.52,.02-.65,.06-1.48-.04-2.11-.14-.89-.04-1.84-.08-2.74-.04-.97-.1-1.94-.19-2.9-.37-3.88-1.12-7.71-2.03-11.5-.25-1.03-.51-2.07-.77-3.11-.13-.47-.19-.99-.35-1.45-.04-.1-.08-.19-.12-.29-.09-.16-.1-.35-.13-.52-.08-.44-.16-.88-.23-1.33-.12-.64-.23-1.28-.34-1.93-.07-.36-.16-.71-.2-1.07-.2-1.66-.38-3.31-.54-4.96-.38-3.93-.67-7.87-.86-11.82-.01-.24-.02-.47-.03-.71l.29,3.46c-.46-7.32-1.41-14.61-2.84-21.81-.05-.23-.1-.47-.15-.7-.44-2.18-.91-4.36-1.24-6.56-.08-.49-.14-.98-.19-1.48-.1-.92-.16-1.84-.2-2.76-.03-.47-.07-.95-.07-1.43,0-.09,.02-.15,.03-.24,.06-.4-.04-.86-.08-1.25-.1-1.18-.25-2.35-.4-3.51-.19-1.41-.39-2.82-.54-4.23-.09-.9-.16-1.79-.19-2.69h0c0-.22-.02-.43-.02-.64l14,6.46c.1,.33,.19,.66,.29,1,0,0,0,.01,0,.02h0c.87,3.01,1.79,6,2.76,8.97,1.21,3.72,2.49,7.42,3.8,11.1,1.32,3.68,2.68,7.35,4.06,11.01,.29,.76,.57,1.53,.86,2.29,.4,1.07,.81,2.13,1.21,3.21,.4,1.04,.86,2.05,1.23,3.09,1.59,4.49,2.93,9.07,4.02,13.72,.09,.37,.17,.73,.25,1.09,.19,.84,.35,1.68,.47,2.53,.05,.31,.09,.62,.12,.92v.12c.22,1.93,.21,3.88,.15,5.81-.05,1.27-.24,2.54-.19,3.8v.07c.05,1.43,.1,2.85,.16,4.28,.06,1.45,.13,2.9,.2,4.35,.07,1.45,.15,2.9,.23,4.35,.09,1.48,.17,2.96,.27,4.44h0c.07,1.03,.13,2.05,.21,3.07,.03,.46,.06,.92,.09,1.38,.11,1.52,.28,3.05,.42,4.58,.02,.19,.04,.38,.05,.57,.06,.58,.1,1.15,.13,1.72,.05,.78,.08,1.56,.08,2.33,0,1.27-.01,2.55-.02,3.82-.01,2.12-.02,4.25,0,6.37,0,1.44,.03,2.87,.08,4.31,0,.12,.01,.24,.02,.36,.02,.69,.05,1.39,.08,2.08,.05,1.07,.12,2.15,.2,3.22,.11,1.43,.25,2.86,.43,4.28,.04,.29,.08,.59,.12,.88,.19,1.4,.42,2.78,.69,4.16,.04,.18,.07,.35,.12,.5h0c.08,.27,.19,.5,.42,.7,1.15,1.04,2.35,2.06,3.53,3.07,2.87,2.43,5.76,4.89,9.01,6.76,3.1,1.78,6.47,3.01,9.9,3.97t.01,0Z"/><path class="j" d="M71.28,150.96c-.3,1.4-.75,2.77-1.04,4.16-.05,.23-.07,.45-.06,.69,.02,.55,0,1.04-.08,1.59-.37,2.84-.51,5.7-.58,8.56-.11,4.76,0,9.53-.34,14.28-.58,8.1-2.75,16.59-8.62,22.2-.18,.17-.38,.34-.58,.5,.28-2.71,.61-5.41,.97-8.11,.34-2.47,.72-4.96,1.55-7.31,.2-.57,.43-1.13,.64-1.71,.45-1.18,.85-2.37,.85-3.63,0-.62-.09-1.21-.24-1.8-.08-.31-.18-.61-.27-.9-.13-.36-.26-.7-.4-1.05-.08-.19-.14-.4-.24-.58-.03-.09-.07-.17-.1-.25-.27-.65-.54-1.3-.75-1.97-.24-.75-.4-1.51-.51-2.26-.19-1.4-.18-2.81-.03-4.23,0-.02,0-.04,0-.06,.06-1.47,.43-2.95,.78-4.37h0s.02-.06,.02-.09c.04-.17,.08-.33,.12-.49,.07-.3,.15-.6,.22-.9,.08-.3,.15-.59,.23-.88,.04-.15,.08-.31,.12-.46,.08-.3,.15-.59,.23-.89,.16-.61,.31-1.22,.46-1.84,.07-.28,.13-.55,.19-.82,.04-.15,.07-.3,.1-.45,.06-.3,.12-.59,.18-.88,.65-3.49,.77-7.07,.9-10.62,.18-4.94,.13-9.58,.27-14.52,.01-.65,.06-1.48-.04-2.11-.14-.89-.04-1.84-.08-2.74-.04-.97-.1-1.94-.19-2.9-.37-3.88-1.12-7.71-2.03-11.5-.25-1.03-.51-2.07-.77-3.11-.13-.47-.19-.99-.35-1.45,1.11,2.44,2.06,4.98,3.46,7.27,1.67,2.74,3.96,5.07,5.32,7.97,1.04,2.22,1.48,4.69,1.77,7.13,.78,6.84,.39,13.8-1.06,20.52Z"/></g><path class="n" d="M113.98,190.4c-.03,.56-.07,1.17-.43,1.63-.11,.14-.24,.25-.38,.35h0s-.03,.03-.06,.04c-.23,.15-.48,.25-.71,.36-.25,.11-.5,.23-.74,.34-.25,.12-.49,.23-.74,.35-2.13,1.01-4.26,2.02-6.39,3.03-1.41,.67-2.82,1.34-4.23,2-.02,0-.03,.02-.05,.03-.71-.85-1.26-1.89-1.61-2.93-.87-2.6-.99-5.46-2.21-7.9-2.54-5.1-9.24-7.24-11.17-12.62-.97-2.72-.5-5.71-.3-8.59,.38-5.35-.26-10.77-1.84-15.89-1.02-3.28-2.43-6.49-2.62-9.92-.16-2.92,.59-5.79,1.14-8.65,1.76-9.06,1.67-18.5-.28-27.54-.96-4.48-2.37-8.89-2.76-13.46-.23-2.86,0-5.85,.92-8.53,.4,1.07,.81,2.13,1.21,3.21,.4,1.04,.86,2.05,1.23,3.09,1.59,4.49,2.93,9.07,4.02,13.72,.09,.37,.17,.73,.25,1.09,.19,.84,.36,1.68,.48,2.53,.04,.31,.08,.62,.12,.92v.12c.22,1.93,.21,3.88,.15,5.81-.05,1.27-.24,2.54-.19,3.8v.07c.05,1.43,.1,2.85,.16,4.28,.06,1.45,.12,2.91,.19,4.35,.07,1.45,.15,2.9,.23,4.35,.08,1.48,.17,2.96,.27,4.44h0c.07,1.02,.13,2.05,.21,3.07,.03,.46,.06,.92,.1,1.39,.11,1.51,.28,3.04,.41,4.57,.02,.19,.04,.38,.05,.57,.06,.58,.1,1.15,.13,1.72,.05,.78,.08,1.56,.08,2.33,0,1.27-.01,2.55-.02,3.82-.01,2.12-.02,4.25,0,6.37,0,1.44,.03,2.87,.08,4.31,0,.12,.01,.24,.02,.36,.02,.69,.05,1.39,.08,2.08,.05,1.08,.11,2.16,.18,3.24,.08,1.22,.19,2.44,.34,3.65,.03,.2,.06,.41,.11,.61,.03,.13,.06,.25,.1,.37,.15,.43,.39,.79,.75,1.07,.4,.31,.86,.54,1.28,.8,.62,.39,1.2,1,1.92,1.2,.28,.08,.55,.12,.82,.24,.85,.38,1.68,.82,2.53,1.22,1.7,.79,3.42,1.56,5.15,2.28,1.63,.68,3.27,1.32,4.92,1.94,.16,.06,.32,.12,.48,.18,1.27,.47,2.57,.94,3.72,1.68,.57,.37,1.03,.81,1.49,1.31,.2,.21,.44,.28,.65,.47,.28,.24,.47,.56,.61,.89,.28,.61,.12,1.19,.16,1.83,.06,.86,.06,1.72,0,2.57Z"/><path class="j" d="M60.27,59.41c-.68-2.28-.73-4.73-1.56-6.96-.53-1.43-1.36-2.71-2.25-3.94-.79-1.11-1.62-2.17-2.35-3.31l-.16-.24c.15,1.41,.35,2.82,.54,4.23,.16,1.17,.31,2.34,.4,3.51,.03,.39,.13,.86,.08,1.26,0,.08-.03,.15-.03,.24,0,.47,.04,.95,.07,1.42,.04,.92,.1,1.84,.2,2.76,.05,.49,.11,.99,.19,1.48,.33,2.2,.81,4.38,1.25,6.56,.83,1.32,1.8,2.53,3,3.49,1.05,.85,2.81,1.37,3.55,.24,.28-.42,.32-.96,.29-1.47-.16-3.28-2.29-6.1-3.23-9.26Z"/><path class="r" d="M106.86,181.47c-.89,1.37-2.27,2.46-3.83,2.94-.79,.24-1.65,.36-2.46,.18-.86-.19-1.61-.69-2.34-1.18-1.64-1.11-3.29-2.21-4.93-3.32-.99-.67-2.04-1.39-2.99-2.21h0c-1.25-1.08-2.32-2.34-2.86-3.89-.67-1.92-.2-4.59,1.49-5.91,0,0,.01-.02,.02-.02,.11,1.43,.25,2.86,.43,4.28,.03,.13,.06,.25,.1,.37,.15,.43,.39,.79,.75,1.07,.4,.31,.86,.54,1.28,.8,.62,.39,1.2,1,1.92,1.2,.28,.08,.55,.12,.82,.24,.85,.38,1.68,.82,2.53,1.22,1.7,.79,3.42,1.56,5.15,2.28,1.63,.68,3.27,1.32,4.92,1.94Z"/></g><g><path class="l" d="M149.38,184.78c5.95-.16,11.92,.66,17.61,2.4,2.32,.71,4.6,1.58,6.98,2.11,2.75,.6,5.58,.74,8.39,.94,7.03,.5,14.03,1.44,20.95,2.8,.94,1.02,1.03,2.7,.91,4.09-.08,.9-.17,1.81-.27,2.72-1.2,10.81-4.07,21.43-8.46,31.37-.79,1.79-1.64,3.57-2.85,5.09-1.22,1.52-2.77,2.74-4.3,3.94-1.56,1.22-3.13,2.45-4.76,3.58-1.97,1.36-4.02,2.56-6.26,3.42-3.35,1.28-6.96,2.1-10.54,1.99-2.38-.07-4.76-.14-7.14-.13-3.64,.03-7.3,.25-10.87,.99-.89,.18-1.77,.4-2.64,.65-.39,.11-.8,.29-1.21,.33-.68,.06-1.24,.28-1.9,.53-.28,.11-.55,.21-.83,.32-7.54,2.98-14.56,7.51-22.66,8.87-7.01,1.17-14.22-.22-20.98-2.41-6.76-2.19-13.24-5.18-20-7.36-.01,0-.02,0-.03-.01-2.48-.8-5.03-1.5-7.32-2.75-.4-.22-.8-.46-1.18-.7-2.11-1.34-4.04-2.98-6.3-4.05-3.19-1.51-10.33-1.75-15.49-1.69h0c-1.48,.01-2.8,.06-3.81,.11l1.02-4.77,6.44-30.07c2.12,.2,5.78,.4,9.41,.6,1.86,.11,3.71,.21,5.34,.31h0c1.44,.09,2.72,.18,3.67,.27,7.94,.75,16.3,1.45,23.6-1.79,4.55-2.01,8.38-5.46,11.25-9.51,2.88-4.06,4.84-8.7,6.22-13.48,8.37,1.25,16.82,2.22,25.27,2.05,.81-.02,1.63-.05,2.44-.09,3.44-.16,6.86-.57,10.3-.66Z"/><path class="n" d="M82.67,230.93c.55-.16,1.1-.35,1.6-.64,.43-.25,1.56-.87,1.62-1.45,.07-.68-1.88-.25-2.26-.22-1.44,.09-2.88,.19-4.32,.28l-.43,.03c-2.84,.18-5.68,.37-8.51,.69-3.61,.4-7.08,1.1-10.58,2.07-1.33,.37-2.64,.89-3.99,1.22-.23,.06-.44,.05-.67,.07-.48,.05-.91,.25-1.35,.42-3.08,1.19-6.09,2.56-9.02,4.1-1.21,.63-2.41,1.3-3.45,2.19-.39,.34-.92,.74-1.08,1.25-.31,.96-.36,2.43,.75,2.82,1.12,.4,2.46-.08,3.51-.49,1.72-.68,3.44-1.35,5.16-2,3.45-1.3,6.93-2.54,10.43-3.71,3.5-1.17,7.02-2.29,10.56-3.33,3.47-1.03,6.96-1.99,10.46-2.9,.52-.13,1.05-.25,1.56-.39Z"/><path class="j" d="M61.28,207.68c1.86,.11,3.71,.21,5.34,.31h0c1.5,.33,2.99,.7,4.47,1.11,.87,.25,1.79,.54,2.39,1.21,1.01,1.15,.76,2.93,1.35,4.35,.54,1.29,1.82,2.39,1.63,3.78-1.38,.12-2.49-1.02-3.47-1.99-1.24-1.23-2.69-2.37-4.37-2.92-1.57-.52-3.25-.35-4.87-.32-.97,.02-2.13,.11-3.01-.38-.93-.52-1.26-1.78-1.14-2.78,.13-1,.79-1.91,1.68-2.38Z"/><path class="r" d="M79.02,236.25c.29,.01,.57,.13,.81,.3,.91,.62,1.24,1.8,1.4,2.89,.24,1.63,.21,3.29-.05,4.91-.24,1.45-.66,2.87-1.26,4.21-.3,.66-.63,1.3-1.02,1.91-.12,.19-.24,.38-.39,.55-2.48-.8-5.03-1.5-7.32-2.75-.4-.22-.8-.46-1.18-.7,.01-.12,.05-.23,.11-.35,.21-.39,.66-.58,1.06-.77,3.17-1.56,4.75-5.1,6.06-8.39,.33-.83,.87-1.82,1.77-1.8Z"/></g><g><path class="r" d="M140.57,236.66c-.31,1.63-.38,3.3-.36,4.96,.02,3.51,.36,7.25,1.99,10.28,.28-.11,.55-.22,.83-.32,.66-.25,1.22-.47,1.9-.53,.41-.04,.82-.22,1.21-.33,.87-.25,1.76-.47,2.64-.65,3.57-.74,7.23-.96,10.87-.99,2.38-.02,4.76,.06,7.14,.13,3.58,.11,7.19-.71,10.54-1.99,2.23-.85,4.29-2.06,6.26-3.42-.27-.31-.59-.58-.94-.8-.32-.2-.67-.39-.83-.72-.18-.39-.04-.83,.1-1.23,.46-1.29,.91-2.59,1.37-3.88-1.61-.03-2.66,1.6-3.86,2.67-2.32,2.06-5.72,2.19-8.81,2.22-2.19,.02-4.63-.06-6.19-1.6-.4-.4-.73-.88-1.23-1.16-.46-.25-1.01-.29-1.55-.29-3.52-.02-7.04,1.09-9.91,3.13-.59,.42-1.18,.88-1.9,.96-1.03,.12-2-.65-2.47-1.58-.8-1.56-.72-3.52-1.12-5.2-.25-1.03-.49-2.86-1.59-3.35-.85-.39-1.84,.1-2.49,.65-.96,.8-1.38,1.86-1.61,3.06Z"/><path class="j" d="M140.86,191.93l-.96,10.87c2.81,.4,5.72,.83,8.08,2.4,1.42,.94,2.57,2.26,4.04,3.13,2.06,1.22,4.54,1.43,6.88,1.93,5.02,1.07,9.71,3.61,13.35,7.22,1.8,1.79,3.45,3.9,5.82,4.83,.74,.29,1.74,.39,2.21-.26,.39-.55,.17-1.3-.08-1.92-2.45-5.87-7.42-10.32-12.7-13.85-5.29-3.53-11.04-6.35-16.15-10.14-1.57-1.16-3.08-2.42-4.82-3.31-1.74-.89-3.76-1.38-5.65-.9Z"/></g><path class="j" d="M166.99,187.18c2.32,.71,4.6,1.58,6.98,2.11,2.75,.6,5.58,.74,8.39,.94,7.03,.5,14.03,1.44,20.95,2.8,.94,1.02,1.03,2.7,.91,4.09-.08,.9-.17,1.81-.27,2.72-5.7-.53-11.44-.56-17.14-.08-2.43,.21-4.92,.49-7.28-.14-1.46-.39-2.81-1.12-4.27-1.52-5.05-1.35-10.67,1.52-15.55-.39-2.1-.82-3.77-2.44-5.63-3.74-1.64-1.15-3.43-2.05-5.3-2.77-1.67-.64-3.38-1.14-5.12-1.56-1.71-.41-3.46-.65-5.16-1.07-1.15-.28-1.83-.88-1.89-2.1-.02-.31-.01-.62,.01-.93,.81-.02,1.63-.05,2.44-.09,3.44-.16,6.86-.57,10.3-.66,5.95-.16,11.92,.66,17.61,2.4Z"/><g><g><path class="s" d="M110.11,181.84c.85-.03,1.78,.2,2.62,.34,.9,.14,1.8,.31,2.69,.5,.45,.09,.9,.18,1.35,.28,3.1,.66,6.19,1.42,9.35,1.74,1.81,.18,6.97-.34,8.78-.56,.05,0,.1-.01,.14-.02,.08,0,.16-.02,.25-.03l.09,.25c.24,.16,.47,.33,.7,.51,.01,.01,.02,.02,.04,.03,.17,.14,.34,.28,.5,.42,.15,.13,.3,.27,.44,.41,.01,0,.02,.02,.03,.03,.17,.17,.34,.34,.5,.52,.16,.17,.32,.36,.46,.54,.02,.01,.03,.03,.04,.04,.15,.18,.28,.36,.42,.54,0,.01,.01,.03,.03,.04,.14,.19,.28,.39,.41,.59,.13,.2,.26,.4,.38,.61,.02,.02,.03,.03,.03,.05,.12,.19,.22,.38,.32,.57,.02,.04,.04,.07,.06,.11,.1,.18,.19,.36,.27,.54,.1,.19,.19,.39,.27,.59,.11,.23,.21,.47,.29,.71,.12,.28,.22,.56,.31,.85,.03,.1,.07,.19,.1,.29,.07,.2,.13,.4,.19,.61,.08,.28,.16,.57,.23,.85,.04,.14,.07,.28,.1,.41,.87,3.88-2.52,8.46-2.51,12.44,.05,11.04,.87,22.08,1.1,33.12,.07,3.28,.09,6.57,.02,9.86-.04,1.73-.1,3.24-.89,4.8-.35,.7-.86,1.42-1.58,2.17-.96,1.16-1.79,1.66-2.73,2.61-4.41,4.47-10.52,7.79-16.68,6.87-.27-.04-.54-.09-.81-.13-1.57-.31-3.11-.79-4.69-1-.14-.03-.28-.04-.41-.06-.82-.09-1.66-.1-2.47,.06-.12,.02-.24,.06-.36,.09-.28,.08-.54,.19-.82,.26-.14,.04-.26,.03-.4,.04-.66,.07-1.28,.28-1.96,.25-.34,0-.66,.08-.99,.14-1.08,.18-2.17,.32-3.27,.19-2.1-.26-3.95-1.48-6-2.02-1.64-.43-3.36-.41-4.99-.87-1.46-.4-2.79-1.16-4.17-1.78-1.9-.84-3.91-1.38-5.81-2.2-4.81-2.08-8.74-5.79-12.55-9.43-.5-.48-1.02-1-1.48-1.55-.97-1.17-1.68-2.49-1.46-3.95,1.32,2.17,3.84,3.25,6.24,3.98,2.4,.73,4.91,1.05,7.28,1.88,1.05,.37,2.07,.84,3.15,1.14,2.15,.6,4.47,.51,6.59,1.21,1.61,.53,3.04,1.48,4.57,2.2,1.54,.72,3.28,1.21,4.91,.73,1.72-.5,3-2.02,3.69-3.7,.69-1.68,.87-3.53,1.04-5.33,.35-3.66-.07-6.83-.36-10.49-.04-.53-.07-1.01-.19-1.53-.12-.45-.26-.9-.42-1.34-1.37-3.89-3.53-7.47-6.28-10.5-2.67-2.95-5.9-5.38-9.47-7.08-.73-.35-1.5-.61-2.26-.84-.73-.21-1.54-.33-2.22-.66-.2-.1-.36-.23-.55-.33-.57-.3-1.32-.37-1.94-.53-1.4-.35-2.8-.69-4.2-1.02-2.31-.54-4.64-1.03-6.98-1.44-1.85-.32-3.71-.57-5.58-.73-.67-.9-.79-2.01-.72-3.13,0-.13,.02-.25,.03-.38,.31-.34,.66-.64,1.03-.89,2.05-1.39,4.88-1.48,7.44-1.51h.09c5.88-.08,11.8-.59,17.48-2.16,.58-.15,1.15-.33,1.72-.51,1.69-.53,3.36-1.17,4.89-2.07,2.57-1.53,4.68-3.75,6.74-5.95,2.03-2.16,4.1-4.36,5.8-6.81,.71-1.03,1.36-2.1,1.93-3.23,.26-.52,.42-1.25,1.1-1.27Z"/><path class="d" d="M76.32,255.23c.26,.21,.6,.39,.94,.36,.45-.05,.8-.46,.88-.91,.08-.45-.07-.91-.3-1.31-.15-.25-.32-.48-.43-.74-.11-.27-.14-.59,0-.83,.18-.31,.59-.4,.93-.32,.34,.09,.62,.33,.88,.57,.49,.45,.88,.98,1.34,1.46,.29,.3,.65,.51,.95,.8,.17,.15,.33,.32,.48,.48,.26,.28,.5,.56,.77,.81,.44,.41,.91,.78,1.42,1.11,.21,.14,.43,.28,.66,.4,.25,.14,.55,.37,.83,.43,.12,.03,.15,.02,.27,.01,.29-.03,.55,.07,.83,.11,.31,.04,.7-.07,.76-.38,.07-.35-.33-.71-.16-1.03,.04-.08,.11-.14,.18-.18,.42-.28,.98-.28,1.46-.12,.48,.16,.9,.46,1.31,.76,.54,.39,1.08,.78,1.62,1.16,.41,.29,.69,.7,1.11,.96,1,.64,2.1,1.19,3.3,1.31,.65,.06,1.34-.01,1.95,.22,.96,.36,1.54,1.36,2.41,1.9,1.61,.99,3.69,.19,5.53,.53,1.34,.24,2.44,1.11,3.18,2.27-.28,.08-.54,.19-.82,.26-.14,.04-.26,.03-.4,.04-.66,.07-1.28,.28-1.96,.25-.34-.01-.66,.08-.99,.13-1.08,.18-2.18,.32-3.27,.19-2.1-.25-3.96-1.48-6-2.02-1.64-.43-3.36-.42-4.99-.87-1.46-.4-2.79-1.16-4.17-1.78-1.9-.84-3.91-1.38-5.81-2.2-4.81-2.08-8.74-5.79-12.55-9.42-.5-.47-1.02-1-1.48-1.55,.33,.33,.65,.65,.98,.97,2.26,2.18,4.73,4.22,7.55,5.62,.19,.1,.38,.16,.53,.32,.09,.09,.16,.18,.25,.26Z"/><path class="d" d="M111.19,237.56c2.96,.92,5.64-1.95,8.57-2.98,.48-.17,1-.29,1.51-.2,2.03,.37,2.28,3.57,4.17,4.41,1.33,.59,2.82-.24,4.26-.4,2.01-.22,3.99,.93,5.26,2.54,1.27,1.6,1.95,3.61,2.5,5.59,.73,2.6,1.3,5.24,1.71,7.91-.35,.7-.86,1.42-1.58,2.17-.96,1.16-1.79,1.66-2.73,2.61-4.41,4.47-10.52,7.79-16.68,6.87-.27-.04-.54-.09-.81-.13-1.57-.31-3.11-.79-4.69-1-.68-.52-1.4-.99-2.14-1.4-.8-.44-1.64-.83-2.4-1.33-1.67-1.09-2.94-2.71-4.17-4.29-.76-.97-1.57-2.17-1.21-3.36,.18-.61,.65-1.1,.86-1.71,.29-.83,.06-1.74-.02-2.61-.07-.87,.13-1.92,.9-2.29,1.08-.53,2.2,.58,2.96,1.52,.76,.94,2.12,1.87,3.02,1.07,.93-.83,.12-2.35-.66-3.34-1.33-1.69-2.52-3.51-3.51-5.44-.22-.42-.33-.93-.48-1.38-.07-.21-.14-.43-.15-.65,0-.22,.08-.46,.26-.59,.14-.1,.33-.11,.48-.02,.17,.1,.35,.21,.53,.32,.41,.25,.8,.53,1.15,.86-.27-2.39-2.51-3.86-3.25-6.05-.11-.31-.23-.55-.03-.84,.13-.2,.36-.34,.59-.38,.34-.06,.82,.06,1.05,.34,.08,.1,.14,.22,.23,.32,.13,.13,.27,.25,.4,.38,.52,.52,1,1.09,1.51,1.63,.73,.78,1.56,1.53,2.6,1.86Z"/><path class="d" d="M61.86,206.62c5.66,.55,11.27,1.49,16.8,2.82,2.9,.7,5.82,1.52,8.4,3.02,3.87,2.26,6.65,5.84,8.73,9.91-2.67-2.95-5.9-5.38-9.47-7.08-.73-.35-1.5-.61-2.26-.84-.73-.21-1.54-.33-2.22-.66-.2-.1-.36-.24-.55-.33-.57-.3-1.32-.37-1.94-.53-1.4-.35-2.8-.69-4.2-1.02-2.31-.54-4.64-1.03-6.98-1.44-1.85-.32-3.71-.57-5.58-.73-.67-.9-.79-2.01-.72-3.13Z"/><path class="d" d="M107.08,186.34c3.79,.62,7.54,1.66,11.16,2.98,3.6,1.32,7.23,2.98,9.83,5.84,1.76,1.93,2.91,4.38,3.42,6.95,.37,1.87,.65,4.34-.21,6.11-.38,.79-.94,1.49-1.41,2.23-.22,.34-.31,.43-.72,.42-.28-.01-.55-.08-.83-.15-.56-.14-1.14-.34-1.71-.21-1.13,.26-1.6,1.6-1.91,2.73-.31,1.13-.85,2.46-2,2.64-.86,.13-1.59-.46-2.28-.89-.36-.22-.69-.37-1.08-.49-1.27-.42-2.45-1.77-3.33-2.76-2.04-2.32-3.47-5.25-5.95-7.07-2.55-1.87-5.87-2.29-9.02-2.24-3.15,.06-6.31,.52-9.44,.16-1.25-.14-2.5-.43-3.67-.91,.58-.15,1.15-.33,1.72-.51,1.69-.53,3.36-1.17,4.89-2.07,2.57-1.53,4.68-3.75,6.74-5.95,2.03-2.16,4.1-4.36,5.8-6.81Z"/><path class="e" d="M70.37,203.84c1.25,.15,2.5,.36,3.73,.63,3.19,.69,6.3,1.71,9.4,2.74,.96,.32,1.93,.64,2.89,.96,.63,.21,1.75,.46,1.9,1.27-.35,.19-.92,.03-1.24-.08-.38-.13-.76-.26-1.14-.39-3.08-1.01-6.23-1.78-9.42-2.33-3.18-.54-6.4-.85-9.62-.92-.82-.02-1.64-.02-2.45,0-.55,.01-1.12,.14-1.49-.36,0,0,0-.01,0-.02,2.05-1.39,4.88-1.48,7.44-1.51Z"/><path class="e" d="M134.9,184.13s.1-.01,.14-.02c.05,.04,.1,.07,.15,.1,.1,.07,.2,.15,.31,.23,.18,.14,.39,.25,.57,.39,.01,.01,.02,.02,.04,.03,.17,.14,.34,.28,.5,.42,.15,.13,.3,.27,.44,.41,.01,0,.02,.02,.03,.03,.17,.17,.34,.34,.5,.52,.16,.17,.32,.36,.46,.54,.02,.01,.03,.03,.04,.04,.15,.18,.28,.36,.42,.54,0,.01,.01,.03,.03,.04,.14,.19,.28,.39,.41,.59,.13,.2,.26,.4,.38,.61,.02,.02,.03,.03,.03,.05,.12,.19,.22,.38,.32,.57,.02,.04,.04,.07,.06,.11,.1,.18,.19,.36,.27,.54,.1,.19,.19,.39,.27,.59,.11,.23,.21,.47,.29,.71,.12,.28,.22,.56,.31,.85,.03,.1,.07,.19,.1,.29,.07,.2,.13,.4,.19,.61,.08,.28,.16,.57,.23,.85,.04,.14,.07,.28,.1,.41,.87,3.88-2.52,8.46-2.51,12.44,.05,11.04,.87,22.08,1.1,33.12-.81-1.24-1.64-2.46-2.39-3.73-3.07-5.2-4.61-11.32-4.38-17.37,.07-1.68,.37-3.34,.79-4.96,.16-.61,.28-1.27,.58-1.83,.22-.42,.4-.75,.45-1.24,.14-1.33,.22-2.68,.24-4.03,.04-2.66-.21-5.34-1.02-7.88-.19-.58-.4-1.15-.65-1.71-1.98-4.5-5.9-7.89-10.22-10.12-1.71-.88-3.5-1.61-5.1-2.69-.55-.37-1.08-.8-1.57-1.27,3.1,.66,6.19,1.42,9.35,1.74,1.81,.18,6.97-.34,8.78-.56Z"/></g><g><path class="p" d="M140.28,183.47c.25,0,.53,.01,.71,.19l.14,.26c.54,.73,1.01,1.51,1.42,2.32,1.16,2.29,1.83,4.86,2.15,7.43,.44,3.48,.29,7,.17,10.5-.22,5.99-.35,12-.19,17.99,.07,2.57,.2,5.14,.4,7.7,.45,5.8,1.26,11.58,1.33,17.39,.03,2.39-.31,5.21-2.34,6.4-.46,.27-.95,.42-1.47,.5-1.03,.15-2.14,0-3.18-.17,.5-4.03-.54-7.86-.99-11.89-.37-3.33-.4-6.68-.4-10.02,0-2.72,.02-5.44,.03-8.16,.06-11.34,.02-22.69-1.96-33.82-.36-2.03-.85-4.16-2.29-5.61,.7-.92,1.97-.97,3.12-.98,1.12-.01,2.23-.02,3.35-.02Z"/><path class="d" d="M144.68,222.16c.07,2.57,.2,5.14,.4,7.7,.45,5.8,1.26,11.58,1.33,17.39,.03,2.39-.31,5.21-2.34,6.4-.46,.27-.95,.42-1.47,.5-.17-.12-.32-.26-.45-.42-.94-1.14-.71-2.81-.79-4.3-.13-2.34-1.11-4.55-1.39-6.88-.23-2.01,.08-4.04,.39-6.03,.68-4.34,1.35-8.67,2.29-12.96,.13-.59,.32-1.26,.85-1.52,.37-.18,.82-.1,1.18,.12Z"/><path class="e" d="M140.28,183.47c.25,0,.53,.01,.71,.19l.14,.26c.54,.73,1.01,1.51,1.42,2.32-1.17-.31-2.33-.87-3.54-1.05-.25-.04-.53-.04-.69,.15-.1,.12-.12,.28-.13,.43-.26,2.54,.27,5.08,.71,7.59,1.59,9.07,2.03,18.41,.46,27.48-.1,.55-.22,1.09-.41,1.6-.2,.54-.5,1.04-.89,1.46,.06-11.34,.02-22.69-1.96-33.82-.36-2.03-.85-4.16-2.29-5.61,.7-.92,1.97-.97,3.12-.98,1.12-.01,2.23-.02,3.35-.02Z"/></g><path class="d" d="M139.36,253.97c.18-2.93-.38-5.79-.88-8.67-.54-2.88-.82-5.85-.83-8.79,0-1.47,.04-2.94,.09-4.4,.06-1.46,.11-2.93,.13-4.39,.05-2.93,0-5.86-.08-8.78l-.31-8.77c-.12-2.92-.3-5.83-.51-8.74-.2-2.91-.49-5.81-.84-8.71-.2-1.44-.34-2.91-.63-4.32-.29-1.4-.75-2.8-1.72-3.89l.07-.07c1.11,.99,1.74,2.42,2.14,3.84,.2,.71,.36,1.44,.51,2.16,.14,.72,.3,1.44,.42,2.16,.52,2.89,.87,5.82,1.13,8.74,.24,2.93,.34,5.87,.39,8.8,.05,2.93,.01,5.87-.08,8.8-.09,2.93-.17,5.86-.14,8.79,.03,2.93,.14,5.86,.29,8.77,.07,1.46,.15,2.91,.26,4.36,.11,1.45,.3,2.88,.5,4.33,.19,1.45,.39,2.91,.46,4.39,.07,1.48,.02,2.97-.25,4.41h-.1Z"/></g><g><g><path class="i" d="M36.98,252.41c-1.01,1.37-.82,3.29-.27,4.9,.55,1.61,1.42,3.14,1.64,4.82,.32,2.46-.91,5.05-3.02,6.35,2.33-.9,3.69-3.43,3.96-5.91,.06-.56,.07-1.13-.05-1.68-.14-.6-.44-1.16-.69-1.72-.95-2.13-1.21-4.57-.72-6.86l-.85,.1Z"/><g><g><g><path class="f" d="M38.4,259.53c0,.85-.24,1.7-.54,2.5-1.02,2.72-2.82,5.19-5.21,6.8-.58,.4-1.2,.74-1.85,1.02-1.34,.59-2.81,.91-4.28,.94-.69,.01-1.4-.04-2.06-.22-.31-.09-.6-.2-.88-.35-1.22-.65-2.02-1.86-2.76-3.03-1.21-1.9-2.42-3.8-3.63-5.7-.17-.26-.34-.53-.4-.84-.17-.85,.54-1.59,1.17-2.18,.32-.3,.63-.6,.92-.92,.41-.44,.78-.9,1.07-1.42,.29-.51,.46-1.04,.57-1.61,.11-.56,.2-1.14,.62-1.57l.06-.06s.08-.07,.11-.1c.13-.13,.27-.23,.42-.33,.01-.01,.02-.01,.02-.02,.51-.35,1.1-.59,1.68-.79,.39-.13,.78-.24,1.17-.34,.33-.08,.65-.15,.98-.2,.38-.07,.76-.12,1.14-.15,1.76-.15,3.54,.06,5.2,.66,2.72,.99,5.05,3.12,6.06,5.82,.25,.65,.41,1.35,.42,2.04Z"/><path class="i" d="M38.4,259.53c0,.85-.24,1.7-.54,2.5-1.02,2.72-2.82,5.19-5.21,6.8-.58,.4-1.2,.74-1.85,1.02-1.34,.59-2.81,.91-4.28,.94-.69,.01-1.4-.04-2.06-.22,.46-.24,.89-.54,1.28-.89,.15-.14,.3-.3,.32-.5,.02-.23-.15-.43-.21-.65-.14-.49,.23-.99,.68-1.21,.45-.23,.96-.27,1.46-.39,.49-.12,1-.37,1.19-.84,.25-.6-.18-1.33-.78-1.59-.6-.26-1.3-.16-1.92,.06-.62,.22-1.2,.53-1.84,.7-.56,.15-1.15,.18-1.72,.1,.05-.72,.93-1.01,1.63-1.21,1.92-.54,3.6-1.75,4.86-3.3,.48-.58,.89-1.21,1.23-1.88,.3-.57,.54-1.17,.67-1.8,.38-1.86-.42-3.88-1.91-5.05-.77-.61-1.72-.98-2.69-1.11,1.76-.15,3.54,.06,5.2,.66,2.72,.99,5.05,3.12,6.06,5.82,.25,.65,.41,1.35,.42,2.04Z"/><path class="o" d="M27.46,257.28c-.18,.55-.53,1.05-.92,1.48-.08,.09-.17,.18-.26,.26-1.04,.99-2.38,1.63-3.68,2.25-.48,.23-1.03,.46-1.53,.29,1.2-.64,2.33-1.43,3.23-2.44,.14-.15,.27-.31,.39-.47,.95-1.23,1.52-2.8,1.37-4.35-.06-.55-.21-1.09-.44-1.59-.22-.45-.5-.86-.84-1.22-.05-.05-.11-.1-.17-.15,.33-.08,.65-.15,.98-.2,.27,.21,.51,.45,.72,.71,.84,1.04,1.23,2.38,1.32,3.71,.03,.58,.01,1.16-.17,1.71Z"/></g><path class="h" d="M38.4,259.53c0,.85-.24,1.7-.54,2.5-1.02,2.72-2.82,5.19-5.21,6.8-.03-.98,.06-1.97,.26-2.94,.25-1.18,.67-2.37,.55-3.58-.06-.59-.29-1.22-.82-1.5-.38-.19-.82-.17-1.24-.13-.66,.05-1.32,.1-1.98,.15-.11,.01-.22,.02-.33,.02-.18,.02-.39,0-.47-.15-.08-.16,.06-.34,.12-.5,.17-.41-.09-.91-.48-1.12-.39-.22-.86-.22-1.3-.17-.22,.03-.45,.06-.68,.1-.68,.11-1.37,.23-1.99,.1-.26-.06-.51-.15-.74-.3-.23-.15-.42-.36-.66-.49-.47-.28-1.05-.27-1.6-.3-.12,0-.23-.02-.35-.02-.49-.05-.98-.13-1.46-.25-.21-.05-.42-.11-.62-.19,.41-.44,.78-.9,1.07-1.42,.29-.51,.46-1.04,.57-1.61,.11-.56,.2-1.14,.62-1.57l.06-.06s.08-.07,.11-.1c.14-.12,.28-.23,.42-.33,.01-.01,.02-.01,.02-.02,.51-.35,1.1-.59,1.68-.79,.39-.13,.78-.24,1.17-.34,.33-.08,.65-.15,.98-.2,.38-.07,.76-.12,1.14-.15,1.76-.15,3.54,.06,5.2,.66,2.72,.99,5.05,3.12,6.06,5.82,.25,.65,.41,1.35,.42,2.04Z"/></g><g><g><g><path class="l" d="M35.94,201.21c-1.38,.44-2.7,1.22-4.15,1.18-1.26-.04-2.42-.7-3.66-.97-.38-.08-.76-.13-1.14-.14-.03,.63,.17,1.27,.49,1.82,.17,.29,.39,.56,.54,.86,.16,.31,.24,.67,.12,.98-.05,.13-.13,.25-.25,.3-.23,.1-.48-.06-.67-.21-.75-.63-1.37-1.44-1.77-2.33-.15-.33-.34-.71-.18-1.03,.05-.1,.11-.19,.19-.27-1.6,.29-3.16,1.03-4.61,1.83-.13,.07-.26,.14-.39,.22-2.12,1.17-4.3,2.43-6.7,2.52-.07,1.02-.28,2.04-.59,3.05-.42,1.38-1.02,2.72-1.64,3.99-.05,.09-.09,.18-.13,.26,0,.02-.02,.04-.03,.06-.29,.58-.58,1.16-.73,1.78-.14,.59-.13,1.24,.12,1.78h0c.06,.15,.14,.28,.24,.4,.03,.04,.07,.08,.1,.12,.38,.41,.91,.65,1.34,1,1.47,1.2,1.53,3.37,1.95,5.22,.56,2.46,1.99,4.71,3.97,6.27,.15,.12,.3,.24,.46,.35,1.14,.81,2.42,1.39,3.62,2.1,.39,.23,.76,.47,1.13,.72,.49,.34,.97,.69,1.44,1.07,.89,.72,1.72,1.52,2.47,2.38,.91,1.05,1.73,2.2,2.83,3.05,.37,.29,.77,.53,1.19,.74,.14,.07,.29,.14,.43,.2,.13,.06,.26,.11,.39,.16,.57,.21,1.15,.37,1.75,.47,.13,.02,.26,.05,.39,.06,.03,0,.07,.01,.1,.02,.66,.09,1.32,.14,1.99,.14,.11,0,.22,0,.32,0,.35,0,.64-.04,.97,.08,.68,.23,1.46,.16,2.16,.1h.04c.36,0,3.28-.04,6.3-1.22,1.09-.42,2.2-1,3.2-1.77,.94-.63,1.83-1.33,2.71-2.04,3.93-3.17,7.84-6.51,10.6-10.78,2.77-4.26,4.29-9.62,3.01-14.56-.42-1.63-1.18-3.24-2.47-4.29-1.55-1.26-3.53-1.53-5.56-1.69-1.05-.08-2.11-.13-3.13-.27-3.21-.44-6.19-1.85-9.25-2.92-3.06-1.07-6.42-1.79-9.51-.79Zm-1.65,3.76c.29-.1,.57-.21,.9-.3l.02,.03c-.2,.27-.47,.47-.76,.63-.29,.16-.62,.23-.94,.29-.64,.13-1.3,.13-1.93,0v-.04c.64,.01,1.26-.09,1.85-.28,.3-.1,.57-.24,.86-.34Zm-5.76,8.85c-.45,1.9-.43,3.9,.05,5.79,.14,.55,.31,1.08,.48,1.61,.34,1.05,.69,2.11,1.03,3.16-.42-.5-.68-1-1.06-1.53-.96-1.32-1.94-2.68-2.32-4.26-.3-1.21-.22-2.48-.09-3.72,.14-1.25,.33-2.5,.53-3.75,.06-.38,.15-.8,.49-.98,.4-.22,.88,.04,1.25,.3,.45,1.07-.1,2.25-.36,3.39Zm16.57-7.9c-.06,.59,.1,1.15,.27,1.72,.17,.55,.38,1.17,.23,1.8-.15,.61-.51,1.12-.94,1.53l-.02-.02c.31-.5,.62-1.01,.71-1.57,.11-.55-.03-1.12-.18-1.69-.15-.57-.28-1.18-.2-1.78,.09-.59,.02-1.18-.27-1.7l.03-.02c.32,.5,.43,1.13,.37,1.72Zm-2.6-3.82c.27,.02,.54,.05,.79,.19,.24,.14,.45,.36,.5,.64h-.03c-.17-.19-.37-.33-.59-.41-.22-.09-.45-.17-.7-.21-.5-.09-1.02-.08-1.51,.1v-.03c.45-.25,1-.32,1.53-.28Z"/><path class="l" d="M25.46,202.7c-.15-.33-.34-.71-.18-1.03,.05-.1,.11-.19,.19-.27,.51-.09,1.02-.14,1.53-.12-.03,.63,.17,1.27,.49,1.82,.17,.29,.39,.56,.54,.86,.16,.31,.24,.67,.12,.98-.05,.13-.13,.25-.25,.3-.23,.1-.48-.06-.67-.21-.75-.63-1.37-1.44-1.77-2.33Z"/><path class="l" d="M29.06,221.23c.34,1.05,.69,2.11,1.03,3.16-.42-.5-.68-1-1.06-1.53-.96-1.32-1.94-2.68-2.32-4.26-.3-1.21-.22-2.48-.09-3.72,.14-1.25,.33-2.5,.53-3.75,.06-.38,.15-.8,.49-.98,.4-.22,.88,.04,1.25,.3,.45,1.07-.1,2.25-.36,3.39-.45,1.9-.43,3.9,.05,5.79,.14,.55,.31,1.08,.48,1.61Z"/><path class="l" d="M35.19,204.67l.02,.03c-.2,.27-.47,.47-.76,.63-.29,.16-.62,.23-.94,.29-.64,.13-1.3,.13-1.93,0v-.04c.64,.01,1.26-.09,1.85-.28,.3-.1,.57-.24,.86-.34,.29-.1,.57-.21,.9-.3Z"/><path class="l" d="M43.8,202.92h-.03c-.17-.19-.37-.33-.59-.41-.22-.09-.45-.17-.7-.21-.5-.09-1.02-.08-1.51,.1v-.03c.45-.25,1-.32,1.53-.28,.27,.02,.54,.05,.79,.19,.24,.14,.45,.36,.5,.64Z"/><path class="l" d="M45.6,209.43c-.15,.61-.51,1.12-.94,1.53h-.01c.31-.51,.62-1.02,.71-1.58,.11-.55-.03-1.12-.18-1.69-.15-.57-.28-1.18-.2-1.78,.09-.59,.02-1.18-.27-1.7l.02-.02c.32,.5,.43,1.13,.37,1.72-.06,.59,.1,1.15,.27,1.72,.17,.55,.38,1.17,.23,1.8Z"/><path class="k" d="M30.09,224.39c-.42-.5-.68-1-1.06-1.53-.96-1.32-1.94-2.68-2.32-4.26-.3-1.21-.22-2.48-.09-3.72,.14-1.25,.33-2.5,.53-3.75,.06-.38,.15-.8,.49-.98,.4-.22,.88,.04,1.25,.3,.45,1.07-.1,2.25-.36,3.39-.45,1.9-.43,3.9,.05,5.79,.14,.55,.31,1.08,.48,1.61,.34,1.05,.69,2.11,1.03,3.16Z"/><path class="k" d="M28.14,204.95c-.05,.13-.13,.25-.25,.3-.23,.1-.48-.06-.67-.21-.75-.63-1.37-1.44-1.77-2.33-.15-.33-.34-.71-.18-1.03,.05-.1,.11-.19,.19-.27,.15-.17,.34-.31,.56-.38,.32-.11,.68-.1,.98,.05,0,.07-.01,.14-.01,.21-.03,.63,.17,1.27,.49,1.82,.17,.29,.39,.56,.54,.86,.16,.31,.24,.67,.12,.98Z"/><g><path class="m" d="M35.21,204.7c-.2,.27-.47,.47-.76,.63-.29,.16-.62,.23-.94,.29-.64,.13-1.3,.13-1.93,0v-.04c.64,.01,1.26-.09,1.85-.28,.3-.1,.57-.24,.86-.34,.29-.1,.57-.21,.9-.3l.02,.03Z"/><path class="m" d="M45.6,209.43c-.15,.61-.51,1.12-.94,1.53h-.01c.31-.51,.62-1.02,.71-1.58,.11-.55-.03-1.12-.18-1.69-.15-.57-.28-1.18-.2-1.78,.09-.59,.02-1.18-.27-1.7l.02-.02c.32,.5,.43,1.13,.37,1.72-.06,.59,.1,1.15,.27,1.72,.17,.55,.38,1.17,.23,1.8Z"/><path class="m" d="M43.8,202.92h-.03c-.17-.19-.37-.33-.59-.41-.22-.09-.45-.17-.7-.21-.5-.09-1.02-.08-1.51,.1v-.03c.45-.25,1-.32,1.53-.28,.27,.02,.54,.05,.79,.19,.24,.14,.45,.36,.5,.64Z"/></g></g><g><g><path class="f" d="M12.29,213.69c.22,.41,0,.94,0,1.38,0,.17,0,.33,.03,.49,.04,.38,.13,.76,.25,1.11,.04,.13,.1,.25,.15,.37,.62,1.38,1.73,2.45,2.81,3.49,0,.01,.03,.02,.04,.03,.68,.66,1.36,1.34,1.91,2.12,.31,.44,.58,.9,.78,1.41,.35,.89,.54,1.96,1.29,2.52,.03,.02,.05,.04,.08,.06,.99,.67,2.31,.11,3.5,.19,.02,0,.05,0,.07,0h0c.06,0,.12,0,.18,.02,.09,.01,.17,.03,.25,.05,.27,.06,.52,.15,.76,.26,.14,.07,.27,.14,.4,.22,.07,.04,.14,.09,.21,.14,.07,.05,.14,.1,.21,.15,.28,.21,.54,.44,.79,.69,.07,.07,.13,.13,.19,.2,.29,.3,.57,.62,.85,.93,.13,.14,.25,.29,.38,.44,.21,.24,.42,.47,.63,.7l.2,.2c.12,.12,.24,.24,.36,.35,.07,.06,.14,.12,.21,.19,.07,.06,.15,.12,.22,.18,.29,.24,.6,.44,.92,.61,1.42,.73,3.25,.78,4.49,1.66,.29,.21,.54,.45,.74,.76,.61,.92,.58,2.05,.55,3.19-.02,.79-.04,1.59,.15,2.32,.05,.21,.12,.42,.22,.61,.12,.25,.26,.47,.43,.67,.86,1.05,2.35,1.52,3.72,1.77,.62,.12,1.25,.2,1.86,.07,.77-.17,1.43-.67,2.06-1.15,.68-.52,1.4-1.04,2.14-1.49,1.27-.76,2.63-1.29,4.08-1.21,.41,.03,.83,.11,1.13,.39,.47,.42,.51,1.13,.52,1.76,.04,1.85,.05,3.76-.26,5.58-.03,.13-.05,.26-.07,.39-.18,.95-.46,1.87-.87,2.74-.14,.3-.3,.6-.48,.88-.59,.95-1.35,1.76-2.21,2.46-.8,.66-1.68,1.23-2.58,1.74-2.32,1.29-4.83,2.23-7.42,2.78-.02,0-.04,0-.05,.01-.35,.07-.7,.14-1.05,.19-.53,.09-1.06,.16-1.59,.21-1.52,.16-3.04,.17-4.56,.1-.02,0-.04,0-.07,0-1-.05-1.99-.15-3-.26-.17-.03-.35-.05-.52-.07-.11-.02-.23-.03-.34-.05-.07,0-.13-.01-.2-.02-.54-.08-1.08-.16-1.63-.25-.56-.09-1.12-.19-1.68-.29-.29-.05-.58-.11-.87-.16-.34-.07-.67-.13-1-.19-.28-.05-.56-.1-.83-.15-.44-.09-.88-.17-1.31-.27-.36-.08-.72-.16-1.07-.26-.28-.08-.55-.16-.83-.25-.27-.09-.54-.2-.81-.31-.19-.09-.38-.18-.57-.27-1.23-.62-2.33-1.49-3.37-2.41-1.65-1.48-3.14-3.14-4.44-4.94-1.33-1.84-2.45-3.84-3.32-5.96-.69-1.67-1.21-3.4-1.55-5.16-.35-1.8-.49-3.62-.41-5.46,0-.07,0-.15,0-.22,0-.23,.02-.46,.04-.69,.16-1.96,.58-3.89,1.15-5.77,.37-1.21,.8-2.4,1.26-3.58,.37-.93,.77-1.85,1.22-2.74,.05-.09,.09-.18,.14-.27,.41-.8,.88-1.58,1.4-2.31,.57-.8,1.21-1.54,1.95-2.19,.27-.23,.6-.56,.94-.72,.05-.03,.1-.05,.14-.06,.02,0,.03,0,.04-.02,0,0,.02,0,.02,0,.35-.08,.71,.09,.88,.41Z"/><path class="i" d="M15.56,220.55c.68,.66,1.36,1.34,1.91,2.12,.31,.44,.58,.9,.78,1.41,.35,.89,.54,1.96,1.29,2.52,.03,.02,.05,.04,.08,.06,.99,.67,2.31,.11,3.5,.19,.02,0,.05,0,.07,0h0c.06,0,.12,0,.18,.02,.09,.01,.17,.03,.25,.05,.27,.06,.52,.15,.76,.26,.14,.07,.27,.14,.4,.22,.07,.04,.14,.09,.21,.14,.07,.05,.14,.1,.21,.15,.28,.21,.54,.44,.79,.69,.07,.07,.13,.13,.19,.2,.29,.3,.57,.62,.85,.93,.13,.14,.25,.29,.38,.44,.21,.24,.42,.47,.63,.7l.2,.2c.12,.12,.24,.24,.36,.35,.07,.06,.14,.12,.21,.19,.07,.06,.15,.12,.22,.18,.29,.24,.6,.44,.92,.61,1.42,.73,3.25,.78,4.49,1.66,.29,.21,.54,.45,.74,.76,.61,.92,.58,2.05,.55,3.19-.02,.79-.04,1.59,.15,2.32,.05,.21,.12,.42,.22,.61,.12,.25,.26,.47,.43,.67,.86,1.05,2.35,1.52,3.72,1.77,.62,.12,1.25,.2,1.86,.07,.77-.17,1.43-.67,2.06-1.15,.68-.52,1.4-1.04,2.14-1.49,1.27-.76,2.63-1.29,4.08-1.21,.41,.03,.83,.11,1.13,.39,.47,.42,.51,1.13,.52,1.76,.04,1.85,.05,3.76-.26,5.58-.03,.13-.05,.26-.07,.39-.18,.95-.46,1.87-.87,2.74-.14,.3-.3,.6-.48,.88-.59,.95-1.35,1.76-2.21,2.46-.8,.66-1.68,1.23-2.58,1.74-2.32,1.29-4.83,2.23-7.42,2.78-.02,0-.04,0-.05,.01-.35,.07-.7,.14-1.05,.19-.53,.09-1.06,.16-1.59,.21-1.52,.16-3.04,.17-4.56,.1-.01-.02-.03-.04-.04-.06-1.28-1.76-1.93-4-2.18-6.21-.03-.23-.05-.46-.07-.69-.02-.21-.04-.41-.05-.62-.04-.65-.07-1.31-.08-1.96-.04-1.81-.02-3.62-.19-5.42-.02-.18-.04-.36-.06-.54,0,0,0,0,0,0-.33-2.71-1.22-5.45-3.19-7.28-1.34-1.25-3.07-1.98-4.45-3.18-.89-.77-1.61-1.71-2.25-2.69-.13-.19-.26-.39-.38-.58-1.02-1.62-1.95-3.34-2.36-5.22-.25-1.12-.33-2.4-.07-3.56Z"/><path class="i" d="M27.86,258.29c-.17-.02-.35-.04-.52-.07-.18-.03-.36-.05-.53-.07-.97-.89-1.82-1.9-2.6-2.94-.33-.44-.63-.9-.9-1.39-.26-.5-.47-1.02-.63-1.55-.32-1.07-.48-2.17-.57-3.25-.1-1.08-.13-2.15-.22-3.2-.1-1.05-.24-2.09-.47-3.1-.45-2.03-1.21-3.99-2.43-5.63-1.19-1.66-2.89-2.93-4.44-4.39-.78-.73-1.55-1.51-2.18-2.41-.63-.89-1.12-1.89-1.46-2.93-.64-2.08-.69-4.35-.05-6.4-.42,2.1-.26,4.28,.51,6.23,.37,.97,.88,1.89,1.52,2.69,.64,.81,1.38,1.53,2.17,2.21,1.57,1.36,3.33,2.63,4.68,4.4,1.35,1.76,2.17,3.86,2.66,6,.24,1.07,.38,2.15,.47,3.24,.08,1.09,.12,2.16,.19,3.21,.07,1.05,.2,2.08,.47,3.06,.28,.98,.72,1.88,1.32,2.74,.89,1.28,1.87,2.52,3.02,3.55Z"/><path class="i" d="M23.5,257.62c-.29-.05-.58-.1-.87-.16-.34-.06-.67-.12-1-.19-.63-.47-1.22-1.01-1.74-1.61-.84-.94-1.5-2.03-2.05-3.15-.54-1.13-.96-2.31-1.32-3.48-.33-1.19-.62-2.38-.87-3.56-.24-1.19-.49-2.34-.81-3.46-.35-1.11-.78-2.18-1.46-3.11-.65-.94-1.54-1.74-2.64-2.22,1.2,.15,2.32,.84,3.2,1.73,.88,.9,1.54,2.03,2,3.19,.93,2.35,1.32,4.73,2.03,6.99,.32,1.14,.7,2.24,1.16,3.31,.23,.53,.48,1.06,.76,1.56,.28,.5,.59,.98,.92,1.45,.75,1.03,1.65,1.97,2.71,2.72Z"/><path class="o" d="M11.53,213.53c.23,.38,.31,.88,.28,1.33-.05,.7-.27,1.37-.51,2.02-.43,1.21-.89,2.41-1.37,3.59-.1,.24-.23,.51-.48,.57-.14,.04-.28,0-.43,0-.35,0-.66,.22-.82,.51-.08,.15-.12,.32-.11,.49,.03,.32,.1,.65,.14,.97,.08,.6,.12,1.21,.03,1.82-.05,.33-.17,.69-.47,.83-.35,.16-.74-.08-1.06-.28-.29-.18-.89-.45-1.12-.03-.64,1.18-1.1,2.45-1.52,3.74-.19,.58-.37,1.16-.55,1.74-.1,.3-.14,.82-.44,1-.32,.2-.47-.28-.57-.5-.49-1.13-.46-2.41-.35-3.6,.42-4.29,1.95-8.46,4.38-12.01,.73-1.06,1.58-2.1,2.76-2.61,.59-.25,1.31-.34,1.83,.02,.15,.11,.27,.24,.37,.4Z"/><path class="o" d="M32.08,243.64c-.06,1.05-.19,2.08-.37,3.1,.07-1.04,.14-2.07,.12-3.11,0-1.03-.08-2.06-.27-3.06-.39-1.99-1.24-3.95-2.73-5.28-.73-.68-1.61-1.2-2.41-1.88-.81-.68-1.49-1.52-1.97-2.46-.67-1.29-1.05-2.69-1.25-4.1,.06,0,.12,.01,.18,.02,.08,.36,.16,.71,.26,1.06,.27,.99,.64,1.96,1.15,2.83,.25,.44,.55,.85,.85,1.24,.33,.38,.68,.73,1.06,1.05,.78,.63,1.67,1.15,2.46,1.86,1.57,1.46,2.45,3.52,2.77,5.59,.16,1.04,.19,2.1,.14,3.14Z"/><path class="o" d="M18.4,256.59c-.56-.14-1.1-.32-1.64-.55-.19-.08-.38-.17-.57-.27-.42-.48-.8-1-1.15-1.53-1.53-2.34-2.44-5.04-3.32-7.71-.89-2.67-1.79-5.37-3.31-7.72,2.17,1.84,3.55,4.47,4.65,7.12,1.1,2.65,1.99,5.42,3.42,7.9,.52,.92,1.12,1.79,1.78,2.6,.04,.05,.09,.1,.13,.15Z"/></g><g><path class="f" d="M15.56,206.96s.07-.05,.1-.08c.23-.22,.52-.4,.8-.57l.03-.02,.08-.05c.55-.32,1.1-.63,1.65-.95,.29-.17,.58-.35,.87-.53,.13-.08,.25-.17,.37-.26l.04-.03,.03-.02c.06-.05,.12-.1,.17-.14,.13-.11,.25-.22,.37-.34,.05-.05,.11-.11,.16-.16,.02-.03,.04-.05,.06-.06,.07-.11,.14-.21,.2-.33,.01-.03,.02-.04,.03-.05-.56,0-1.12,.05-1.68,.11-.22,.02-.44,.05-.66,.07-.27,.03-.55,.07-.82,.11-.25,.04-.51,.09-.76,.14-.2,.04-.41,.09-.61,.15-.19,.05-.39,.14-.59,.16-.07,0-.12,0-.19,.03-.09,.03-.18,.07-.27,.11-.18,.07-.36,.15-.54,.23-.8,.37-1.58,.81-2.31,1.31-.13,.09-.26,.18-.41,.24-.05,.02-.11,.03-.16,.05-.08,.04-.16,.12-.24,.17-.07,.06-.15,.11-.22,.17-.15,.11-.29,.23-.43,.34-.26,.21-.52,.43-.77,.64C4.62,211.97,.29,217.9,.04,224.3c-.08,2.16-.03,4.29,.23,6.34,.53,4.33,1.95,8.37,4.87,11.91-.62-1.4-.96-2.75-1.1-4.12-.19-1.78-.04-3.57,.24-5.49,.51-3.41,1.66-6.72,2.81-10,.51-1.46,1.03-2.94,1.98-4.21,1.35-1.83,3.47-3.11,4.96-4.86,.41-.48,.77-1,.92-1.59,.18-.66,.06-1.35,0-2.04-.04-.37-.06-.74-.05-1.11,0-.21,.02-.42,.04-.62,.02-.18,.07-.37,.09-.55,0-.05-.01-.1,0-.16,0-.07,.02-.14,.05-.2,.1-.26,.31-.47,.52-.65Z"/><path class="i" d="M14.94,210.25c.07,.68,.18,1.38,0,2.04-.15,.59-.52,1.11-.92,1.59-1.49,1.75-3.61,3.03-4.96,4.86-.95,1.27-1.47,2.76-1.98,4.21-1.15,3.29-2.3,6.59-2.81,10-.28,1.92-.43,3.71-.24,5.49-.06-.12-.11-.24-.16-.35-.31-.63-.59-1.28-.81-1.95-1.23-3.65-.75-7.72,1.3-11.07,.97-1.58,2.3-3.07,2.51-4.85,.11-.86-.06-1.75,.18-2.58,.45-1.59,2.18-2.6,3.13-4.01,.47-.71,.74-1.51,1.13-2.26,.66-1.24,1.67-2.33,2.92-3.13,.25-.17,.53-.32,.83-.45-.2,.8-.2,1.66-.11,2.47Z"/><path class="o" d="M11.24,207.64c-.02,.38-.32,.7-.62,.98-.57,.56-1.14,1.11-1.72,1.67-.59,.57-1.18,1.16-1.55,1.86-.28,.54-.41,1.13-.63,1.7-.53,1.37-1.56,2.53-2.64,3.61-.28,.29-.58,.7-.32,1,.07,.09,.18,.14,.27,.21,.61,.48,.26,1.4-.28,1.94-.54,.55-1.27,1.04-1.37,1.76,.38,.28,1.13,.17,1.25,.59,.03,.14-.02,.29-.08,.42-.55,1.17-1.36,2.23-1.98,3.37-.06,.12-.12,.24-.18,.35-.48,.96-.82,1.96-1.02,2.99-.03,.18-.07,.36-.09,.55-.25-2.06-.31-4.18-.23-6.34,.25-6.4,4.58-12.34,9.82-16.9,.25-.22,.51-.43,.77-.64,.36,.19,.62,.52,.61,.88Z"/></g><path class="o" d="M25.39,235.08c-.66-.97-1.5-1.83-2.45-2.51-.68-.48-1.42-.88-2.03-1.45-.61-.57-1.07-1.29-1.52-2-.67-1.06-1.36-2.14-1.76-3.33-.22-.64-.34-1.32-.34-2,0-.3-.03-.84,.19-1.11,.31,.44,.58,.9,.78,1.41,.35,.89,.54,1.96,1.29,2.52,.02,.07,.03,.15,.04,.22,.16,.8,.45,1.58,.89,2.27,.27,.42,.59,.78,.95,1.13,.06,.06,.11,.13,.16,.2,.11,.16,.24,.26,.39,.37,.42,.3,.82,.62,1.21,.95,.03,.02,.05,.04,.08,.06,.34,.3,.68,.6,.96,.96,.28,.35,.49,.74,.67,1.14,.09,.2,.17,.4,.25,.61,.08,.19,.12,.43,.24,.59Z"/><path class="f" d="M34.45,233.8c.29,.21,.54,.45,.74,.76,.61,.92,.58,2.05,.55,3.19-.02,.79-.04,1.59,.15,2.32,.05,.21,.12,.42,.22,.61,.12,.25,.26,.47,.43,.67,.86,1.05,2.35,1.52,3.72,1.77,.62,.12,1.25,.2,1.86,.07,.77-.17,1.43-.67,2.06-1.15,.68-.52,1.4-1.04,2.14-1.49,1.27-.76,2.63-1.29,4.08-1.21,.41,.03,.83,.11,1.13,.39,.47,.42,.51,1.13,.52,1.76,.04,1.85,.05,3.76-.26,5.58-.03,.13-.05,.26-.07,.39-.18,.95-.46,1.87-.87,2.74-.14,.3-.3,.6-.48,.88-.59,.95-1.35,1.76-2.21,2.46-.03-.14-.09-.27-.16-.39-.44-.76-1.44-.91-2.3-1.05-.96-.16-1.91-.39-2.83-.71-.59-.21-1.17-.46-1.73-.74-.82-.42-1.59-.92-2.29-1.5-1.57-1.29-2.85-2.94-3.68-4.79-.3-.67-.54-1.37-.65-2.09-.06-.35-.08-.7-.08-1.05,0-.11,0-.22,0-.33,.03-.85,.17-1.7,.29-2.54,.07-.5,.14-1,.17-1.51,.07-1.01-.07-2.1-.48-3.02Z"/><path class="i" d="M51.74,247.45c-.18,.95-.46,1.87-.87,2.74-.05-.04-.1-.08-.15-.11-1-.65-2.1-1.15-3.24-1.49-1.39-.41-2.85-.55-4.24-.97-1.39-.43-2.76-1.19-3.46-2.46,1.05,.89,2.37,1.48,3.74,1.66,1.75,.23,3.51-.18,5.27-.13,.97,.03,2.06,.25,2.94,.76Z"/></g></g><path class="l" d="M45.63,237.47c.71,.81,.74,1.83,.71,2.84,0,.08,0,.16,0,.24,0,.14,0,.28,0,.42-.03,1.14-.03,2.32-.51,3.38-.48,1.06-1.37,1.83-2.36,2.45-.31,.2-.62,.38-.93,.55-.26,.14-.51,.28-.77,.41-.94,.49-1.9,.97-2.88,1.38-.66,.27-1.34,.5-2.03,.66-1.18,.28-2.46,.35-3.6-.09-1.13-.44-2.09-1.47-2.19-2.68-.03-.43,.04-.86,.11-1.29,.07-.43,.15-.86,.28-1.28,.1-.33,.24-.64,.4-.93,.08-.15,.17-.3,.26-.44,.51-.76,1.21-1.42,1.98-1.96,.13-.1,.26-.19,.4-.27,.32-.21,.65-.4,.98-.57,.15-.08,.3-.16,.45-.22,1.63-.81,3.36-1.42,4.89-2.4,.25-.16,.49-.33,.74-.48,.17-.11,.37-.27,.57-.31,.12-.03,.24-.05,.35-.09,.28-.09,.55-.18,.84-.22,.86-.13,1.76,.24,2.33,.89Z"/><path class="q" d="M45.97,237.32c-.08-.15-.18-.29-.29-.43-.05-.06-.1-.12-.16-.17,.05,.06,.11,.11,.15,.17,.12,.14,.21,.28,.3,.43Z"/></g></g></g><path class="n" d="M58.44,207.73c.5,1.01,1.22,1.9,1.78,2.89,1.76,3.1,1.74,6.98,.65,10.37-.09,.29-.19,.57-.3,.85-.16,.43-.4,.85-.53,1.28-.1,.33-.16,.59-.35,.89-.39,.61-.9,1.12-1.46,1.57-1.16,.91-2.54,1.51-3.89,2.07-.9,.38-1.94,.75-2.83,.34-.33-.16-.6-.4-.91-.57-1.4-.75-3.13,.21-4.19,1.39-1.06,1.18-1.89,2.66-3.3,3.39-1.54,.79-3.37,.49-5.09,.65-1.2,.12-2.37,.48-3.44,1.04,.24,.19,.44,.4,.62,.67,.61,.92,.58,2.05,.55,3.19-.02,.79-.04,1.59,.15,2.32,1.63-.81,3.36-1.42,4.89-2.4,.25-.16,.49-.33,.74-.48,.17-.11,.37-.27,.57-.31,.12-.03,.24-.05,.35-.09,.28-.09,.55-.18,.84-.22,.86-.13,1.76,.24,2.33,.89,.71,.81,.74,1.83,.71,2.84,.01,0,.03-.02,.05-.02,.14-.05,.27-.11,.41-.17,.13-.06,.27-.12,.4-.18,.81-.37,1.6-.83,2.34-1.41,.94-.63,1.83-1.33,2.71-2.04,3.93-3.17,7.84-6.51,10.6-10.78,2.77-4.26,4.29-9.62,3.01-14.56-.42-1.63-1.18-3.24-2.47-4.29-1.55-1.26-3.53-1.53-5.56-1.69,.03,.88,.22,1.76,.61,2.54Zm-12.76,29.16c.12,.14,.21,.28,.29,.43-.09-.15-.18-.29-.3-.43-.05-.06-.1-.12-.15-.17,.06,.05,.11,.11,.16,.17Z"/><path class="n" d="M45.63,237.47c.71,.81,.74,1.83,.71,2.84,0,.08,0,.16,0,.24,0,.14,0,.28,0,.42-.03,1.14-.03,2.32-.51,3.38-.48,1.06-1.37,1.83-2.36,2.45-.31,.2-.62,.38-.93,.55-.26,.14-.51,.28-.77,.41-.94,.49-1.9,.97-2.88,1.38-.66,.27-1.34,.5-2.03,.66-1.18,.28-2.46,.35-3.6-.09-1.13-.44-2.09-1.47-2.19-2.68-.03-.43,.04-.86,.11-1.29,.07-.43,.15-.86,.28-1.28,.1-.33,.24-.64,.4-.93,.08-.15,.17-.3,.26-.44,.51-.76,1.21-1.42,1.98-1.96,.13-.1,.26-.19,.4-.27,.32-.21,.65-.4,.98-.57,.15-.08,.3-.16,.45-.22,1.63-.81,3.36-1.42,4.89-2.4,.25-.16,.49-.33,.74-.48,.17-.11,.37-.27,.57-.31,.12-.03,.24-.05,.35-.09,.28-.09,.55-.18,.84-.22,.86-.13,1.76,.24,2.33,.89Z"/></g></g><g><path class="s" d="M275.24,327.12c-.12-.5-.26-.99-.41-1.48,.08,.29,.22,.79,.41,1.48Z"/><path class="s" d="M281.85,383.99c-.01,.07-.01,.14-.01,.21-.02,.31-.04,.62-.06,.93-.03,.51-.06,1.02-.09,1.54-.04,.67-.08,1.34-.12,2.01-.05,.78,.17,3.59,.12,4.38-.05,.84-.1,1.69-.15,2.52-.05,.86-.1,1.72-.15,2.57-.05,.83-.1,1.65-.15,2.48-.05,.75-.09,1.5-.14,2.24-.04,.62-.07,1.24-.11,1.86-.01,.25-.03,.5-.04,.75,0,.11,0,.18,.04,.28,.05,.15,.05,.32,.06,.47,.03,.36,.05,.72,.06,1.08,0,.2,0,.4-.09,.57-.12,.22-.38,.4-.63,.42-.09,.01-.18,0-.27,0-.36,.03-.72,.18-1.06,.26-2.05,.5-4.11,.72-6.18,.67-1.62-.03-3.25-.23-4.88-.58-.4-.09-.68-.44-.72-.85-.06-.73-.15-1.45-.27-2.17-.65-3.92-2.18-7.71-3.53-11.49-3.69-10.33-6.38-23.15-7.48-34.06-.29-2.85-.49-5.73-1.23-8.49-.75-2.81-2.05-5.44-3.21-8.11-.7-1.63-1.36-3.29-1.98-4.95-.98-2.65-1.87-5.33-2.74-8.01-.22-.66-.49-1.33-.65-2.01-.34-1.45-1.2-2.72-1.9-4.04-3.11-5.97-6.04-12.12-7.7-18.67-.49-1.92-.87-3.86-1.44-5.76-.75-2.48-1.84-4.84-2.92-7.2-2.25-4.91-4.51-9.82-7-14.62-2.83-5.46-5.96-10.78-8.82-16.22-2.19-4.17-4.21-8.4-5.81-12.83-1.65-4.53-2.83-9.24-4.8-13.63-.21-.49-.44-.97-.68-1.46-2.38-4.79-6.12-9.22-11.2-10.92l4.71-21.78,1.85-8.55c6.54-1.19,13.36-.06,19.56,2.34,6.21,2.39,11.87,6,17.28,9.87,5.41,3.86,10.7,8.1,14.49,13.56,3.62,5.21,5.73,11.32,7.3,17.46,1.08,4.22,1.94,8.5,2.27,12.84,.35,4.56,.12,9.14,.19,13.71,.14,9.42,1.53,18.78,3.48,27.98,.47,2.21,.97,4.42,1.49,6.62,.45,1.91,.82,3.9,1.43,5.77,.18,.54,.47,1.01,.52,1.58,.16,1.61-.01,3.17,.3,4.79,.31,1.61,.81,3.18,1.39,4.71,1.43,3.79,3.35,7.38,4.54,11.26,0,0,.03,.1,.09,.3,.08,.29,.22,.79,.41,1.48,.02,.1,.06,.21,.08,.32,.5,1.86,1.26,4.86,2.1,8.67,2.59,11.74,5.94,31.1,4.44,47.89Z"/><path class="e" d="M277.42,336.1c-3.84-3.27-7.11-7.21-9.61-11.59-4.81-8.45-6.63-18.23-8.39-27.8-3.81-20.86-7.63-41.72-11.44-62.58-.43-2.32-.86-4.66-1.82-6.82-2.1-4.67-6.41-7.88-10.24-11.28-6.53-5.81-13.04-13.19-21.77-13.54-2.98-.12-5.93,.65-8.91,.71-2.31,.05-4.8-.44-6.58-1.81l1.85-8.55c6.54-1.19,13.36-.06,19.56,2.34,6.21,2.39,11.87,6,17.28,9.87,5.41,3.86,10.7,8.1,14.49,13.56,3.62,5.21,5.73,11.32,7.3,17.46,1.08,4.22,1.94,8.5,2.27,12.84,.35,4.56,.12,9.14,.19,13.71,.14,9.42,1.53,18.78,3.48,27.98,.47,2.21,.97,4.42,1.49,6.62,.45,1.91,.82,3.9,1.43,5.77,.18,.54,.47,1.01,.52,1.58,.16,1.61-.01,3.17,.3,4.79,.31,1.61,.81,3.18,1.39,4.71,1.43,3.79,3.35,7.38,4.54,11.26,0,0,.03,.1,.09,.3,.08,.29,.22,.79,.41,1.48,.02,.1,.06,.21,.08,.32,.5,1.86,1.26,4.86,2.1,8.67Z"/><path class="d" d="M274.44,395.16c-.08,4.7-.63,9.44-1.55,14.08-1.62-.03-3.25-.23-4.88-.58-.4-.09-.68-.44-.72-.85-.06-.73-.15-1.45-.27-2.17,.04-2.31,0-4.62-.15-6.92-.58-9.57-3.3-20.95-5.22-30.3-.74-3.61-1.44-7.22-1.99-10.87-.14-.9-.27-1.81-.39-2.73-.11-.77-.11-1.61-.4-2.34-.19-.48-.53-.87-.78-1.32-.58-1.04-1.03-2.17-1.54-3.25-.81-1.74-1.54-3.58-1.51-5.53,.03-1.64,.6-3.26,.41-4.88-.62-5.27-8.67-8.24-7.49-13.42,.25-1.11,.94-2.21,.6-3.3-.54-1.7-3.18-1.96-3.75-3.65-.34-1.01,.23-2.09,.4-3.15,.23-1.46-.32-2.92-.85-4.3-.34-.87-.68-1.74-1.01-2.6-.83-2.13-1.8-4.24-2.47-6.41-.23-.75-.51-1.48-.84-2.19-.66-1.44-1.48-2.79-2.38-4.08-1.81-2.61-3.92-5-5.82-7.55-5.15-6.92-8.54-15-13.22-22.24-.59-.91-1.21-1.72-2-2.46-.23-.22-.35-.41-.37-.72-.03-.41-.09-.75-.29-1.12-.43-.78-1.15-1.37-1.86-1.87-1.05-.75-2.17-1.44-3.07-2.37-.9-.93-1.58-2.16-1.53-3.45,0-.21,.04-.43,.18-.59,.14-.16,.35-.22,.54-.31,1.36-.61,1.98-2.48,1.79-3.87-.07-.52-.33-.98-.41-1.5-.12-.9-.03-1.86,0-2.76,.02-.46,.04-.93,.07-1.39,.06-.94,.23-2.02,1.04-2.51,.82-.51,1.94-.12,2.59,.59,.65,.71,.94,1.66,1.25,2.57,2.83,8.28,8.45,15.25,13.97,22.04,2.45,3.01,4.89,6.02,7.34,9.03,1.22,1.5,2.45,3,3.67,4.51,.85,1.05,1.16,2.38,1.77,3.58,2.66,5.17,4.78,10.69,5.19,16.53,.35,5.01-.35,10.69,3.01,14.43,1.11,1.24,2.57,2.11,3.82,3.22,1.73,1.54,3.02,3.49,4.29,5.42,1.24,1.89,2.19,3.87,3.28,5.83,.24,.44,.34,.77,.41,1.28,.18,1.31,.27,2.64,.3,3.96,.07,2.66-.07,5.32-.06,7.99,.03,13.99,3.94,27.66,8.3,40.95,.83,2.53,1.68,5.08,2.09,7.72,.2,1.25,.52,4.54,.51,5.8Z"/></g><path class="e" d="M214.39,262.69c-1.15,.07-2.32-.03-3.47-.14-3.65-.36-7.28-.85-10.92-1.35-2.24-.3-4.48-.61-6.72-.91-1.66-.23-3.34-.56-5.02-.57-1.34-.02-2.65-.27-3.98-.34,.51-.2,1-.42,1.49-.66,2.85-1.41,5.59-3.31,8.75-3.64,2.1-.22,4.21,.27,6.26,.76,2.43,.58,4.85,1.16,7.28,1.74,1.28,.31,2.6,.63,3.68,1.4,1.25,.9,2.01,2.28,2.64,3.71Z"/><g><path class="p" d="M205.62,198.27c-.02,.78-.06,1.55-.1,2.32-.06,.95-.13,1.9-.22,2.85-.11,1.13-.24,2.27-.38,3.4-.07,.49-.13,.99-.2,1.48-.12,.84-.24,1.68-.37,2.52-.24,1.55-.5,3.09-.78,4.63-.32,1.77-.67,3.53-1.03,5.29,0,.05-.02,.1-.03,.14-4.41,21.2-17.39,26.78-24.05,28.34-6.65,1.56-10.91,.02-10.91,.02,2.11-.42,4.14-1.17,6.06-2.17,2.96-1.54,5.65-3.68,7.94-6.18,3.8-4.12,6.6-9.17,8.79-14.44,.86-2.07,1.64-4.2,2.1-6.42,.45-2.14,.61-4.35,1.13-6.47,.49-1.99,1.3-3.86,1.9-5.82,1.28-4.24,1.51-8.79,.7-13.14-.16-.83-.37-1.65-.58-2.46-.04-.15-.05-.24,.08-.34,.32-.25,.79-.33,1.17-.34,.05,0,.1,0,.15,0,.57,.01,1.11,.17,1.67,.29,.78,.17,1.58,.28,2.38,.31,.73,.03,1.47,.01,2.18,.13,.68,.12,1.47,.4,1.94,.91,.24,.27,.26,.65,.3,.98,.04,.32,.06,.64,.08,.96,.03,.46,.05,.92,.06,1.38,.02,.61,0,1.22,0,1.83Z"/><path class="d" d="M204.73,208.32c-.12,.84-.24,1.68-.37,2.52-.24,1.55-.5,3.09-.78,4.63-.32,1.77-.67,3.53-1.03,5.29,0,.05-.02,.1-.03,.14-4.41,21.2-17.39,26.78-24.05,28.34-6.65,1.56-10.91,.02-10.91,.02,2.11-.42,4.14-1.17,6.06-2.17,.45-.03,.9-.11,1.39-.21,2.39-.46,4.69-1.4,6.71-2.74,1.52-1,2.89-2.23,4.03-3.64,1.24-1.55,2.48-3.45,4.44-3.72,.53-.07,1.08-.01,1.59-.2,.85-.31,1.32-1.2,1.66-2.04,.97-2.35,1.56-4.83,2.14-7.3,.91-3.84,1.81-7.68,2.72-11.52,.42-1.76,.87-3.59,2.06-4.94,1.11-1.27,2.69-1.94,4.37-2.46Z"/></g></g></g></g></g></g></g></svg>