<?xml version="1.0" encoding="UTF-8"?><svg xmlns="http://www.w3.org/2000/svg" viewBox="0 0 332.64 271.64"><defs><style>.d{fill:#fcede0;}.e{fill:#dbcdc1;}.f{fill:#eceae7;}.g{fill:#532c17;}.h,.i{fill:#bfbfbd;}.j{isolation:isolate;}.k{fill:#c9c7c5;}.i{mix-blend-mode:multiply;opacity:.8;}.l{fill:#6d3f23;}.m{fill:#d8c7b7;}.n{fill:#d9d7d5;}.o{fill:#e6e2e2;}.p{fill:#e8d1c1;}.q{fill:#c4ac9b;}.r{fill:#98674b;}.s{fill:#ab8c76;}.t{fill:#955630;}.u{fill:#d6bba9;}.v{fill:#fff4eb;}.w{fill:#fffdfa;}.x{fill:#cfae97;}</style></defs><g class="j"><g id="a"/><g id="b"><g id="c"><g><g><path class="d" d="M73.32,245.11c-.46,2.73-1.11,5.43-1.93,8.07-.14,.45-.29,.92-.5,1.34-.16,.33-.35,.64-.6,.91-.53,.58-1.31,.2-2.02,.54-4.47,2.11-8.99,4.23-13.82,5.29-3.89,.86-7.88,1.73-11.85,1.35-4.39-.42-8.75-1.47-13.16-1.22-4.01,.23-8.07,1.53-11.96,.53-.42-.11-.85-.25-1.17-.53-.67-.58-.69-1.51-.31-2.33,.26-.57,.71-1.09,1.25-1.38,1.32-.71,2.91-.61,4.4-.81,.69-.1,1.4-.27,1.94-.72,.41-.34,.7-.8,1.03-1.22,.18-.21,.36-.41,.55-.6,1.42-1.35,3.4-2.03,5.27-2.71,5.01-1.84,9.95-4.22,13.71-8.01,1.86-1.87,3.39-4.04,5.08-6.06,1.7-2.02,3.62-3.93,6-5.07,2.38-1.14,5.3-1.4,7.62-.16,.8,.43,1.48,1,2.12,1.63,.77,.77,1.46,1.63,2.18,2.45,1.31,1.49,2.9,2.93,4.86,3.2l.39,.24c1.33,1.28,1.2,3.42,.89,5.24Z"/><path class="p" d="M70.89,254.52c-.16,.33-.35,.64-.6,.91-.53,.58-1.31,.2-2.02,.54-4.47,2.11-8.99,4.23-13.82,5.29-3.89,.86-7.88,1.73-11.85,1.35-4.39-.42-8.75-1.47-13.16-1.22-4.01,.23-8.07,1.53-11.96,.53-.42-.11-.85-.25-1.17-.53-.67-.58-.69-1.51-.31-2.33,.62-.15,1.27-.22,1.91-.18,1.37,.08,2.7,.56,4.07,.52,1.99-.06,3.79-1.2,5.76-1.49,2.53-.37,5.02,.68,7.5,1.26,5.73,1.36,11.74,.26,17.44-1.21,5.7-1.47,11.39-3.31,17.28-3.46,.3,0,.61,0,.92,0Z"/><path class="v" d="M64.99,233.97c-.41,.2-.82,.38-1.2,.57-4.38,2.19-6.39,7.32-10.1,10.51-2.04,1.76-4.61,2.91-7.29,3.25-1.05,.14-2.12,.15-3.15,.37-2.58,.56-4.71,2.32-7.04,3.57-3.35,1.79-7.25,2.53-11.03,2.1,1.42-1.35,3.4-2.03,5.27-2.71,5.01-1.84,9.95-4.22,13.71-8.01,1.86-1.87,3.39-4.04,5.08-6.06,1.7-2.02,3.62-3.93,6-5.07,2.38-1.14,5.3-1.4,7.62-.16,.8,.43,1.48,1,2.12,1.63Z"/></g><g><path class="d" d="M36.59,31.89c-.29,.97-.71,1.89-.98,2.85-.36,1.3-.44,2.68-.24,4.01l-4.5,.3-9.21,.62-3.95,.26C13.62,30.21,6.42,21.88,3.43,11.75c-.46-1.56-.83-3.19-1.68-4.57C1.15,6.2,.32,5.34,.06,4.23-.21,3.13,.5,1.68,1.63,1.77c.75,.06,1.69,.69,2.11,.06,.19-.28,.11-.67,.23-.98,.27-.7,1.34-.68,1.87-.32,.15,.1,.21,.23,.33,.35,.33,.31,.91,.26,1.3,.13,.33-.11,.63-.27,.93-.44,.13-.07,.26-.14,.4-.21,.97-.45,2.12-.49,3.12-.13,.62,.23,1.12,.6,1.59,1.05,.34,.33,.73,.57,1.11,.86,.38,.29,.68,.66,.93,1.07,0,0,0,0,0,.01,.42,.68,.73,1.47,1.09,2.13,.9,1.64,2.16,3.03,3.42,4.42,3.61,3.97,7.26,7.99,11.74,10.95,1.35,.89,2.83,1.73,3.82,3.05,.24,.31,.58,.74,.75,1.12,.3,.72,.47,1.52,.57,2.29,.22,1.56,.1,3.18-.36,4.69Z"/><path class="p" d="M22.98,31.72c-.75,1.93-.29,4.11-.69,6.15-.12,.63-.33,1.24-.62,1.8l-3.95,.26C13.62,30.21,6.42,21.88,3.43,11.75c-.46-1.56-.83-3.19-1.68-4.57C1.15,6.2,.32,5.34,.06,4.23-.21,3.13,.5,1.68,1.63,1.77c.75,.06,1.69,.69,2.11,.06,.19-.28,.11-.67,.23-.98,.27-.7,1.34-.68,1.87-.32,.15,.1,.21,.23,.33,.35,.33,.31,.91,.26,1.3,.13,.33-.11,.63-.27,.93-.44,.6,.58,1.23,1.15,1.99,1.41,.54,.18,1.15,.21,1.6,.55,.33,.26,.52,.66,.68,1.05,1.09,2.8,.94,5.98,2.17,8.72,.23,.5,.5,.99,.65,1.52,.45,1.62-.34,3.34-.22,5.01,.09,1.22,.68,2.4,1.61,3.2,1.26,1.08,2.98,1.41,4.53,2.02,1.55,.61,3.13,1.78,3.22,3.45,.08,1.52-1.1,2.79-1.65,4.21Z"/><path class="v" d="M36.59,31.89c-.29,.97-.71,1.89-.98,2.85-.36,1.3-.44,2.68-.24,4.01l-4.5,.3c-.05-.89,.09-1.79,.18-2.69,.78-7.3-1.86-14.89-7-20.13-2.54-2.59-5.75-4.76-7.15-8.11-.65-1.53-.89-3.27-1.35-4.88,.42,.68,.73,1.47,1.09,2.13,.9,1.64,2.16,3.03,3.42,4.42,3.61,3.97,7.26,7.99,11.74,10.95,1.35,.89,2.83,1.73,3.82,3.05,.24,.31,.58,.74,.75,1.12,.3,.72,.47,1.52,.57,2.29,.22,1.56,.1,3.18-.36,4.69Z"/></g><g><path class="d" d="M312.87,268.79c-.34,.23-.77,.27-1.18,.3-2.35,.18-4.7,.22-7.05,.13-.55-.02-1.24,.03-1.46,.54-.04,.09-.06,.19-.07,.3-.01,.16-.02,.32-.06,.47-.19,.77-1.16,1-1.95,1.05-8.06,.5-16.12-1.78-24.18-1.23-3.53,.24-7.02,1.03-10.55,.96-1.09-.02-2.28-.17-3.01-.97-.63-.7-.73-1.64-.74-2.62-.02-1.26,.09-2.59-.67-3.54l.44,.28c.31-.46,.51-.98,.64-1.52,.37-1.47,.33-3.12,1.17-4.38,.18-.28,.4-.53,.64-.74,.66-.59,1.52-.98,2.39-1.21,1.24-.32,2.63-.33,3.73,.32,.7,.41,1.22,1.04,1.85,1.54h0s.04,.04,.07,.06c2.35,1.86,5.69,1.56,8.56,2.42,1.23,.37,2.39,.96,3.61,1.37,1.12,.38,2.29,.6,3.45,.81,5.29,.97,10.6,1.8,15.93,2.5,2.75,.36,5.55,.7,8.14,1.7,.23,.09,.48,.2,.62,.42,.22,.35,.01,.83-.33,1.06Z"/><g><g><path class="d" d="M237.77,182.35c-.34-.94-.61-1.9-.86-2.87-.2-.74-.39-1.49-.58-2.22-.47-1.73-.93-3.46-1.38-5.2-.9-3.48-1.75-6.96-2.55-10.46-.81-3.5-1.56-7.01-2.27-10.52-.71-3.52-1.37-7.05-1.98-10.59-.31-1.78-.62-3.57-.9-5.36-.28-1.74-.55-3.49-.79-5.23-.34-2.31-.66-4.62-1.04-6.92-.21-.45-.35-.95-.41-1.47-.39-3.45-2.44-7.28-3.81-10.44-.52-1.19-.99-2.37-1.93-3.25-.15-.14-.29-.27-.43-.4h-.04c-.52-.15-1.05-.27-1.58-.36-1.72-.31-3.46-.36-5.2-.19-1.73,.18-3.44,.58-5.07,1.22-.85,.33-1.68,.73-2.47,1.18-.37,.21-.73,.43-1.08,.66-.09,.06-.86,.52-.86,.61,.05,.3,.1,.6,.16,.9,1.07,6.18,1.84,12.51,2.16,18.77,.07,1.45,.11,2.9,.13,4.35,.01,1.25,0,2.5,0,3.75,0,1.18-.03,2.36-.04,3.54-.14,13.76,.2,27.53,1.03,41.27l.05,.2c2.44,3.51,6.28,5.77,10.32,6.67,4.03,.9,8.25,.52,12.25-.53,1.92-.51,3.82-1.17,5.51-2.26,.92-.6,1.78-1.33,2.5-2.19,.36-.43,.68-.89,.95-1.38,.26-.47,.41-.77,.23-1.28Z"/><path class="p" d="M237.55,183.64c-.27,.49-.59,.95-.95,1.38-.72,.86-1.57,1.59-2.5,2.19-1.68,1.09-3.59,1.75-5.51,2.26-4,1.05-8.22,1.43-12.25,.53-4.04-.9-7.88-3.16-10.32-6.67l-.05-.2c-.83-13.74-1.17-27.51-1.03-41.27,0-1.18,.03-2.36,.04-3.54,2,3.58,2.68,7.92,2.79,12.12,.13,4.84-.4,9.69-.02,14.52,.38,4.83,1.79,9.81,5.14,13.13,2.83,2.81,6.78,4.13,10.66,4.25,3.88,.12,7.73-.87,11.41-2.2,.64-.23,1.3-.48,1.95-.67,.25,.97,.53,1.94,.86,2.87,.18,.52,.04,.82-.23,1.28Z"/><path class="v" d="M225.41,122.99c-.21-.45-.35-.95-.41-1.47-.39-3.45-2.44-7.28-3.81-10.44-.52-1.19-.99-2.37-1.93-3.25-.15-.14-.29-.27-.43-.4h-.04c0,.06,.02,.14,.04,.21,.13,.68,.23,1.36,.26,2.05,.07,1.42-.09,2.84-.35,4.23-.29,1.56-.73,3.09-1.21,4.61-1.33,4.17-2.9,8.55-2.02,12.84,.28,1.36,.79,2.64,1.24,3.94,2.06,5.88,2.99,12.2,2.71,18.47-.03,.74-.05,1.59,.45,2.11,.54,.57,1.49,.49,2.1,0,.61-.48,.94-1.26,1.17-2.03,.92-3.05,.61-6.36,1.2-9.5,.49-2.57,1.56-4.97,2.35-7.46,.19-.58,.35-1.17,.51-1.76-.28-1.74-.55-3.49-.79-5.23-.34-2.31-.66-4.62-1.04-6.92Z"/><path class="p" d="M206.91,121.71c-.53,3.78-1.07,7.56-1.61,11.35-.07,.51-.15,1.03-.31,1.51-.01-1.45-.05-2.9-.13-4.35-.33-6.26-1.09-12.59-2.16-18.77,.36-.19,.79-.27,1.19-.21,.89,.14,1.63,.81,2.15,1.59,1.66,2.5,1.3,5.86,.87,8.88Z"/></g><g><path class="m" d="M305.33,257.26c-.34,.23-.77,.27-1.18,.3-2.35,.18-4.7,.22-7.05,.13-.55-.02-1.24,.03-1.46,.54-.04,.09-.06,.19-.07,.3-.01,.16-.02,.32-.06,.47-.19,.77-1.16,1-1.95,1.05-8.06,.5-16.12-1.78-24.18-1.23-3.53,.24-7.02,1.03-10.55,.96-1.09-.02-2.28-.17-3.01-.97-.63-.7-.73-1.64-.74-2.62-.02-1.26,.09-2.59-.67-3.54l.44,.28c.31-.46,.51-.98,.64-1.52,.37-1.47,.33-3.12,1.17-4.38,.18-.28,.4-.53,.64-.74,.66-.59,1.52-.98,2.39-1.21,1.24-.32,2.63-.33,3.73,.32,.7,.41,1.22,1.04,1.85,1.54h0s.04,.04,.07,.06c2.35,1.86,5.69,1.56,8.56,2.42,1.23,.37,2.39,.96,3.61,1.37,1.12,.38,2.29,.6,3.45,.81,5.29,.97,10.6,1.8,15.93,2.5,2.75,.36,5.55,.7,8.14,1.7,.23,.09,.48,.2,.62,.42,.22,.35,.01,.83-.33,1.06Z"/><g><path class="s" d="M245.36,116.04c.23-.25-.11,.2-.46,.67-.2,.76-.39,1.52-.53,2.28-.06,.3-.11,.59-.15,.89-.44,2.91-.3,6.07-1.9,8.53-.7,1.07-1.7,1.95-2.26,3.11-.75,1.57-.57,3.39-.38,5.12,.05,.42,.09,.84,.14,1.26,.33,.27,.65,.54,.98,.8,.44,.35,1.01,.55,1.6,.68,.65-1.56,1.23-3.14,1.74-4.75,.73-2.27,1.32-4.58,1.77-6.91,.45-2.33,.76-4.68,.93-7.05,.09-1.18,.14-2.37,.16-3.55,0-.86,.03-1.67-.48-2.37-.4,.42-.78,.86-1.16,1.3Z"/><g><path class="m" d="M276.54,131.72c-.06-.82-.13-1.65-.2-2.47-.02-.23-.26-2.38-.23-2.32-.25-1.75-.6-3.5-1.07-5.21-.29-1.03-.64-2.02-1.01-3.02-.09-.26-.2-.51-.3-.77l-.02-.05c-.81-1.21-1.42-2.64-2.2-3.89l-.02-.03s-.04-.04-.06-.06c-.49-.5-.94-1.02-1.46-1.5-.1-.09-.18-.17-.25-.23-.04-.02-.07-.04-.12-.06-.44-.25-.85-.54-1.3-.78-.18-.09-.31-.17-.42-.23-.59-.18-1.16-.39-1.75-.54-.6-.16-1.2-.27-1.8-.39-.26-.03-.53-.05-.79-.07-1.47-.1-2.94-.11-4.41-.05-.91,.04-1.81,.13-2.72,.2-.1,0-.19,.01-.26,.02-.04,0-.09,.02-.14,.03-1.54,.29-3.07,.61-4.55,1.11-.17,.06-.35,.12-.52,.18-.83,.32-.69,.26,.42-.2-.24-.12-1.65,.84-1.89,.98-.43,.25-.84,.54-1.26,.81-.18,.16-.37,.31-.55,.47-.65,.59-1.26,1.23-1.84,1.89-.37,2.26-.44,4.59-.65,6.88-.01,.16-.03,.32-.05,.48-.01,.16-.03,.32-.05,.48-.02,.16-.04,.32-.06,.47-.02,.16-.04,.32-.06,.47-.09,.59-.19,1.17-.32,1.75-.04,.19-.09,.39-.14,.58-.04,.15-.08,.3-.12,.45s-.09,.3-.14,.45c-.09,.3-.2,.6-.32,.89-.06,.15-.12,.29-.18,.44-.06,.15-.13,.29-.2,.44-.62,1.29-1.46,2.47-2,3.79-.13,.33-.25,.67-.35,1.01-.03,.11-.06,.23-.09,.35-.03,.14-.07,.28-.09,.42-.04,.18-.08,.37-.1,.56-.02,.14-.04,.27-.06,.41-.03,.21-.05,.42-.07,.63-.02,.23-.04,.45-.05,.68,0,.17-.02,.35-.02,.52,0,.1,0,.21,0,.31,0,.2,0,.39,0,.59,0,.47,0,.94,.01,1.4,.14,6.7,.67,13.39,1.57,20.03,.22,1.59,.45,3.18,.71,4.77,.2,1.23,.62,2.56,.64,3.8,0,.54,.07,1.07,.13,1.62,.29,2.5,.43,5.02,.49,7.54,.11,5.07-.14,10.14-.27,15.21-.08,3.19-.11,6.38,.03,9.57,.07,1.6,.19,3.2,.36,4.79l1.62,11.11c1.24,5.09,2.17,10.25,3.1,15.4,.92,5.16,2.55,10.37,3.73,15.48,.05,.23,.11,.46,.16,.69,.26,1.09,.54,2.2,.89,3.27,.33,1.01,.73,2,1.24,2.91,.27,.5,.57,.97,.91,1.42l4.07-4.21,.26-.27,5.01-5.18s-.02-.35-.06-1.01h0c-.18-3.51-.56-15.76,1.38-30.99,1-7.85,1.32-15.01,1.36-20.59,.03-3.62,.26-7.24,.71-10.82,.24-1.96,.54-3.92,.91-5.86,.37-1.94,.69-4.67,.86-8.51,.19-4.37,.82-8.71,1.86-12.96,1.38-5.69,3.26-14.36,4.34-23.29-.05-.73-.11-1.47-.16-2.2Z"/><path class="q" d="M292.9,259.11c-1.18,.18-2.38,.08-3.56-.02-3.73-.33-7.56-.68-10.91-2.35-1.17-.58-2.29-1.33-3.55-1.68-1.1-.3-2.26-.29-3.41-.29-2.39-.01-4.79-.13-7.17-.35-1.12-.1-2.28-.24-3.27-.8-.25-.14-.48-.31-.69-.5-.18-.18-.35-.36-.49-.57-.09-.32-.2-.65-.32-.97-.02-.07-.06-.13-.11-.18-.02-.19-.05-.37-.13-.54-.27-.56-.49-1.15-.73-1.71-.41-.95-.85-1.9-1.24-2.86-.05-.11-.09-.21-.14-.32-6.39-15.54-.15-33.44-3.18-49.97-1.13-6.16-3.51-12.71-.95-18.42,.63-1.41,1.55-2.7,2.04-4.16,.47-1.39,.54-2.88,.61-4.35,.25-5.53,.5-11.05,.74-16.57,.05-1.03,.02-2.22-.79-2.85-1.64-1.26-4.07,1.26-5.95,.42-1.2-.54-1.46-2.12-1.48-3.44-.04-2.26,.08-4.54,.28-6.82,.53-6.11,1.57-12.26,1.18-18.22-.15-2.37-.53-4.71-1.25-7.01-.12-.39-.29-.8-.52-1.15-.09,.07-.17,.15-.26,.22-.65,.59-1.26,1.23-1.84,1.89-.37,2.26-.44,4.59-.65,6.88-.01,.16-.03,.32-.05,.48-.01,.16-.03,.32-.05,.48-.01,.16-.03,.31-.06,.47-.02,.16-.04,.32-.06,.47-.09,.59-.19,1.17-.32,1.75-.04,.19-.09,.39-.14,.58-.04,.15-.08,.3-.12,.45-.04,.15-.09,.3-.14,.45-.09,.3-.2,.6-.32,.89-.06,.15-.12,.29-.18,.44-.06,.15-.13,.29-.2,.44-.62,1.29-1.46,2.47-2,3.79-.13,.33-.25,.67-.35,1.01-.03,.11-.06,.23-.09,.35-.03,.14-.07,.28-.09,.42-.04,.18-.08,.37-.1,.56-.02,.14-.04,.27-.06,.41-.03,.21-.05,.42-.07,.63-.02,.23-.04,.45-.05,.68,0,.17-.02,.35-.02,.52,0,.1,0,.21,0,.31,0,.2,0,.39,0,.59,0,.47,0,.94,.01,1.4,.14,6.7,.67,13.39,1.57,20.03,.22,1.59,.45,3.18,.71,4.77,.2,1.23,.62,2.56,.64,3.8,0,.54,.07,1.07,.13,1.62,.29,2.5,.43,5.02,.49,7.54,.11,5.07-.14,10.14-.27,15.21-.08,3.19-.11,6.38,.03,9.57,.07,1.6,.19,3.2,.36,4.79l1.62,11.11c1.24,5.09,2.17,10.25,3.1,15.4,.92,5.16,2.55,10.37,3.73,15.48,.05,.23,.11,.46,.16,.69,.26,1.09,.54,2.2,.89,3.27,.33,1.01,.73,2,1.24,2.91,0,.98,.1,1.93,.74,2.62,.73,.8,1.92,.96,3.01,.97,3.53,.07,7.02-.72,10.55-.96,8.06-.55,16.11,1.73,24.18,1.23,.79-.05,1.77-.27,1.95-1.05,.04-.15,.04-.31,.06-.47-.9,.15-1.77,.44-2.67,.58Z"/><path class="e" d="M276.54,131.72c-.06-.82-.13-1.65-.2-2.47-.02-.23-.26-2.38-.23-2.32-.25-1.75-.6-3.5-1.07-5.21-.29-1.03-.64-2.02-1.01-3.02-.09-.26-.2-.51-.3-.77l-.02-.05c-.81-1.21-1.42-2.64-2.2-3.89l-.02-.03s-.04-.04-.06-.06c-.49-.5-.94-1.02-1.46-1.5-.1-.09-.18-.17-.25-.23-.04-.02-.07-.04-.12-.06-.44-.25-.85-.54-1.3-.78-.18-.09-.31-.17-.42-.23-.24-.08-.48-.15-.72-.23-.24,1.11-.31,2.27-.21,3.39,.25,2.92,1.35,5.68,2.16,8.49,.19,.65,.36,1.32,.52,1.98,.63,2.63,1.01,5.32,1.13,8.03,.08,1.66,.05,3.36-.46,4.95-.41,1.28-1.12,2.44-1.63,3.69-2.22,5.45-.43,11.66-1.18,17.49-.26,2.04-.84,4.04-1.09,6.08-.48,3.89,.22,7.83,.92,11.69,.48,2.63,.96,5.25,1.43,7.88,.24-1.96,.54-3.92,.91-5.86,.37-1.94,.69-4.67,.86-8.51,.19-4.37,.82-8.71,1.86-12.96,1.38-5.69,3.26-14.36,4.34-23.3-.05-.73-.11-1.47-.16-2.2Z"/></g></g></g><path class="d" d="M283.05,114.84c-.03,1.14-.09,2.27-.17,3.4-.14,2.15-.37,4.31-.67,6.44-.17,1.19-.36,2.39-.66,3.55-.31,1.26-.74,2.49-1.36,3.63-.74,1.35-1.73,2.55-2.63,3.8-.14,.19-.27,.39-.4,.59-1.5,2.18-2.76,4.51-4.41,6.58-1.48,1.85-3.27,3.45-5.26,4.74-1.89,1.22-3.96,2.16-6.11,2.8-.46,.14-.92,.26-1.39,.37-1.3,.3-2.63,.5-3.96,.58-1.39,.08-2.79,.04-4.17-.14-.07,0-.15-.02-.22-.03-.15-.01-.3-.03-.46-.06-.34-.04-.7-.09-1.05-.16-.06,0-.11-.02-.17-.04-.08-.01-.15-.03-.22-.05-.28-.07-.55-.16-.81-.28-.05-.02-.1-.05-.15-.07-.15-.08-.29-.17-.42-.27l-.14-.11c-.12-.09-.24-.19-.35-.28-.17-.13-.33-.27-.49-.41-.27-.22-.54-.45-.8-.69-.26-.23-.53-.46-.79-.7-2.7-2.46-4.86-5.51-6.27-8.87-2.05-4.88-2.54-10.33-4.27-15.31-.33-.95-.7-1.88-1.15-2.79-.87-1.78-1.98-3.47-2.44-5.39-.39-1.66-.27-3.37-.14-5.05,.06-.79,.04-1.63,.19-2.41,.08-.44,.28-.79,.64-1.05,.82-.59,1.86-1.05,2.75-1.47,3.65-1.73,7.68-2.67,11.73-2.69,2.96-.02,5.9,.44,8.85,.74,1.93,.2,3.86,.34,5.8,.23,.2,0,.41-.02,.61-.04,3.42-.27,6.79-1.17,10.23-1.11,2.1,.04,3.55,.26,5.53,1.03,1.52,.59,2.94,1.63,3.64,3.11,.55,1.15,1.58,2.75,1.5,4.58-.05,1.32,.1,1.96,.07,3.29Z"/><path class="p" d="M262,148.91c.02,.49-.4,1.05-.63,1.47-.46,.14-.92,.26-1.39,.37-2.65,.62-5.42,.79-8.12,.44-.58-.08-1.26-.13-1.91-.28-.59-.13-1.16-.33-1.6-.68-.33-.26-.66-.53-.98-.8-.54-.45-1.07-.91-1.59-1.38-2.7-2.46-4.86-5.51-6.27-8.87-2.05-4.88-2.54-10.33-4.27-15.31,.22,.07,.43,.16,.64,.26,1.08,.53,1.99,1.33,2.89,2.14,2.62,2.35,5.4,4.99,5.89,8.48,.09,.64,.1,1.31,.34,1.91,.25,.6,.8,1.14,1.45,1.1,.3-.02,.59-.17,.83-.35,.28-.22,.45-.52,.72-.74,.05-.04,.1-.09,.14-.14,.06-.06,.11-.12,.16-.19,.23-.33,.43-.67,.61-1.02,.37-.71,.66-1.44,.92-2.2,.02-.05,.04-.1,.05-.16,.34-.98,.62-1.97,.95-2.96,.39-1.2,.84-2.37,1.29-3.54,.25-.64,.5-1.3,.91-1.85,.15-.19,.33-.38,.56-.43,.28-.05,.56,.12,.72,.35,.16,.23,.23,.52,.28,.79,.48,2.36,.54,4.84,1.44,7.05,1.07,.5,1.98,1.34,2.39,2.44,.32,.86,.33,1.79,.33,2.7,0,1.16,0,2.31,.01,3.47,0,.63,0,1.27,.26,1.85,.31,.7,.93,1.21,1.44,1.78,.32,.36,.6,.77,.82,1.2,.26,.49,.44,1.02,.57,1.56,.11,.52,.13,1.02,.15,1.55Z"/><g><g><path class="l" d="M332.56,95.94c-.16,2.83-.39,5.69-1.39,8.33-.5,1.31-1.18,2.55-1.63,3.88-1.46,4.32-.33,9.06-.84,13.58-.39,3.45-1.75,6.79-1.74,10.26-.06,.53-.09,1.03-.09,1.53,0,5.18,3.13,9.1,3.93,14.54,.45,3.12,.11,6.35-1,9.3-1.18,3.13-3.23,6.09-4.69,9.11-.58,1.19-1.08,2.39-1.39,3.62-.1,.4-.19,.8-.25,1.2-.15,.99-.18,2-.03,3.04,.18,1.26,.62,2.46,1.09,3.64,.09,.23,.18,.46,.28,.69,.63,1.54,1.27,3.08,1.44,4.73,.48,4.62-2.76,8.75-6.08,12.01-1.53,1.5-3.16,3-4.58,4.62-.36,.4-.7,.81-1.03,1.24-1.19,1.55-2.15,3.24-2.64,5.14-.37,1.47-.43,3.01-.83,4.48-.68,2.52-2.38,4.75-4.63,6.07,2.83-2.69,3.74-7.19,2.2-10.77-.66-1.53-1.72-2.89-2.24-4.47-.77-2.3-.34-4.81-.14-7.23,.47-5.9-.53-11.92-2.91-17.34,.73,9.24,1.41,18.85-1.95,27.49-.31,.81-.66,1.6-.96,2.42-.12,.31-.23,.63-.33,.95-.03,.09-.06,.19-.09,.29l-.82,4.29c-.8,4.26-2.73,8.42-6.01,11.25-.9,.78-1.92,1.44-3,1.96-.42,.2-.84,.38-1.27,.53-.7,.26-1.43,.45-2.16,.58-1.9,.34-3.86,.24-5.68-.42,1.64-2.33,2.5-4.99,2.82-7.79,.18-1.58,.19-3.21,.07-4.84-.21-2.88-.82-5.78-1.58-8.51-1.96-7.03-4.81-14.14-3.89-21.39,.29-2.25,.94-4.49,.69-6.75-.21-1.9-1.06-3.66-1.68-5.47-2.71-7.98-.92-16.69-.53-25.12,.31-6.82-.33-13.69-1.9-20.35l2.03-1.59,41.16-32.24,11.1-8.69c1.21,2.02,2.44,4.08,2.96,6.38,.43,1.9,.35,3.86,.24,5.8Z"/><path class="g" d="M315.17,143.38c-.14-.18-.18-.61-.23-.83-.06-.3-.11-.59-.14-.89-.06-.57,.02-1.08,.08-1.65,.12-1.18,.27-2.36,.64-3.49,.25-.76,.59-1.5,.83-2.27,.56-1.84,.47-3.82,.38-5.74-.09-1.79-.68-3.48-1.12-5.2-.72-2.82-1.43-5.65-2.15-8.47l-25.47,.69-6.18,20.36c.2,.67,.42,1.38,.92,1.88,.49,.51,1.34,.74,1.91,.33,.32-.23,.5-.61,.8-.85,.29-.22,.65-.3,.99-.43,.79-.29,1.43-.89,1.84-1.61,.34-.59,.61-1.4,.5-2.1-.05-.31-.24-.51,0-.79,.43-.49,1.32-.47,1.8-.06,.65,.55,.79,1.48,.86,2.33,.21,2.49,.11,5.01,.35,7.5,.14,1.43,.4,2.85,.87,4.21,.24,.67,.53,1.33,.88,1.94,.12,.2,.27,.63,.51,.69-.39-1.67-.84-3.27-1.03-4.98-.19-1.7-.22-3.41-.08-5.12,.1-1.28,.29-2.55,.57-3.8,.48-2.14,1.22-4.43,.38-6.46-.23-.55-.5-1.31,0-1.63,.4-.25,.9,.08,1.24,.4,1.15,1.08,2.15,2.36,2.91,3.74,.27,.49,.42,.96,.45,1.52,.03,.69,.17,1.34,.27,2.02,.08,.54,.13,1.09,.18,1.64,.21,2.44,.41,4.87,.62,7.31,.58-3.45,1.4-6.86,2.48-10.19,0,.2,.04,.37,.02,.57-.01,.12-.03,.24-.04,.35-.02,.23-.04,.45-.06,.68-.04,.45-.07,.91-.1,1.36-.05,.91-.08,1.82-.09,2.73,0,.12,0,.24,0,.36,0,2.1,.16,4.24,.76,6.26,.14,.48,.32,.96,.51,1.43,.31,.78,.65,1.55,1.02,2.3,.54,1.08,1.14,2.14,1.8,3.15,.29,.45,.6,.89,.82,1.38,.25,.57,.37,1.18,.49,1.79,.09,.44,.17,.88,.25,1.32,.61,3.22,1.1,6.56,.51,9.82-.04,.21-.08,.42-.13,.63,0,.01-.02,.07,0,.09,.02,.03,.06,0,.08-.01,.11-.06,.16-.17,.21-.28,.14-.3,.26-.6,.37-.91,.1-.3,.19-.6,.27-.91,.11-.44,.2-.89,.28-1.34,.07-.41,.14-.83,.2-1.24,.15-1.03,.27-2.06,.36-3.09,.17-2.06,.18-4.13-.12-6.18-.67-4.6-2.89-9.08-2.2-13.68,.67-4.5,4.09-8.67,3.13-13.12,.04,.17,.34,.43,.44,.58,.21,.3,.42,.6,.61,.91,.3,.48,.58,.98,.81,1.5,.08,.19,.2,.33,.32,.5,.27,.38,.45,.82,.56,1.27,.24,.94,.21,1.93,.08,2.88-.22,1.59-.66,3.2-.34,4.78,.32,1.57,1.35,2.89,2.35,4.15Z"/><path class="t" d="M332.56,95.94c-.16,2.83-.39,5.69-1.39,8.33-.5,1.31-1.18,2.55-1.63,3.88-1.46,4.32-.33,9.06-.84,13.58-.39,3.45-1.75,6.79-1.74,10.26-.06,.53-.09,1.03-.09,1.53,0,5.18,3.13,9.1,3.93,14.54,.45,3.12,.11,6.35-1,9.3-1.18,3.13-3.23,6.09-4.69,9.11-.01-.59,.01-1.18,.09-1.78,.5-4.15,3.13-7.83,3.63-11.99,.28-2.4-.17-4.88-1.3-7.01-.92-1.76-2.28-3.27-3.06-5.1-2.19-5.15,.7-10.88,1.8-16.36,1.08-5.35,.38-11.04-1.95-15.97l.41,1.78c-3.35-1.2-5.74-4.35-6.67-7.77-.86-3.2-.59-6.6,.21-9.83l11.1-8.69c1.21,2.02,2.44,4.08,2.96,6.38,.43,1.9,.35,3.86,.24,5.8Z"/><path class="t" d="M296.77,209.39c.02,2.6-.44,5.16-1.29,7.57-1.18,3.3-3.05,6.26-5.31,8.83-.42,.2-.84,.38-1.27,.53,.82-1.02,1.59-2.09,2.29-3.19,1.29-2.07,2.31-4.3,2.95-6.61,.65-2.31,.92-4.71,.75-7.07-.08-1.17-.27-2.34-.57-3.46-.29-1.12-.75-2.21-1.23-3.36-.24-.57-.48-1.16-.71-1.77-.24-.61-.41-1.24-.61-1.86-.2-.63-.31-1.27-.47-1.91-.13-.64-.22-1.28-.33-1.92-.33-2.57-.27-5.13-.08-7.61,.19-2.49,.48-4.92,.64-7.35,.16-2.43,.19-4.84-.08-7.32l.27-.08c1.07,2.3,1.57,4.86,1.8,7.37,.24,2.52,.23,5.04,.2,7.5-.02,2.46-.09,4.87,.04,7.23,.05,.58,.08,1.17,.15,1.76l.13,.87c.04,.29,.08,.58,.16,.86,.14,.56,.24,1.14,.42,1.7,.18,.57,.37,1.14,.58,1.72,.41,1.16,.86,2.39,1.13,3.68,.27,1.28,.42,2.58,.44,3.88Z"/><path class="g" d="M285.02,211.27c-.33,.87-.69,1.74-1.08,2.58-.21-2.88-.82-5.78-1.58-8.51-1.96-7.03-4.81-14.14-3.89-21.39,.29-2.25,.94-4.49,.69-6.75-.21-1.9-1.06-3.66-1.68-5.47-2.71-7.98-.92-16.69-.53-25.12,.31-6.82-.33-13.69-1.9-20.35l2.03-1.59c1.14,3.41,1.89,6.94,2.24,10.51,.19,2.02,.26,4.04,.19,6.07-.11,3.29-.56,6.62,0,9.87,.48,2.76,1.67,5.35,2.24,8.09,1.05,5.03-.02,10.37,1.41,15.31,.5,1.73,1.31,3.4,1.45,5.2,.2,2.56-.96,5.03-1.22,7.59-.55,5.44,2.98,10.52,3.19,15.98,.11,2.73-.62,5.42-1.58,7.97Z"/><path class="t" d="M318.22,185.5c-.38,2.55-1.15,4.95-1.77,7.29-.63,2.34-1.1,4.71-.9,7.06,0,.06,0,.12,.02,.18-.36,.4-.7,.81-1.03,1.24-.13-.41-.23-.82-.31-1.24-.27-1.29-.27-2.61-.2-3.9,.1-1.29,.32-2.56,.58-3.79,.54-2.47,1.3-4.81,1.77-7.16,.23-1.17,.39-2.35,.38-3.52,0-1.16-.18-2.34-.44-3.51-.27-1.17-.63-2.35-.99-3.54-.36-1.19-.7-2.41-.97-3.64-.55-2.46-.9-4.95-1.03-7.45-.25-5.01,.33-10.05,1.74-14.82l.18,.05c-.56,2.41-.92,4.86-1.09,7.33-.17,2.46-.12,4.93,.11,7.37,.22,2.45,.66,4.87,1.28,7.24,.31,1.18,.67,2.34,1.07,3.51,.4,1.17,.82,2.36,1.15,3.59,.34,1.23,.6,2.52,.66,3.84,.07,1.31-.03,2.61-.21,3.88Z"/><path class="g" d="M298.85,184.93c-.6,2.78-.58,5.69-.21,8.57,.33,2.89,.92,5.78,1.34,8.69,.24,1.6,.41,3.24,.45,4.86-.12,.31-.23,.63-.33,.95-.08-1.92-.34-3.83-.7-5.72-.53-2.87-1.24-5.73-1.7-8.66-.47-2.92-.61-5.96-.06-8.95,.58-2.99,1.85-5.71,2.47-8.47,.32-1.38,.46-2.76,.31-4.11-.14-1.36-.56-2.68-1.13-3.95-1.15-2.55-2.87-4.84-4.63-7.18-1.74-2.35-3.57-4.79-4.7-7.64-.57-1.41-.94-2.91-1.05-4.43-.11-1.51,.1-3.06,.67-4.44l.18,.06c-.6,2.88,.15,5.76,1.41,8.27,1.28,2.53,3.13,4.75,4.98,7.03,1.84,2.28,3.7,4.73,4.86,7.6,.57,1.44,.98,2.97,1.08,4.54,.11,1.58-.12,3.15-.52,4.62-.79,2.94-2.12,5.57-2.74,8.35Z"/><path class="g" d="M289.69,214.51c-.59,1.76-1.58,3.36-2.22,5.09-.72,1.92-1.01,3.99-.84,6.03,.03,.41,.08,.84,.12,1.27-1.9,.34-3.86,.24-5.68-.42,1.64-2.33,2.5-4.99,2.82-7.79,.18-.19,.35-.38,.52-.57,2.55-2.96,4.05-6.8,4.16-10.71,.05-1.44-.08-2.95,.51-4.27,1.24,3.66,1.85,7.7,.62,11.37Z"/><path class="t" d="M324.79,178.68c-1.17-1.57-2.4-3.12-3.27-4.94-2.08-4.38-1.79-9.81-.87-14.73,.37-1.97,.83-3.93,1.14-5.92,.28-1.8,.41-3.62,.33-5.45-.04-.92-.18-1.82-.25-2.73-.03-.42-.02-.59,.31-.34,.83,.62,1.22,2.21,1.49,3.22,.44,1.64,.7,3.35,.7,5.06-.03,4.35-1.85,8.51-1.58,12.84,.09,1.52,.44,2.99,.91,4.41-.1,.4-.19,.8-.25,1.2-.15,.99-.18,2-.03,3.04,.18,1.26,.62,2.46,1.09,3.64,.09,.23,.18,.46,.28,.69Z"/></g><g><path class="d" d="M330.97,114.11c-.9,1.3-3.33,.48-4.24,1.77-.63,.9-.12,2.38-.97,3.09-.51,.41-1.43,.51-1.46,1.16-.02,.53,.69,.97,.38,1.5-.13,.23-.26,.41-.49,.55-.24,.16-.5,.27-.71,.46-.31,.29-.45,.72-.53,1.14-.17,.85-.16,1.73-.05,2.59,.04,.3,.09,.6,.09,.9,0,.32-.06,.59-.15,.88-.15,.5-.36,.97-.7,1.38-.18,.22-.4,.42-.64,.58-.76,.49-1.7,.47-2.57,.62-.16,.03-.33,.03-.5,.01-.29-.02-.6-.09-.87-.15-.97-.19-1.89-.53-2.83-.81-4.97-1.47-10.32-1.44-15.37-.33-5.06,1.1-9.86,3.25-14.31,5.91l-4.28-14.41-4.98-16.78c4.18-1.23,8.59-1.11,12.89-.92,.15,0,.31,0,.45,.03,.03,0,.06,.01,.09,.01,.09,0,.19-.04,.27-.07,.19-.05,.38-.11,.56-.17,.37-.12,.74-.25,1.1-.39,.72-.29,1.42-.65,2.09-1.05,.67-.4,1.3-.86,1.89-1.37,.17-.14,.33-.28,.48-.44,.12-.12,.23-.25,.36-.35,.09-.08,.18-.15,.27-.23,.34-.33,.61-.74,.92-1.1,.35-.4,.74-.78,1.2-1.06,1.49-.89,3.36-.59,5.08-.73,1.66-.13,3.28-.71,4.65-1.65,.95-.65,1.77-1.46,2.6-2.26,.1-.09,.19-.18,.29-.27,3.55-3.28,7.82-5.77,12.42-7.24,1.37-.44,2.96-.8,4.35-.27,.48,.18,.94,.42,1.23,.86,1.76,2.78,2.59,6.41,1.84,9.64-.32,1.36-.9,2.65-1.38,3.96-1.35,3.73-1.72,8.15,.48,11.45,.36,.55,.8,1.06,1.06,1.67,.26,.61,.32,1.35-.05,1.89Z"/><path class="p" d="M323,127.66c-.23,.99-.66,1.92-1.49,2.46-.76,.49-1.7,.47-2.57,.62-.16,.03-.33,.03-.5,.01-1.95-.8-3.76-1.92-5.33-3.33-.72-.65-1.4-1.36-2.14-1.99-1.56-1.32-3.4-2.28-5-3.55-1.6-1.27-3.01-3-3.2-5.04-.1-1.1,.24-2.28-.18-3.33-.18-.44-.22-.93-.33-1.39-.21-.84-.37-1.7-.45-2.56-.02-.25-.03-.51,.06-.74,.11-.28,.55-.57,.85-.38,.19,.11,.28,.38,.36,.57,.24,.56,.37,1.16,.51,1.75,.21,.85,.45,1.68,.69,2.52,.17,.59,.34,1.17,.59,1.73,.54,1.2,1.44,2.24,2.56,2.93,.25,.16,.51,.29,.77,.45,.26,.15,.47,.36,.72,.52,.08,.05,.17,.09,.25,.14,.12,.09,.23,.19,.35,.28,.24,.19,.48,.37,.74,.53,.65,.44,1.35,.8,2.08,1.09,.56,.22,1.15,.39,1.67,.71,2.03,1.23,2.42,4.13,4.27,5.63,1.19,.97,2.93,1.19,4.33,.56,.13-.06,.26-.13,.39-.19Z"/><path class="u" d="M325.03,112.7c-.07,.28-.2,.55-.28,.8-.07,.26-.12,.51-.11,.77,0,.25,.08,.49,.2,.71,.13,.22,.31,.42,.57,.55-.3,.01-.61-.14-.81-.38-.21-.23-.33-.56-.34-.87,0-.32,.07-.63,.21-.9,.14-.28,.35-.47,.55-.69Z"/><path class="r" d="M323.67,100.92c.95-.76,1.98-1.47,3.23-1.77,.62-.14,1.31-.24,1.94,.03,.13,.05,.26,.11,.38,.19,.09,.05,.19,.11,.27,.18,.03,.03,.06,.08,.08,.13,.04,.1,.06,.21,.05,.31,0,.1-.02,.2-.07,.28-.04,.05-.12,.11-.18,.08-.03-.01-.05-.03-.07-.05-.04-.02-.08-.04-.12-.05-.1-.03-.21-.06-.31-.08-.09-.02-.18-.04-.27-.06-.51-.08-1.02-.23-1.57-.19-.55,.04-1.11,.18-1.65,.39-.55,.19-1.09,.45-1.64,.7l-.05-.08Z"/><path class="p" d="M307.61,100.08c0,.23,0,.43-.07,.64-.07,.23-.05,.48-.09,.72-.04,.22,0,.45-.09,.66-.07,.17-.1,.3-.12,.48-.03,.19-.05,.39-.09,.58-.15,.81-.35,1.6-.61,2.38-.02,0-.04,.02-.06,.03-1.91,1.06-4.3,1.38-5.8,2.97-.08,.09-.16,.17-.23,.26-.41,.5-.74,1.06-1.1,1.6-2.13,3.18-5.42,5.42-8.89,7.03-3.12,1.44-6.43,2.43-9.69,3.53l-4.98-16.78c4.18-1.23,8.59-1.11,12.89-.92,.15,0,.31,0,.45,.03,.03,0,.06,.01,.09,.01,.09,0,.19-.04,.27-.07,.19-.05,.38-.11,.56-.17,.37-.12,.74-.25,1.1-.39,.72-.29,1.42-.65,2.09-1.05,.67-.4,1.3-.86,1.89-1.37,.17-.14,.33-.28,.48-.44,.12-.12,.23-.25,.36-.35,.09-.08,.18-.15,.27-.23,.34-.33,.61-.74,.92-1.1,.35-.4,.74-.78,1.2-1.06,.68-.41,1.44-.56,2.23-.63,.94-.08,1.92-.02,2.85-.09,.82-.07,1.64-.24,2.41-.51,0,0,0,0,.01,0,.14,.11,.34,.21,.46,.35,.12,.14,.22,.33,.31,.49,.19,.35,.36,.71,.5,1.08,.27,.75,.42,1.53,.44,2.33Z"/></g><g><path class="l" d="M330.38,86.18c-1.06,1.97-2.89,3.53-5.03,4.22-.83,.26-1.69,.41-2.56,.54-.57,.09-1.28,.28-1.42,.94-.03,.17-.06,.35-.09,.52-.06,.34-.04,.75,.27,.97,.2,.14,.44,.11,.65,.21,.08,.03,.15,.06,.22,.11,.13,.09,.24,.23,.3,.38,.07,.17,.07,.36,.02,.53-.02,.08-.06,.15-.09,.22-.11,.27-.41,.44-.62,.64-.62,.62-1.48,.92-2.33,1.11l-.13,.03c-1.19,.24-2.41,.24-3.62,.39-.46,.06-1.01,.18-1.33,.55-.1,.12-.22,.31-.18,.48,.04,.2,.1,.38,.12,.59,.03,.45,0,.94-.27,1.32-.72,1.01-2.28,.53-3.18,.16-1.24-.51-2.36-1.29-3.59-1.82-1.23-.53-2.7-.77-3.89-.16l1.23-.32c-1.19,.32-2.35,.74-3.48,1.24-1.15,.51-2.26,1.12-3.32,1.81-.19,.13-.39,.27-.55,.44-.29,.3-.7,.5-1.05,.72-.61,.38-1.22,.75-1.85,1.09-2.61,1.41-5.46,2.43-8.41,2.8-1.92,.24-3.87,.19-5.77-.17-.97-.18-1.93-.44-2.84-.8-.2-.08-.4-.16-.59-.25-.17-.08-.31-.22-.48-.29-.27-.1-.54-.05-.8-.21-.6-.36-.97-1.06-1.05-1.74-.1-.88,.21-1.76,.65-2.52,.44-.77,1-1.45,1.48-2.2,.76-1.2,1.27-2.53,1.78-3.85,.06-.15,.11-.3,.18-.45,.16-.41,.32-.83,.48-1.24,.26-.66,.51-1.32,.77-1.98l.23-.58c.08-.21,.17-.43,.25-.64,.06-.15,.05-.29,.08-.44,.09-.38,.26-.76,.39-1.13,.15-.39,.3-.78,.46-1.16,.05-.11,.09-.23,.15-.34,.29-.68,.62-1.35,.96-2.01,3.21-6.11,8.5-11.14,14.85-13.88,.25-.11,.5-.21,.74-.31,2.93-1.14,6.07-1.5,9.16-1.17,1.94,.2,3.86,.69,5.69,1.41,.66,.26,1.34,.54,2.03,.84,1.26,.55,2.55,1.15,3.81,1.81,1.23,.63,2.44,1.31,3.59,2.03,.71,.44,1.41,.9,2.07,1.37,1.04,.74,2,1.51,2.85,2.3,.6,.56,1.14,1.13,1.61,1.71,.26,.32,.49,.63,.71,.96,.25,.36,.46,.72,.64,1.09,.15,.29,.28,.59,.38,.88,.37,1.06,.26,2.22-.27,3.21Z"/><path class="g" d="M312.86,91.08c-.73,.35-1.49,.43-2.27,.57-2.86,.5-5.36,2.17-7.81,3.72-.59,.37-1.19,.74-1.8,1.09-1.06,.6-2.17,1.15-3.33,1.53-.57,.19-1.16,.34-1.76,.43-.28,.04-.59,.11-.88,.09-.72-.04,.35-.56,.53-.7,.93-.7,1.77-1.5,2.51-2.39,.37-.45,.69-.93,1.04-1.4,.12-.16,.26-.28,.42-.4,.34-.25,.61-.57,.9-.88,2.4-2.64,4.05-5.95,4.71-9.46l-.14,.33c-1.58,3.39-4.26,5.92-7.04,8.05-3.74,2.86-7.81,5.2-12.16,6.48-3.59,1.06-7.32,1.38-10.91,2.44-.22,.06-.45,.14-.63,.29-.39,.33-.49,.99-.34,1.52,.15,.53,.5,.96,.86,1.33,1.75,1.75,4.1,2.48,6.39,2.93,2.96,.59,6.06,.79,8.92-.27,1.14-.42,2.22-1.03,3.3-1.64,1.81-1.03,3.63-2.07,5.39-3.18,.91-.57,1.8-1.16,2.68-1.77,.42-.3,.84-.6,1.26-.91,.21-.15,.41-.31,.62-.47,.21-.16,.41-.36,.64-.5,.3-.19,.57-.45,.86-.67,.31-.23,.64-.44,.97-.64,1.27-.76,2.64-1.34,3.95-2.02,.68-.35,1.34-.75,1.95-1.21,.32-.24,.63-.5,.92-.78,.09-.09,.17-.18,.27-.25,.22-.16,.38-.4,.53-.62,.17-.25,.33-.51,.46-.79,.07-.14,.13-.27,.19-.41,.04-.1,.08-.31,.15-.38-.39,.39-.85,.71-1.34,.94Z"/><path class="g" d="M274.22,102.48c-.72-.49-.66-1.65-.1-2.31,.56-.67,1.43-.96,2.27-1.21,3.47-1.03,7.04-1.76,10.41-3.06s6.62-3.28,8.66-6.27c-2.68,4.15-6.99,7.16-11.8,8.31-1.4,.33-2.95,.57-3.93,1.62-.35,.38-.61,.83-.94,1.23-.99,1.19-3.3,2.57-4.57,1.7Z"/><path class="t" d="M328.93,80.04c-.13,.17-.28,.32-.42,.47-3,3.17-6.85,5.53-11.04,6.77-3.05,.91-6.3,1.24-9.14,2.66,3.18-2.61,7.29-3.71,11.06-5.34,1.05-.45,2.08-.97,3.06-1.56,1.69-1.03,3.27-2.31,4.4-3.96,.17-.25,.33-.5,.47-.76,.6,.56,1.14,1.13,1.61,1.71Z"/><path class="t" d="M318.8,72.63c-9.84,.35-19.52,4.2-26.91,10.71,3.08-3.81,6.77-7.19,11.09-9.5,1.13-.6,2.3-1.12,3.5-1.56,2.14-.78,4.38-1.27,6.65-1.42,.62-.04,1.24-.06,1.85-.04,1.26,.55,2.55,1.15,3.81,1.81Z"/><path class="g" d="M330.27,82.09c-.14,.22-.26,.4-.33,.49-1.98,2.85-5.04,4.93-8.42,5.71,.23-.05,.51-.29,.71-.41,.24-.15,.47-.29,.7-.44,.47-.31,.93-.63,1.38-.97,1.6-1.21,3.05-2.61,4.33-4.16,.31-.38,.62-.78,.91-1.17,.03-.04,.06-.09,.09-.13,.25,.36,.46,.72,.64,1.09Z"/><path class="g" d="M302.45,78.93c-3.01,4.68-8.03,7.77-13.28,9.63-2.47,.87-5.03,1.52-7.35,2.72-.73,.37-1.43,.81-2.08,1.31-.34,.27-.67,.55-.98,.85,.16-.41,.32-.83,.48-1.24,.26-.66,.51-1.32,.77-1.98,4.3-2.56,9.59-2.87,14.12-5,3.17-1.49,5.87-3.81,8.33-6.29Z"/><path class="t" d="M307.27,68.56c-5.09,.97-9.97,3.04-14.18,6.05-1.1,.78-2.15,1.62-3.08,2.59-1.44,1.5-2.56,3.27-3.93,4.84-.94,1.08-2,2.06-3.15,2.92-.43,.32-.88,.67-1.37,.96,.29-.68,.62-1.35,.96-2.01,3.21-6.11,8.5-11.14,14.85-13.88,.25-.11,.5-.21,.74-.31,2.93-1.14,6.07-1.5,9.16-1.17Z"/><path class="g" d="M324.46,76.03c-.06,.09-.11,.17-.17,.25-1.35,1.88-3.32,3.27-5.48,4.12-2.16,.84-4.5,1.15-6.81,1.11,2.72-.72,5.29-1.99,7.51-3.7,.57-.44,1.12-.91,1.61-1.44,.43-.45,.82-.96,1.15-1.5,.04-.07,.08-.14,.12-.21,.71,.44,1.41,.9,2.07,1.37Z"/></g><path class="d" d="M307.61,100.08c0,.23,0,.43-.07,.64-.07,.23-.05,.48-.09,.72-.04,.22,0,.45-.09,.66-.07,.17-.1,.3-.12,.48-.03,.19-.05,.39-.09,.58-.15,.81-.35,1.6-.61,2.38,0,0,0,.01,0,.02-.37,1.14-.85,2.24-1.44,3.27-.43,.75-1,1.53-1.85,1.68-.64,.11-1.29-.18-1.78-.59-.39-.33-.7-.72-1.01-1.13-.09-.11-.17-.22-.26-.33-.37-.45-.77-.87-1.11-1.34-.96-1.32-1.4-3-1.31-4.64,.09-1.64,.68-3.23,1.59-4.59,.36-.53,.79-1.05,1.27-1.49,.68-.61,1.46-1.07,2.35-1.25,.76-.16,1.56-.06,2.26,.26,.23,.1,.45,.23,.65,.38,0,0,0,0,.01,0,.14,.11,.34,.21,.46,.35,.12,.14,.22,.33,.31,.49,.19,.35,.36,.71,.5,1.08,.27,.75,.42,1.53,.44,2.33Z"/><path class="g" d="M282.04,106.68c1.24,.39,2.64,.56,3.57,1.47,.77,.75,1.06,1.96,.71,2.98-.35,1.02-1.31,1.8-2.38,1.93,1.53,.25,3.19-.05,4.39-1.03s1.84-2.68,1.35-4.15c-.44-1.33-1.68-2.26-2.99-2.76-1.31-.5-2.72-.65-4.09-.94-.67-.14-1.33-.32-2-.44-.52-.1-1.03-.18-1.48,.16-1.06,.81,.41,1.59,1.08,1.97,.58,.33,1.2,.6,1.83,.81Z"/></g><path class="x" d="M254.55,128.64c-.02,1.18-.07,2.37-.16,3.55-.17,2.37-.48,4.72-.93,7.05-.45,2.34-1.04,4.65-1.77,6.91-.51,1.61-1.09,3.19-1.74,4.75-.59-.13-1.16-.33-1.6-.68-.33-.26-.66-.53-.98-.8-.05-.42-.09-.84-.14-1.26-.19-1.72-.37-3.55,.38-5.12,.55-1.15,1.55-2.03,2.26-3.11,1.6-2.47,1.47-5.62,1.9-8.53,.04-.3,.09-.59,.15-.89,.23-1.23,.56-2.44,.91-3.63,.08-.28,.14-1.01,.47-1.13,.26-.09,.52,.19,.66,.36,.63,.74,.6,1.6,.59,2.52Z"/><g><g><path class="f" d="M262.42,176.32c-.02,1.85-.09,3.69-.29,5.52-.24,2.06-.66,4.1-1.26,6.07-.47,1.53-1.08,3.09-2.17,4.22-.09,.1-.19,.19-.29,.28-.4,.36-.85,.65-1.32,.88-1.35,.66-2.89,.84-4.36,.84-.31,0-.56-.05-.84-.15-.68-.24-1.42-.22-2.12-.36-3.45-.69-6.68-2.64-8.9-5.48-.15-.19-.3-.39-.44-.58-.17-.22-.33-.44-.51-.65-.25-.3-.53-.57-.79-.86-.05-.06-.1-.11-.15-.18-.18-.21-.33-.45-.58-.6-.13-.08-.28-.12-.43-.15-.21-.05-.44-.06-.65-.05-.25,.02-1.01,.14-1.11,.44,.72-2.08,.5-4.49-.59-6.39-1.47-2.55-4.35-4.14-5.23-6.96-.41-1.29-.34-2.69-.36-4.05-.11-4.83-1.58-9.51-1.88-14.33-.13-2.07-.04-4.15-.27-6.21-.23-2.06-.79-4.07-1.34-6.06-.55-2-1.1-3.99-1.65-5.99-.25-.9-.52-1.8-.8-2.68-.31-.94-.41-2.02-.59-3-.22-1.24-.43-2.47-.62-3.71-.35-2.34-.65-4.69-.88-7.05-.19-1.95-.35-3.93-.78-5.84-.44-1.91-1.18-3.79-2.42-5.27-.25-.3-.32-.58-.31-.97,.62,.77,1.59,1.19,2.55,1.16,.26,0,.52-.05,.77-.12h.04c.65-.22,1.22-.62,1.83-.93,.72-.35,1.51-.56,2.31-.6,1.28-.07,2.54,.27,3.8,.45,.14,.02,.28,.04,.42,.05,.79,.09,1.6,.08,2.34-.14,.34-.1,.67-.24,.97-.44,.38-.25,.73-.57,1.12-.81-1.57,2.25-1.67,5.29-1.57,8.1,.08,2.21,.25,4.45,.93,6.54,.51,1.57,1.29,3.02,2.05,4.46,2.3,4.33,4.51,8.75,5.66,13.54,.42,1.74,.7,3.52,1.36,5.16,.88,2.16,2.4,3.97,4.23,5.37,.9,.7,1.88,1.29,2.9,1.77,3.07,1.48,6.45,2.07,9.8,2.45-.05,1.33,.27,2.68,.89,3.85,.42,.79,.4,1.8,.52,2.68,.25,1.85,.45,3.71,.62,5.56,.32,3.72,.46,7.46,.42,11.19Z"/><path class="n" d="M262.42,176.32c-.02,1.85-.09,3.69-.29,5.52-.24,2.06-.66,4.1-1.26,6.07-.47,1.53-1.08,3.09-2.17,4.22-4.85,1.82-10.89,.15-14.53-3.84-.28-.3-.56-.64-.67-1.05-.38-1.42,1.29-2.4,2.6-2.99,2.81-1.27,5.34-3.42,6.68-6.28,1.96-4.21,1.12-9.21-.03-13.73-1.12-4.4-2.57-8.87-5.34-12.36-.23-.29-.47-.57-.71-.85-1.59-1.76-3.53-3.17-4.97-5.05-4.1-5.31-3.48-13.07-6.52-19.1-1.87-3.69-5.16-6.91-5.25-11.08-.07-3.12,1.7-5.92,2.58-8.91,.34-.1,.67-.24,.97-.44,.38-.25,.73-.57,1.12-.81-1.57,2.25-1.67,5.29-1.57,8.1,.08,2.21,.25,4.45,.93,6.54,.51,1.57,1.29,3.02,2.05,4.46,2.3,4.33,4.51,8.75,5.66,13.54,.42,1.74,.7,3.52,1.36,5.16,.88,2.16,2.4,3.97,4.23,5.37,.9,.7,1.88,1.29,2.9,1.77,3.07,1.48,6.45,2.07,9.8,2.45-.05,1.33,.27,2.68,.89,3.85,.42,.79,.4,1.8,.52,2.68,.25,1.85,.45,3.71,.62,5.56,.32,3.72,.46,7.46,.42,11.19Z"/><path class="k" d="M239.15,185.96s-.02,.05-.03,.08c-.05-.05-.1-.11-.15-.17-.18-.21-.33-.46-.58-.6-.13-.08-.28-.12-.43-.15-.21-.04-.44-.06-.65-.04-.25,.02-1.01,.14-1.11,.44,.72-2.08,.5-4.49-.59-6.39-1.47-2.55-4.35-4.14-5.23-6.96-.41-1.29-.34-2.69-.36-4.05-.11-4.82-1.58-9.51-1.88-14.33-.13-2.07-.04-4.15-.27-6.21-.23-2.06-.79-4.07-1.34-6.06-.55-1.99-1.1-3.99-1.65-5.99-.25-.9-.52-1.8-.8-2.68-.31-.94-.41-2.02-.59-3-.22-1.23-.43-2.47-.62-3.71-.35-2.34-.65-4.69-.88-7.05-.19-1.96-.35-3.93-.78-5.84-.44-1.91-1.18-3.79-2.42-5.27-.25-.3-.32-.58-.31-.98,.62,.77,1.59,1.19,2.55,1.16,1.64,2.38,2.45,5.37,2.79,8.31,.42,3.59,.24,7.24,.57,10.84,.59,6.2,2.75,12.22,6.22,17.3,.98,1.44,2.07,2.81,2.97,4.31,1.58,2.61,2.56,5.61,2.86,8.68,.03,.34,.05,.71-.11,1-.72,1.27-2.75-.82-3.98-.05-.61,.37-.66,1.3-.39,1.98,.27,.68,.77,1.24,1.06,1.91,.86,1.97-.25,4.26-.06,6.42,.17,1.8,1.23,3.37,2.25,4.83,2.54,3.62,5.23,7.97,3.95,12.24Z"/></g><path class="w" d="M230.04,128.1c.21,2.35,.61,4.68,1.74,6.72,.45,.82,1.01,1.56,1.51,2.35,.14,.22,.25,.47,.42,.66,.13,.15,.24,.26,.35,.43,.3,.48,.59,.96,.89,1.43l1.76,2.83c.31,.5,.63,1.06,.49,1.63-1.02-.38-1.64-1.38-2.3-2.25-.55-.73-1.18-1.4-1.87-2.01-.24-.21-.57-.41-.84-.25,.14,.6,.38,1.19,.69,1.72,.14,.23,.32,.45,.41,.71,.12,.35,.25,.6,.46,.93,2.34,3.68,4.18,7.68,5.45,11.85,.52,1.7,.95,3.46,.88,5.24-.11,3.09-1.68,6.26-.56,9.14,.85,2.18,3,3.51,5.05,4.63,1.95,1.07,4.51,2.05,6.23,.63,1.44-1.19,1.38-3.41,.99-5.24-.12-.53-.25-1.06-.4-1.58-.64-2.26-1.58-4.43-2.67-6.51-.76-1.44-1.59-2.84-2.45-4.23-.35-.56-.71-1.12-1.07-1.68-.28-.43-.67-.73-.93-1.17-.68-1.14-1.31-2.3-1.91-3.48-.58-1.15-1.12-2.32-1.62-3.51-.23-.55-.4-1.2-.73-1.71-.1-.16-.24-.29-.34-.44-.49-.76-.6-1.71-1.04-2.5-.09-.17-.23-.3-.33-.46-.12-.21-.19-.44-.27-.67-.24-.65-.49-1.29-.78-1.91-.55-1.15-1.23-2.23-1.95-3.28-.34-.49-.78-.97-1.03-1.51-.08-.17-.11-.35-.19-.52-.06-.14-.13-.26-.21-.38-.38-.58-.75-1.17-1.09-1.78-.58-1.05-1.07-2.14-1.48-3.26-.21-.56-.39-1.13-.55-1.7-.04-.14-.41-1.7-.42-1.7-.38,.03-.47,.55-.45,.94,.04,.62,.08,1.24,.13,1.86Z"/><path class="w" d="M228.11,113.1c-.34,2.71,.42,5.47,.04,8.17-1.59-.91-1.76-3.09-1.74-4.92,.01-1.01,.03-2.02,.04-3.03,0-.5,0-1.01-.18-1.48-.38-.94-1.39-1.38-2.24-1.78-.89-.42-1.87-.97-2.21-1.95,0-.02-.01-.04-.01-.06,.65-.21,1.22-.61,1.83-.91,.72-.35,1.51-.56,2.31-.6,1.28-.07,2.54,.27,3.8,.45,.14,.02,.28,.04,.42,.05-.1,.28-.23,.56-.35,.83-.77,1.68-1.49,3.4-1.71,5.23Z"/></g><path class="i" d="M262.42,176.32c-.02,1.85-.09,3.69-.29,5.52-.24,2.06-.66,4.1-1.26,6.07-.47,1.53-1.08,3.09-2.17,4.22-.09,.1-.19,.19-.29,.28-.4,.36-.85,.65-1.32,.88-1.35,.66-2.89,.84-4.36,.84-.31,0-.56-.05-.84-.15-.68-.24-1.42-.22-2.12-.36-3.45-.69-6.68-2.64-8.9-5.48-.15-.19-.3-.39-.44-.58,2.02-2.18,3.04-5.08,4.01-7.89,.58-1.68,1.16-3.36,1.65-5.06,.28-.97,.53-1.95,.73-2.94,.84-4.13,.86-8.36,.77-12.58,0-.62-.02-1.25-.04-1.87-.01-.67-.03-1.33-.05-2-.03-1.11-.06-2.22-.09-3.33,0-.06,0-.12,0-.18-.01-.6-.03-1.19-.04-1.78,0-.38-.07-.73-.08-1.1,.9,.7,1.88,1.29,2.9,1.77,3.07,1.48,6.45,2.07,9.8,2.45-.05,1.33,.27,2.68,.89,3.85,.42,.79,.4,1.8,.52,2.68,.25,1.85,.45,3.71,.62,5.56,.32,3.72,.46,7.46,.42,11.19Z"/><g><path class="d" d="M279.92,168.73c-1.04,4.24-1.67,8.58-1.86,12.96-.17,3.84-.49,6.57-.86,8.51-.37,1.94-.67,3.9-.91,5.86-.44,3.59-.68,7.2-.71,10.82-.04,5.58-.36,12.74-1.36,20.59-1.94,15.23-1.56,27.47-1.38,30.98h0c.03,.66,.06,1.01,.06,1.01l-5.01,5.18-.26,.27-4.07,4.21c-.34-.45-.64-.93-.91-1.42-.51-.92-.91-1.9-1.24-2.91-.35-1.07-.63-2.18-.89-3.27-.05-.23-.11-.46-.16-.69-1.19-5.11-2.81-10.32-3.73-15.48-.93-5.15-1.86-10.31-3.1-15.4l-1.62-11.11c-.17-1.59-.29-3.19-.36-4.79-.14-3.19-.1-6.38-.03-9.57,.13-5.07,.38-10.14,.27-15.21-.06-2.52-.2-5.04-.49-7.54-.07-.55-.13-1.08-.13-1.62-.02-1.24-.44-2.57-.64-3.8-.26-1.59-.5-3.18-.71-4.77-.9-6.64-1.42-13.33-1.57-20.03,0-.46-.02-.93-.01-1.4,0-.2,0-.39,0-.59,0-.1,0-.21,0-.31,0-.17,0-.35,.02-.52,.01-.23,.03-.45,.05-.68,.02-.21,.04-.42,.07-.63,.02-.14,.04-.27,.06-.41,.03-.19,.06-.38,.1-.56,.03-.14,.06-.28,.09-.42,.03-.12,.06-.23,.09-.35,.1-.34,.21-.68,.35-1.01,.53-1.32,1.38-2.5,2-3.79,.07-.15,.14-.29,.2-.44,.07-.15,.13-.29,.18-.44,.12-.29,.22-.59,.32-.89,.05-.15,.09-.3,.14-.45s.09-.3,.12-.45c.05-.19,.1-.39,.14-.58,.13-.58,.23-1.16,.32-1.75,.02-.16,.04-.31,.06-.47,.02-.16,.04-.32,.06-.47,.02-.16,.04-.32,.05-.48,.02-.16,.03-.32,.05-.48,.25-2.72,.3-5.5,.89-8.15,.04-.19,.09-.38,.14-.57,.09-.33,.18-.65,.29-.97,0-.02,.01-.05,.02-.08,1.95-5.92,7.25-10.46,13.32-12.03,2.3-.6,4.51-.54,6.48-.17,.88,.16,1.71,.39,2.48,.64,2.38,.8,4.41,2.34,5.8,4.36,.28,.41,.54,.83,.77,1.27,.35,.69,.64,1.41,.85,2.17,.57,2.04,.95,4.33,1.15,6.77,1.18,13.53-2.62,31.86-4.97,41.55Z"/><path class="p" d="M303.11,270.06c-.01,.16-.02,.32-.06,.47-.19,.77-1.16,1-1.95,1.05-8.06,.5-16.12-1.78-24.18-1.23-3.53,.24-7.02,1.03-10.55,.96-1.09-.02-2.28-.17-3.01-.97-.63-.7-.73-1.64-.74-2.62-.51-.92-.91-1.9-1.24-2.91-.35-1.07-.63-2.18-.89-3.27-.05-.23-.11-.46-.16-.69-1.19-5.11-2.81-10.32-3.73-15.48-.93-5.15-1.86-10.31-3.1-15.4l-1.62-11.11c-.17-1.59-.29-3.19-.36-4.79-.14-3.19-.1-6.38-.03-9.57,.13-5.07,.38-10.14,.27-15.21-.06-2.52-.2-5.04-.49-7.54-.07-.55-.13-1.08-.13-1.62-.02-1.24-.44-2.57-.64-3.8-.26-1.59-.5-3.18-.71-4.77-.9-6.64-1.42-13.33-1.57-20.03,0-.46-.02-.93-.01-1.4,0-.2,0-.39,0-.59,0-.1,0-.21,0-.31,0-.17,0-.35,.02-.52,.01-.23,.03-.45,.05-.68,.02-.21,.04-.42,.07-.63,.02-.14,.04-.27,.06-.41,.03-.19,.07-.38,.1-.56,.03-.14,.06-.28,.09-.42,.03-.12,.06-.23,.09-.35,.1-.34,.21-.68,.35-1.01,.53-1.32,1.38-2.5,2-3.79,.07-.15,.14-.29,.2-.44,.07-.15,.13-.29,.18-.44,.12-.29,.22-.59,.32-.89,.05-.15,.09-.3,.14-.45,.05-.15,.09-.3,.12-.45,.05-.19,.1-.39,.14-.58,.13-.57,.23-1.16,.32-1.75,.02-.16,.04-.32,.06-.47,.02-.16,.04-.32,.06-.47,.02-.16,.04-.32,.05-.48,.02-.16,.03-.32,.05-.48,.25-2.72,.3-5.5,.89-8.15,.04-.19,.09-.38,.14-.57,.09-.33,.18-.65,.29-.97,0-.02,.01-.05,.02-.08,.08,0,.17-.01,.26,0,.9,.08,1.4,1.07,1.67,1.93,.72,2.3,1.1,4.64,1.25,7.01,.38,5.96-.65,12.1-1.18,18.22-.2,2.28-.32,4.56-.28,6.82,.02,1.32,.28,2.9,1.48,3.44,1.89,.85,4.31-1.68,5.95-.42,.81,.62,.84,1.82,.79,2.85-.25,5.52-.5,11.04-.74,16.57-.07,1.47-.14,2.96-.61,4.35-.5,1.46-1.41,2.74-2.04,4.16-2.56,5.71-.18,12.26,.95,18.42,3.03,16.52-3.21,34.43,3.18,49.97,.04,.11,.09,.21,.14,.32,.4,.96,.83,1.91,1.24,2.86,.25,.57,.47,1.15,.73,1.71,.08,.17,.1,.35,.13,.54,.05,.05,.09,.11,.11,.18,.11,.32,.22,.64,.32,.97,.14,.21,.3,.4,.49,.57,.21,.19,.44,.36,.69,.5,.98,.55,2.14,.7,3.27,.8,2.39,.22,4.78,.34,7.17,.35,1.15,0,2.3,0,3.41,.29,1.27,.35,2.38,1.09,3.55,1.68,3.35,1.67,7.18,2.02,10.91,2.35,1.18,.1,2.39,.21,3.56,.02,.9-.14,1.77-.44,2.67-.58Z"/><path class="v" d="M279.91,168.73c-1.04,4.24-1.67,8.58-1.86,12.96-.17,3.84-.49,6.57-.86,8.51-.37,1.94-.67,3.9-.91,5.86-.47-2.63-.95-5.25-1.43-7.88-.7-3.86-1.41-7.79-.92-11.69,.26-2.04,.83-4.04,1.09-6.08,.75-5.83-1.05-12.05,1.18-17.49,.51-1.24,1.22-2.4,1.63-3.69,.51-1.59,.53-3.29,.46-4.95-.12-2.71-.5-5.39-1.13-8.03-.16-.66-.33-1.32-.52-1.98-.81-2.82-1.91-5.58-2.16-8.49-.19-2.33,.27-4.86,1.66-6.68,.34-.46,.75-.88,1.21-1.23,1.29-.99,3.15-1.33,4.76-.9,.28,.41,.54,.83,.77,1.27,.35,.69,.64,1.41,.85,2.17,.57,2.04,.95,4.33,1.15,6.77,1.18,13.53-2.62,31.86-4.97,41.55Z"/></g><path class="v" d="M284.88,127.19c-.44,.23-.89,.42-1.35,.58-.64,.22-1.31,.38-1.98,.47-.85,.13-1.71,.16-2.56,.09-1.01-.09-2.3-.22-3.02-1.05-.56-.65-.59-1.59-.56-2.41,.05-1.41,.29-2.81,.52-4.2,.09-.52,.17-1.04,.23-1.57,.15-1.23,.17-2.47-.16-3.67-.37-1.36-1.15-2.51-2.15-3.46-1.59-1.51-3.76-2.54-5.89-3.16-3.48-1.02-7.22-1.37-10.39-3.15-.68-.38-1.36-.86-1.72-1.55-.06-.12-.11-.24-.16-.36,1.93,.2,3.86,.34,5.8,.23,.2,0,.41-.02,.61-.04,3.42-.27,6.79-1.17,10.23-1.11,2.1,.04,3.55,.26,5.53,1.03,1.52,.59,2.94,1.63,3.64,3.11,.55,1.15,1.58,2.75,1.5,4.58-.05,1.32,.1,1.96,.07,3.29-.03,1.14-.09,2.27-.17,3.4,.35,.69,.64,1.41,.85,2.17,.57,2.04,.95,4.33,1.15,6.77Z"/></g><path class="o" d="M218.79,107.82l-.1-.32s.09,.09,.13,.13c0,.06-.01,.12-.02,.18Z"/><g><g><g><path class="f" d="M166.4,254.33c-.1,.69-.3,1.37-.38,2.06-.07,.56-.05,1.03-.31,1.56-.08,.16-.17,.32-.26,.47-.26,.41-.58,.78-.93,1.12-.49,.47-1.04,.88-1.62,1.23-.79,.48-1.65,.87-2.52,1.19-1.17,.43-2.38,.75-3.6,.99-.13,.03-.26,.05-.4,.08-1.49,.28-2.98,.45-4.49,.57-2.12,.16-4.24,.19-6.36,.14-2.68-.06-5.36-.25-8.03-.52-1.49-.15-2.97-.32-4.45-.52-1.63-.21-3.26-.53-4.89-.72-9.14-1.07-18.29-2.15-27.43-3.23-12.05-1.42-24.34-2.83-36.25-.49-.18-1.33-.3-2.66-.37-4-.11-1.99-.11-4-.01-5.98,.13-2.49,.42-5.04,1.27-7.4,.23-.65,.52-1.29,.88-1.9,.42-.72,.93-1.38,1.57-1.9,.51-.42,1.34-.16,1.93-.1,.9,.09,1.81,.17,2.72,.25,1.81,.15,3.63,.27,5.45,.31,2.21,.05,4.43-.02,6.63-.27,7.3-.84,14.2-3.71,21.37-5.31,7.43-1.66,15.16-1.88,22.69-.77,1.19,.18,2.37,.39,3.54,.63,1.83,.37,3.63,.83,5.42,1.37,5.6,1.68,10.97,4.14,15.88,7.32,2.53,1.64,4.95,3.48,7.72,4.67,1.23,.53,2.53,.94,3.54,1.82,2.08,1.82,2.1,4.83,1.72,7.35Z"/><path class="k" d="M147.05,255.86c-.15,.19-.41,.24-.64,.26-2.57,.26-5.24-.71-7.04-2.57-3.4-3.52-3.24-9.17-5.78-13.35-.59-.96-1.32-1.85-1.63-2.93-.29-1.01-.19-2.09-.09-3.13,.03-.3,.06-.61,.09-.91,.05-.48,.1-.95,.17-1.43,1.83,.37,3.63,.83,5.42,1.37,.43,1.5,.9,2.98,1.42,4.44,.86,2.42,1.83,4.8,2.91,7.13,1.08,2.32,2.28,4.6,3.58,6.81,.67,1.15,1.39,2.3,1.66,3.6,.05,.24,.08,.52-.08,.71Z"/><path class="f" d="M175.58,189.33c-.08,1.62-.16,3.23-.24,4.85-.68,13.04-1.59,26.07-2.73,39.07-.46,5.23-.96,10.49-2.31,15.56-.56,2.11-1.28,4.2-2.29,6.13-.5,.95-1.06,1.87-1.73,2.71-.15,.18-.31,.31-.48,.47-.19,.17-.35,.35-.51,.54-.07,.08-.13,.16-.19,.24-.07,.09-.15,.18-.23,.26-.59,.63-1.28,1.18-2.02,1.63-.12,.08-.25,.15-.38,.21-1.15,.62-2.43,.99-3.73,1.05-1.17,.05-2.34-.13-3.47-.42-3.67-.92-6.97-2.9-9.76-5.48-1.85-1.7-3.47-3.67-4.84-5.76-1.57-2.41-2.84-5-3.91-7.66-.93-2.3-1.71-4.67-2.42-7.06-.17-.6-.35-1.19-.52-1.79-.17-.6-.28-1.21-.39-1.82h0c-.09-.56-.18-1.12-.3-1.68-.41-1.92-.86-3.83-1.33-5.73-1.11-4.46-2.37-8.88-3.62-13.31-.7-2.45-1.39-4.9-2.09-7.35-2.74-9.66-5.5-19.49-6.89-29.41-.91-6.54-1.23-13.11-.54-19.7l32.38,19.58,22.88,13.83,1.67,1.01Z"/><path class="k" d="M137.03,182.79c-1.54,3.19-2.02,6.91-1.32,10.4,.89,4.38,3.48,8.35,3.88,12.8,.28,3.13-.55,6.27-.36,9.41,.12,2.01,.66,3.98,1.19,5.92,.74,2.68,1.48,5.37,2.21,8.05,.6,2.17,1.21,4.37,2.07,6.44,.65,1.56,1.45,3.05,2.49,4.39,.3,.39,.64,.85,.5,1.32-.08,.29-.34,.49-.58,.67-1.61,1.11-3.82,1.56-5.56,.67-.26-.14-.51-.3-.74-.48-1.38-1.09-2.1-2.92-2.74-4.61-.64-1.68-1.3-3.36-2.03-5.01h0c-1.22-2.8-2.6-5.52-4.27-8.06-1.11-4.46-2.37-8.88-3.62-13.31-.7-2.45-1.39-4.9-2.09-7.35-2.74-9.66-5.5-19.49-6.89-29.41-.91-6.54-1.23-13.11-.54-19.7l32.38,19.58c-2.34-.14-4.71,.32-6.85,1.28-1.51,.68-2.92,1.62-4.11,2.78-1.25,1.22-2.27,2.66-3.03,4.24Z"/><path class="w" d="M175.58,189.33c-.08,1.62-.16,3.23-.24,4.85-.68,13.04-1.59,26.07-2.73,39.07-.46,5.23-.96,10.49-2.31,15.56-.56,2.11-1.28,4.2-2.29,6.13-.5,.95-1.06,1.87-1.73,2.71-.15,.18-.31,.31-.48,.47-.19,.17-.35,.35-.51,.54-.07,.08-.13,.16-.19,.24-.64-.62-1.06-1.43-1.02-2.33,.03-.97,.55-1.85,1.04-2.69,.52-.88,1.02-1.77,1.45-2.7,.28-.59,.53-1.2,.75-1.82,.69-2.03,.91-4.19,1.13-6.33,.82-8.06,1.63-16.17,1.11-24.25-.15-2.33-.41-4.66-.27-6.99,.34-5.78,3.1-11.13,4.11-16.83,0-.06,.02-.11,.03-.17,.36-2.14,.49-4.31,.5-6.49l1.67,1.01Z"/><path class="w" d="M128.59,231.17s-.05,.02-.08,.03c-1.74,.68-3.67,.56-5.53,.58-3.79,.03-7.6,.67-11.11,2.11-1.56,.64-3.07,1.45-4.72,1.79-1.23,.25-2.48,.24-3.73,.31-3.71,.22-7.36,1.26-10.64,3.01-.91,.49-1.82,1.05-2.85,1.19-1,.14-2.05-.11-3,.2-.45,.15-.85,.42-1.3,.55-1.37,.41-2.74-.47-4.11-.89-1.61-.49-3.41-.32-4.9,.47-.85,.45-1.62,1.1-2.55,1.35-.93,.25-2.15-.11-2.38-1.05-.12-.48,.03-1.05-.28-1.44-.27-.34-.77-.37-1.21-.38-1.32,0-2.64-.03-3.96-.04,.42-.72,.93-1.38,1.57-1.9,.51-.42,1.34-.16,1.93-.1,.9,.09,1.81,.17,2.72,.25,1.81,.15,3.63,.27,5.45,.31,2.21,.05,4.43-.02,6.63-.27,7.3-.84,14.2-3.71,21.37-5.31,7.43-1.66,15.16-1.88,22.69-.77Z"/><path class="k" d="M156.37,263.03c-1.49,.28-2.98,.45-4.49,.57-2.12,.16-4.24,.19-6.36,.14-2.68-.06-5.36-.25-8.03-.52-1.49-.15-2.97-.32-4.45-.52-1.63-.21-3.26-.53-4.89-.72-9.14-1.07-18.29-2.15-27.43-3.23-12.05-1.42-24.34-2.83-36.25-.49-.18-1.33-.3-2.66-.37-4,.86,.2,1.78,.12,2.56-.3,.75-.41,1.39-1.08,2.23-1.2,.94-.12,1.8,.49,2.7,.8,2.33,.78,4.79-.53,7.24-.79,1.67-.17,3.34,.17,5.02,.14,1.84-.02,3.65-.48,5.45-.88,9.78-2.18,20.3-2.66,29.56,1.16,2.47,1.02,4.82,2.34,7.35,3.2,2.47,.84,5.06,1.23,7.63,1.65,6.88,1.13,13.72,2.51,20.49,4.13,.7,.17,1.41,.35,1.97,.8,.02,.02,.05,.04,.07,.06Z"/></g><path class="i" d="M175.58,189.33c-.08,1.62-.16,3.23-.24,4.85-.63,.25-1.27,.45-1.93,.62-3.3,.88-6.87,.95-10.25,.4-5.6-.89-10.84-3.29-15.94-5.75-2.63-1.27-5.26-2.57-7.56-4.36-.92-.71-1.78-1.5-2.63-2.3-2.53-2.4-4.91-5-8.08-6.39-2.99-1.31-6.45-1.44-9.77-1.79-.91-6.54-1.23-13.11-.54-19.7l32.38,19.58,22.88,13.83,1.67,1.01Z"/></g><path class="h" d="M196.49,111.22s1.67-1.62,6.04-.68c4.38,.94,2.91,62.27,2.91,62.27l-8.95-61.6Z"/><g><path class="f" d="M210.35,187.37c-.07,0-.17,.08-.24,.1-.28,.12-.58,.24-.87,.35-1.04,.38-2.1,.71-3.18,.98-3.4,.88-6.96,1.24-10.46,.92-1.1-.1-2.26-.25-3.36-.52-1.25-.31-3.26-.22-4.45,.27-.03,.01-.07,.03-.1,.04-1.68,.72-3.23,1.71-4.87,2.51-9.2,2.76-22.11-2.46-22.75-2.72-.01,0-.02,0-.02,0l-17.24-8.48c-4.25-2.66-8.6-5.15-13.1-7.37-4.57-2.26-8.92-4.93-13.12-7.82-4.45-3.06-6.74-2.91-10.68-4.87-4.06-2.03-7.64-4.88-11.36-7.48-4.01-2.81-8.22-5.33-12.45-7.78-4.24-2.46-8.53-4.84-12.85-7.16-4.69-2.52-9.43-4.96-14.21-7.32-1.19-.59-2.39-1.18-3.59-1.76-1.16-.57-2.4-1.06-3.52-1.71-.71-.42-1.23-1.07-1.92-1.53-2.07-1.36-3.83-2.93-5.3-4.95-1.54-2.12-2.71-4.5-3.58-6.97-1.88-5.32-2.54-11-4.01-16.45-1.74-6.43-4.62-12.55-5.84-19.1-1.08-5.79-.84-11.78-2.11-17.54-1.61-7.27-7.46-13.43-8.09-20.85-.32-1.06-.27-2.07,.08-3,1.98-5.34,13.66-8.01,19.15-2.82,1.28,6.89,4.3,13.28,8.11,19.2,1.43,2.22,2.97,4.38,4.58,6.47,4.13,5.37,8.83,10.6,10.71,17.11,.86,2.97,1.1,6.07,1.42,9.14,.31,3.06,.69,6.17,1.87,9.03,.24,.58,.48,1.37,.96,1.81,.15,.14,.34,.22,.53,.31,.61,.28,1.15,.68,1.75,1,6.65,3.6,14.65,2.61,21.89,2.18,6.16-.36,12.33-.29,18.48,.21,4.83,.39,9.68,1.06,14.5,.59,4.18-.41,8.25-1.66,12.35-2.67,6.59-1.64,13.3-2.67,20.05-3.09,.3-.02,.59-.04,.89-.05,3.8-.21,7.67-.21,11.34,.89,2.86,.86,5.52,2.38,8.39,3.21,1.58,.45,3.19,.7,4.81,.93,1.16,.17,2.32,.33,3.46,.56,4.55,.92,9.04,2.89,12.76,5.91,1.44,1.17,2.76,2.5,3.93,4,5.44,6.99,7.22,33.48,7.34,52.27,.01,1.97,0,3.85-.01,5.62-.21,18.24,3.79,18.41,3.97,18.41Z"/><path class="k" d="M210.35,187.37c-.07,0-.17,.08-.24,.1-.28,.12-.58,.24-.87,.35-1.04,.38-2.1,.71-3.18,.98-3.4,.88-6.96,1.24-10.46,.92-1.1-.1-2.26-.25-3.36-.52-1.25-.31-3.26-.22-4.45,.27-.03,.01-.07,.03-.1,.04-1.68,.72-3.23,1.71-4.87,2.51-9.2,2.76-22.11-2.46-22.75-2.72-.01,0-.02,0-.02,0l-17.24-8.48c-4.25-2.66-8.6-5.15-13.1-7.37-4.57-2.26-8.92-4.93-13.12-7.82-4.45-3.06-6.74-2.91-10.68-4.87-4.06-2.03-7.64-4.88-11.36-7.48-4.01-2.81-8.22-5.33-12.45-7.78-4.24-2.46-8.53-4.84-12.85-7.16-4.69-2.52-9.43-4.96-14.21-7.32-1.19-.59-2.39-1.18-3.59-1.76-1.16-.57-2.4-1.06-3.52-1.71-.71-.42-1.23-1.07-1.92-1.53-2.07-1.36-3.83-2.93-5.3-4.95-1.54-2.12-2.71-4.5-3.58-6.97-1.88-5.32-2.54-11-4.01-16.45-1.74-6.43-4.62-12.55-5.84-19.1-1.08-5.79-.84-11.78-2.11-17.54-1.61-7.27-7.46-13.43-8.09-20.85-.32-1.06-.27-2.07,.08-3,1.24-.47,2.71-.52,3.95-.04,2.67,1.04,4.4,3.58,5.95,5.99,3.34,5.16,6.68,10.33,9.38,15.85,6.16,12.56,8.83,26.81,7.66,40.74-.34,4.04-1,8.12-.38,12.13,.61,4.01,2.8,8.06,6.54,9.63,5.19,2.17,11.18-1.07,16.7-.02,4.59,.88,8.06,4.51,11.67,7.48,8.57,7.05,19.6,11.05,30.7,11.17,12.98,.13,25.51-4.86,38.47-5.66,6.41-.4,14.31,1.32,16.17,7.46,1.23,4.05-.77,8.27-2.36,12.19-1.59,3.92-2.68,8.78-.03,12.08,2.96,3.69,8.94,3.09,12.92,.54,3.98-2.56,6.84-6.53,10.64-9.35,1.92-1.43,4.08-2.57,5.66-4.36,3.39-3.84,4.43-10.72,9.51-11.39-1.65,4.88-1.24,10.43,1.13,15.01,1.28,2.49,3.07,4.64,4.96,6.73,.01,1.97,0,3.85-.01,5.62-.21,18.24,3.79,18.41,3.97,18.41Z"/><path class="w" d="M194.94,113.86c-.19,2.24-.42,4.52-1.28,6.61-.86,2.08-2.47,3.96-4.63,4.61-1.28,.39-2.68,.33-3.89,.89-2.84,1.31-3.36,5.26-5.83,7.18-1,.78-2.65,1.08-3.43,.08-.36-.46-.44-1.08-.44-1.66-.04-3.29,1.76-6.59,.85-9.76-.45-1.57-1.54-2.88-2.18-4.38-.65-1.5-.74-3.49,.52-4.54,1.08-.89,2.77-.77,3.8-1.72,1.01-.94,1-2.52,.91-3.89-.15-2.22-.29-4.45-.44-6.68,1.16,.17,2.32,.33,3.46,.56,4.55,.92,9.04,2.89,12.76,5.91,.17,2.25,0,4.53-.18,6.79Z"/><path class="w" d="M166.3,103.98c-5.48-.66-11.01-.88-16.52-.65-2.87,.12-5.78,.36-8.48,1.33-2.16,.77-4.14,1.99-6.31,2.75-3.43,1.2-7.14,1.19-10.77,1.16-6.16-.04-12.43-.09-18.29-1.95-2.51-.8-4.93-1.92-7.49-2.52-3.7-.88-7.57-.67-11.36-.44-5.35,.31-10.79,.64-15.8,2.53-1.56,.59-3.26,1.33-4.83,.76-2.36-.86-3.26-4.32-5.75-4.58-1.93-.2-4.11,1.68-5.59,.43-1.36-1.16-.22-3.3,.53-4.93,1.58-3.45,.84-7.46,.06-11.18-1.4-6.69-2.8-13.43-5.41-19.75-1.85-4.49-4.32-8.85-5.88-13.41,1.43,2.22,2.97,4.38,4.58,6.47,4.13,5.37,8.83,10.6,10.71,17.11,.86,2.97,1.1,6.07,1.42,9.14,.31,3.06,.69,6.17,1.87,9.03,.24,.58,.48,1.37,.96,1.81,.15,.14,.34,.22,.53,.31,.61,.28,1.15,.68,1.75,1,6.65,3.6,14.65,2.61,21.89,2.18,6.16-.36,12.33-.29,18.48,.21,4.83,.39,9.68,1.06,14.5,.59,4.18-.41,8.25-1.66,12.35-2.67,6.59-1.64,13.3-2.67,20.05-3.09,2.01,1.99,4.17,3.7,6.89,4.21,1.41,.27,2.9,.18,4.22,.74,1.32,.56,2.38,2.15,1.71,3.41Z"/></g></g></g></g></g></g></g></svg>