<?xml version="1.0" encoding="UTF-8"?><svg xmlns="http://www.w3.org/2000/svg" viewBox="0 0 355.63 395.02"><defs><style>.d{fill:#564237;}.e{isolation:isolate;}.f{fill:#deb994;}.g{fill:#5e4537;}.h{fill:#534438;}.i{fill:#3b2f28;}.j{fill:#ebc9ab;}.k{fill:#705241;}.l{mix-blend-mode:multiply;opacity:.5;}.m{fill:#fdd8b8;}.n{fill:#4f3a2e;}.o{fill:#29201c;}.p{fill:#664d3e;}.q{fill:#8d6852;}</style></defs><g class="e"><g id="a"/><g id="b"><g id="c"><g><g><path class="j" d="M166.24,389.95c.01,.64-.38,1.22-.82,1.68-1.98,2.1-5,2.86-7.87,3.17-10.3,1.1-20.53-2.33-30.87-2.58-3.46-.09-6.93,.18-10.36,.57-2.64,.3-5.6,.58-7.7-1.05-2.1-1.63-3.62-4.95-3.68-7.72,0-.23,0-.45,0-.67,.15-2.25,.49-4.48,.87-6.71,.36-2.17,.77-4.33,1.03-6.52,.91-7.45,.3-15.08-1.78-22.3l5.83-.13,5.23-.12,8.13-.18c-.19,7.81,1.33,15.67,4.44,22.85,.48,1.12,1.02,2.23,1.67,3.26,.53,.84,1.15,1.63,1.88,2.31,1.42,1.33,3.21,2.18,4.98,2.98,5.9,2.69,11.92,5.08,17.95,7.47,2.12,.84,4.3,1.7,6.58,1.72,.91,0,1.84-.12,2.73,.11,.65,.17,1.29,.59,1.59,1.17,.1,.2,.17,.43,.17,.67Z"/><path class="f" d="M130.36,373.51c-2.12-.75-4.06-2-5.6-3.64-5.5-5.86-5.15-15.13-8.63-22.29l8.13-.19c-.2,7.82,1.33,15.67,4.44,22.85,.48,1.12,1.02,2.23,1.67,3.27Z"/><path class="f" d="M166.24,389.95c.02,.64-.38,1.21-.82,1.68-1.98,2.11-5,2.86-7.87,3.17-10.29,1.1-20.53-2.33-30.87-2.58-3.46-.09-6.93,.19-10.37,.57-2.64,.3-5.59,.58-7.7-1.05-2.11-1.63-3.62-4.95-3.69-7.72,.59,1.02,1.41,1.94,2.35,2.63,4.16,3.07,9.81,3.01,14.94,2.41,5.14-.59,10.47-1.57,15.37,.08,1.78,.6,3.42,1.53,5.19,2.16,2.12,.76,4.38,1.09,6.62,1.25,5.17,.37,10.53-.15,15.15-2.48,.51-.25,1.01-.53,1.51-.8,.1,.21,.16,.43,.17,.67Z"/><path class="m" d="M109.74,371.63c-.97,1.93-2.35,3.57-3.94,5.02,.36-2.17,.77-4.33,1.03-6.52,.91-7.45,.3-15.08-1.78-22.3l5.83-.13-.04,2.98c.39,3.25,.72,6.51,.8,9.78,.09,3.82-.18,7.77-1.91,11.18Z"/></g><g><g><g><g><path class="j" d="M191.58,148.84c-.02,2.16-1.49,3.99-2.97,5.55-.55,.58-1.12,1.15-1.7,1.7-2.72,2.63-5.71,4.97-8.92,6.99-1.49,.94-3.04,1.81-4.42,2.91-1.39,1.1-2.59,2.42-3.85,3.67-4.37,4.36-9.44,7.99-14.94,10.75-.28,.14-.57,.27-.88,.25-.3-.03-.56-.22-.8-.39-2.81-2.08-5.68-4.21-7.75-7.03-.23-.31-.44-.62-.65-.94-1.66-2.59-2.69-5.57-3.5-8.56-3.42-12.72-3.21-26.3-7.48-38.76l.25,.37c2.08-.63,4.19-1.16,6.31-1.58,1.18-.24,2.37-.44,3.56-.61,1.46-.21,2.97-.21,4.42-.48,.8-.15,1.54-.46,2.37-.54,2.44-.23,4.96,.04,7.35,.53,3.77,.79,7.35,2.23,10.78,3.99,1.06,.54,2.11,1.12,3.14,1.71,1.36,.78,2.7,1.6,4.02,2.44,6.06,3.86,12.19,8.43,14.96,15.09,.39,.94,.71,1.93,.7,2.94Z"/><path class="m" d="M169.45,138.56c-.93,1.03-2.14,1.74-3.34,2.44-3.87,2.26-7.74,4.52-11.62,6.77-1.35,.79-2.81,1.6-4.37,1.46-2.5-.23-4.08-2.77-4.9-5.15-2.27-6.61-1.74-14.21-4.93-20.33,1.18-.24,2.37-.44,3.56-.61,1.46-.21,2.97-.21,4.42-.48,.8-.15,1.54-.46,2.37-.54,2.44-.23,4.96,.04,7.35,.53,3.77,.79,7.35,2.23,10.78,3.99,.7,.88,1.3,1.84,1.75,2.89,1.25,2.94,1.09,6.64-1.05,9.01Z"/><path class="f" d="M186.91,156.1c-2.72,2.63-5.71,4.97-8.92,6.99-1.49,.94-3.04,1.81-4.42,2.91-1.39,1.1-2.59,2.42-3.85,3.67-4.37,4.36-9.44,7.99-14.94,10.75-.28,.14-.57,.27-.88,.25-.3-.03-.56-.22-.8-.39-2.81-2.08-5.68-4.21-7.75-7.03-.23-.31-.44-.62-.65-.94,2.41-1.56,4.57-3.49,6.38-5.71,2.43-2.98,4.37-6.58,7.75-8.41,4.62-2.49,10.26-.86,15.51-1,2.89-.08,5.78-.74,8.42-1.92,1.28-.57,3.07-1.14,3.86,.02,.16,.25,.24,.53,.28,.83Z"/></g><g><path class="j" d="M214.14,119.41h0c-.17,1.82-.53,3.46-1.1,4.89-1.11,2.76-3,4.7-5.82,5.45-2.47,.66-5.44,.63-8.69,.11-4.82-.78-10.28-2.64-15.68-4.95-2.97-1.27-5.91-2.67-8.72-4.11-3.49-1.77-6.78-3.59-9.64-5.25-6.25-3.61-10.5-6.47-10.5-6.47,.31-1.44,.62-2.89,.91-4.31,0,0,0,0,0-.01,1.58-7.69,2.69-14.94,1.4-18.12-.19-.45-.38-.85-.59-1.2-1.24-2.1-2.68-2.2-2.73-2.2-20.65,2.74-44.91-4.99-51.38-7.24-1.11-.39-2.28-.62-3.45-.69-22.62-1.34-37.12-7.57-41.85-9.42-.23-.09-.47-.18-.74-.26-.09-.03-.17-.06-.27-.09-.46-.15-.96-.3-1.5-.45-.11-.03-.22-.06-.33-.09-.11-.03-.22-.06-.34-.09-.34-.09-.69-.18-1.05-.26-.22-.05-.44-.1-.66-.16-.15-.04-.29-.07-.44-.1-.25-.06-.5-.11-.75-.17-1.14-.26-2.32-.5-3.48-.73-.13-.03-.26-.05-.39-.08-.67-.13-1.33-.26-1.98-.38-.22-.04-.43-.08-.64-.12-.16-.03-.32-.06-.48-.09-.08,0-.15-.02-.22-.04-.31-.06-.61-.11-.89-.16-.07,0-.13-.02-.2-.03-.18-.03-.37-.07-.54-.09-.12-.02-.24-.04-.36-.06-.64-.11-1.21-.2-1.68-.28-.17-.03-.33-.05-.47-.08-.11-.02-.21-.04-.31-.05-.05,0-.1-.02-.15-.03-.04,0-.08,0-.12-.02-.04,0-.08,0-.11-.01-.03,0-.07,0-.09-.01-.21-.03-.32-.05-.32-.05-.33-.77-.14-2.15,.27-3.64,.62-2.28,1.73-4.82,2.2-5.85,.13-.3,.21-.46,.21-.46,1.41,.31,3.33,.64,5.42,.97,1.39,.22,2.85,.44,4.3,.64,5.44,.77,10.67,1.4,10.67,1.4,37.09,1.26,38.71,6.28,44.87,6.87,6.16,.6,29.43,.75,29.43,.75,26.87-6.23,40.64,2.71,40.64,2.71,.2,0,.41-.02,.61-.02,4.29-.15,7.38,.29,9.57,.89l.41,.12c.38,.11,.72,.23,1.04,.35,2.51,.94,3.33,2.02,3.33,2.02,1.26,.96,2.49,2.06,3.69,3.26,1.14,1.14,2.27,2.37,3.35,3.69,1.39,1.68,2.72,3.49,3.98,5.4,4.39,6.62,7.97,14.38,10.15,21.74,1.05,3.53,1.77,6.98,2.11,10.17,.25,2.34,.3,4.53,.1,6.53Z"/><g><g><g><path class="j" d="M354.32,89.32c-1.19,.38-2.49,.31-3.74,.2-.65-.06-1.29-.13-1.93-.22-.19-.02-.38-.05-.56-.07-1.91-.26-3.81-.59-5.71-.96-1.03-.2-2.07-.44-3.11-.63-.33-.05-.62,0-.95,.02-.31,.03-.64,0-.96,0-.35,0-.65-.12-1.01-.02-.29,.07-.59,.31-.54,.6,.04,.27,.35,.42,.61,.51,.68,.24,1.35,.48,2.03,.71,.29,.11,.61,.23,.72,.52,.11,.27-.04,.6-.29,.77-.28,.18-.58,.12-.87,.22-.48,.15-1,.21-1.5,.26-.83,.09-1.67,.1-2.51,.05-.17,0-.35-.02-.53-.04-3.36-.24-6.62-1.22-9.96-1.65-8.52-1.09-17.01,1.51-25.52,2.7-6.73,.94-13.55,1-20.34,1.25-11.77,.44-23.52,1.46-35.18,3.07-3.49,.48-7,1.02-10.26,2.32-2.63,1.05-5.05,2.59-7.73,3.53-3.56,1.26-7.52,1.42-11.17,.46-.36-.09-.72-.2-1.08-.31l-.89,.32c-5.8-2.94-10.32-8.7-10.55-15.09-.09-2.53-1.57-4.65,.38-6.33,2.55-2.18,5.79-6.27,9.1-5.56,2.82,.61,5.8,.84,8.81,.86,6.42,.06,13.03-.79,18.68-.86,9.18-.12,18.09,2.92,27.23,3.7,5.17,.44,10.38,.16,15.57,.19,13.31,.09,26.48,1.17,39.76,.22,.7-.03,1.36-.19,2.06-.27,2.15-.23,4.3-.39,6.46-.48,1.07-.04,2.15-.06,3.22,0,2.64,.19,5.3,1.99,7.82,2.86,.09,.03,.17,.06,.26,.09,4.68,1.49,9.36,2.99,14.04,4.48,.61,.19,1.32,.49,1.43,1.12,.12,.69-.61,1.23-1.29,1.45Z"/><path class="f" d="M333.47,91.22c-3.36-.24-6.62-1.22-9.96-1.65-8.52-1.09-17.01,1.51-25.52,2.7-6.73,.94-13.55,1-20.34,1.25-11.77,.44-23.52,1.46-35.18,3.07-3.49,.48-7,1.02-10.26,2.32-2.63,1.05-5.05,2.59-7.73,3.53-3.56,1.26-7.52,1.42-11.17,.46,1.81-2.08,4.48-3.39,6.69-5.12,2.98-2.33,5.33-5.61,8.85-6.98,5.44-2.12,11.49,1.04,17.3,.62,3.67-.27,7.09-1.94,10.71-2.63,5.23-.98,10.6,.17,15.88,.85,14.26,1.82,28.73,.13,42.9-2.34,2.74-.48,5.57-.98,8.25-.27,1.94,.51,3.66,1.62,5.45,2.52,1.33,.66,2.71,1.22,4.13,1.66Z"/><path class="m" d="M339.89,82.18c-2.98-.61-5.95-1.3-8.96-1.11-2.98,.19-5.84,1.23-8.77,1.83-6.2,1.27-12.59,.53-18.91,.36-16.28-.44-32.72,2.94-48.76,.16-3.62-.63-7.21-1.56-10.88-1.76-5.73-.3-11.38,1.24-16.88,2.86-1.74,.51-3.57,1.04-5.34,.63-1.77-.41-3.38-2.11-3-3.88,.18-.81,.73-1.51,.96-2.31,.21-.72,.08-1.5-.27-2.16,6.42,.06,13.03-.79,18.68-.86,9.18-.12,18.09,2.92,27.23,3.7,5.17,.44,10.38,.16,15.57,.19,13.31,.09,26.48,1.17,39.76,.22,.7-.03,1.36-.19,2.06-.27,2.15-.23,4.3-.39,6.46-.48,1.07-.04,2.15-.06,3.22,0,2.64,.19,5.3,1.99,7.82,2.86Z"/></g><g><path class="i" d="M223.7,24.62l-25.91,39.18c-2.28,1.14-4.79,1.81-7.33,2.08-1.58,.16-3.18,.18-4.77,.05-.6-.05-1.02-.28-1.58-.46-.77-.24-1.61-.32-2.39-.53-.24-.06-.5-.15-.62-.37-.11-.21-.05-.46,.01-.68,.31-1.1,.62-2.2,.92-3.29-.81,1.38-1.74,2.86-3.25,3.34-1.53,.49-3.19-.19-4.56-1.03-.07-.05-.15-.1-.17-.17-.03-.08,0-.17,.03-.25,.2-.55,.4-1.1,.6-1.65-.34,.27-.73,.45-1.14,.57-.21,.06-.42,.1-.64,.12-.42,.05-.84,.04-1.26-.02-.15-.02-.26-.1-.41-.13-.19-.03-.38-.07-.56-.11-.74-.19-1.43-.53-2.04-.99-.08-.06-.17-.15-.17-.25,.47,0,.92-.24,1.25-.57,.05-.05,.09-.1,.13-.15,.24-.29,.41-.63,.52-.98,.1-.3,.25-.6,.37-.89,.2-.48,.38-.96,.54-1.45,.32-.96,.58-1.93,.77-2.93,.48-2.5,.54-5.05,.81-7.58,.71-6.84,2.95-13.51,6.46-19.4,.94-1.57,1.97-3.09,3.08-4.54,1.15-1.49,2.39-2.93,3.23-4.63,.37-.74,.67-1.55,1.3-2.09,.5-.43,1.14-.62,1.77-.8,.6-.16,1.2-.32,1.81-.45,8.55-1.93,17.72-.99,25.7,2.66,3.56,1.63,7.28,4.41,7.48,8.36Z"/><path class="o" d="M200.57,42.01c-.87,1.85-1.84,3.71-3.35,5.08-1.03,.94-2.28,1.62-3.27,2.6-1.25,1.24-2,2.89-2.96,4.37-1.6,2.5-3.84,4.58-6.45,6.02,2.41-1.4,3.39-4.48,3.57-7.3,.19-2.93-.22-5.95,.6-8.77,.2-.68,.47-1.36,.42-2.06-.05-.7-.54-1.45-1.25-1.48-.84-.04-1.36,.86-1.89,1.51-.53,.65-1.71,1.08-2.08,.32-.11-.23-.1-.5-.08-.75,.16-2.18,.48-4.35,.94-6.49,.15-.69-.09-1.78-.75-1.54-.24,.08-.38,.32-.49,.55-1.93,3.79-3.85,7.59-5.77,11.38-.12-4.17,.43-8.35,1.63-12.34,.28-.93,.6-1.88,.62-2.85,.03-1.14-.35-2.25-.56-3.37-.05-.26-.09-.52-.11-.78,.94-1.57,1.97-3.09,3.08-4.54,1.15-1.49,2.39-2.93,3.23-4.63,.37-.74,.67-1.55,1.3-2.09,.5-.43,1.14-.62,1.77-.8,.6-.16,1.2-.32,1.81-.45,.84,.47,1.98,.48,2.99,.59,5.58,.6,9.74,6.01,10.53,11.57,.79,5.56-1.09,11.16-3.48,16.24Z"/><g><g><path class="j" d="M211.73,73.91c-.43,3.11-.74,6.53,1.01,9.13,.63,.93,1.49,1.69,2.18,2.58,1.97,2.51,2.48,5.87,2.52,9.06,.03,3.19-.34,6.41,.14,9.57,.38,2.53,1.32,5,1.2,7.55-.14,3.08-1.94,6.04-4.6,7.59-2.35,1.37-5.17,1.64-7.88,1.62-7.44-.08-14.85-2.21-21.2-6.1-2.16-1.33-4.21-2.86-6.04-4.64-5.34-5.18-8.58-12.3-9.74-19.65-1.16-7.35-.31-14.92,1.7-22.08l.58-.22c2.98-1.73,6.63-2.43,9.95-1.5,.64,.18,1.26,.42,1.92,.53,.75,.12,1.53,.06,2.28-.12,2.17-.52,4-1.99,5.46-3.68,1.55-1.78,2.74-3.86,3.54-6.08,1.42-3.9,1.65-8.25,.5-12.25l5.72,4.18,17.07,12.47,3.79,2.77,.62,.45c-.27,.01-.53,.03-.8,.05-2.95,.18-6.09,.65-7.95,2.89-.03,.03-.05,.06-.07,.1-1.28,1.6-1.63,3.75-1.91,5.79Z"/><path class="f" d="M221.84,64.63c-.04,.17-.1,.34-.18,.49-2.95,.18-6.09,.65-7.95,2.89-.03,.03-.05,.06-.07,.1-3.6,1.4-6.88,3.61-9.52,6.43-1.03,1.11-1.99,2.32-3.3,3.08-.22,.13-.47,.24-.72,.21-.74-.11-.66-1.21-.35-1.89,2.16-4.7,5.79-8.71,10.25-11.32,1.74-1.02,3.68-1.83,5.66-2.15h-.79c.98-.48,2.09-.68,3.17-.61l3.79,2.77Z"/><path class="m" d="M200.98,49.39c-.02,.64-.08,1.27-.14,1.9-.96,10.49-2.37,20.94-4.23,31.31-.1,.54-.39,1.24-.93,1.16-.25-.04-.43-.23-.59-.43-1.08-1.43-1.07-3.38-.98-5.17,.31-6.9,.93-13.83,.65-20.71,1.42-3.9,1.65-8.25,.5-12.25l5.72,4.18Z"/></g><path class="f" d="M221.84,64.63l-3.79-2.77c.76,.04,1.51,.22,2.21,.53,.73,.32,1.45,.86,1.6,1.65,.04,.2,.03,.4-.01,.6Z"/><g><g><g><path class="j" d="M231.36,49.81c-.86,.46-1.99,.28-2.78,.86-.05,.64,.76,1.1,.74,1.74-.02,.6-.7,.91-1.25,1.14-.55,.22-1.18,.71-.99,1.28,.14,.43,.66,.58,.95,.92,.32,.37,.32,.99-.01,1.35-.2,.22-.49,.35-.73,.54-.58,.47-.74,1.3-.69,2.05,.06,.75,.29,1.47,.32,2.22,.02,.58-.08,1.16-.28,1.7-.26,.66-.67,1.27-1.22,1.73-1.03,.87-2.42,1.17-3.72,.91-.56-.11-1.11-.26-1.65-.43-1.09-.34-2.14-.8-3.15-1.32-1.55-.81-3.01-1.79-4.39-2.86-2.95-2.28-5.59-4.93-8.53-7.22-1.65-1.29-3.41-2.47-4.84-4-3.13-3.36-4.29-8.74-1.98-12.71,1.36-2.34,3.73-3.99,5.07-6.34,.88-1.55,1.27-3.33,1.97-4.97,.11-.27,.24-.53,.37-.78,1.76-3.47,5.03-6.15,8.79-7.17,1.17-.32,3.14-1.27,4.3-.91,.61,.19,1.17,.51,1.71,.86,1.02,.65,1.98,1.4,2.87,2.21,.7,.63,1.24,1.38,1.81,2.12,1.38,1.79,2.71,3.74,3.18,5.95,.4,1.93-.24,3.72-.07,5.17,.16,1.37,.17,2.76,.42,4.12,.32,1.73,1.34,3.27,2.36,4.69,.81,1.13,1.84,2.15,2.34,3.45,.51,1.3,.29,3.05-.94,3.71Z"/><path class="d" d="M219.1,35.12c.59-.44,1.18-.88,1.85-1.25,.66-.37,1.41-.66,2.24-.73,.82-.07,1.64,.07,2.4,.27,.27,.07,.54,.15,.8,.23,.18,.06,.36,.13,.54,.17,.1,.02,.18,.05,.26,.12,.22,.2,.4,.46,.44,.74,.04,.29-.06,.6-.3,.78-.11,.08-.28,.16-.4,.06-.13-.11-.3-.19-.45-.27-.34-.18-.67-.37-1.02-.55-.64-.33-1.32-.62-2.05-.73-.07-.01-.14-.02-.21-.03-.67-.07-1.38,.05-2.07,.28-.69,.23-1.36,.55-2.02,.88Z"/><path class="f" d="M225.05,45.88c-.55,1.28-.29,2.47,.75,3.4-.72-.07-1.34-.71-1.51-1.45-.16-.75,.14-1.58,.76-1.95Z"/></g><path class="f" d="M226.64,63.6c-.26,.66-.67,1.27-1.22,1.73-1.03,.87-2.42,1.17-3.72,.91-.56-.11-1.11-.26-1.65-.43-1.09-.34-2.14-.8-3.15-1.32-1.55-.81-3.01-1.79-4.39-2.86-2.95-2.28-5.59-4.93-8.53-7.22-1.65-1.29-3.41-2.47-4.84-4-3.13-3.36-4.29-8.74-1.98-12.71,1.36-2.34,3.73-3.99,5.07-6.34,.88-1.55,1.27-3.33,1.97-4.97,.11-.27,.24-.53,.37-.78,.9,1.93,1.69,3.89,2.16,5.95,.7,3.07,.65,6.41-.78,9.21-.61,1.18-1.45,2.24-2.05,3.43-.6,1.19-.95,2.6-.5,3.85,.7,1.95,2.95,2.75,4.7,3.86,2.74,1.73,4.54,4.55,6.65,7.01,2.11,2.46,4.92,4.73,8.16,4.64,1.05-.03,2.11-.31,3.14-.11,.2,.04,.39,.09,.57,.16Z"/></g><path class="f" d="M198.21,40.54c-.74-1.28-2.41-1.88-3.86-1.53-1.44,.35-2.6,1.54-3.1,2.94-.45,1.28-.38,2.74,.19,3.97,.44,.95,1.15,1.74,1.9,2.47,.75,.74,1.54,1.43,2.34,2.12,.91,.8,1.82,1.59,2.74,2.39,.15,.13,.3,.26,.48,.33,.47,.19,1.02-.08,1.32-.48,.3-.41,.39-.93,.45-1.43,.43-3.68-.25-7.79-2.45-10.77h0Z"/></g></g><path class="i" d="M212.52,26.98c-.36,1.76-.81,3.29-1.31,4.64-.29,.78-.6,1.49-.93,2.15-4.02,8.07-10.37,7.34-10.37,7.34-4.23,.26-8.04-3.5-10.1-6.91-3.75-6.2-4.28-13.96-1.41-20.54l-.12-1.31s.1,.02,.14,.03c2.92,.67,6.26,2.58,8.06,4.7,.53,.63,1.11,1.2,1.58,1.88,.74,1.04,1.34,2.17,2.06,3.22,.21,.3,.42,.6,.66,.9,1.83,2.29,3.4,4.17,6.43,4.76,.92,.18,1.87,.25,2.8,.13,.46-.06,.91-.17,1.34-.35,.42-.17,.76-.44,1.17-.63Z"/><path class="i" d="M215.86,24.05c-.13-1.08-.51-2.15-1.19-2.97-1.64-1.99-4.48-2.17-6.99-2.45-3.35-.38-6.7-1.25-9.6-3.03l-6.65-.73c1.23,4.54,2.85,8.97,4.86,13.21,.68,1.43,1.43,2.89,2.65,3.85,.97,.77,2.16,1.17,3.35,1.43,3.1,.69,6.49,.5,9.24-1.14,2.75-1.64,4.7-4.91,4.32-8.17Z"/><path class="i" d="M192.59,3.66c-.2,.48-.38,.97-.54,1.46-.38,1.16-.65,2.35-.8,3.55-.13,1.01-.18,2.03-.15,3.05,0,.07,0,.14,0,.22,.05,1.34,.22,2.68,.02,3.99-.22,1.39-.94,2.8-2.22,3.39l.16-.75c-.94-.97-2.07-1.69-3.28-2.32-2.36-1.22-5.01-2.05-7.1-3.61-.47-.35-.92-.74-1.32-1.17-.09-.1-.18-.2-.26-.3-.19-.24-.35-.5-.42-.79-.16-.64,.11-1.29,.38-1.89,.57-1.24,1.21-2.47,2.15-3.45,.93-.99,2.21-1.73,3.57-1.74,1.31-.02,2.95,.49,3.71-.57,.32-.46,.34-1.07,.6-1.57,.38-.72,1.21-1.1,2.01-1.15,.81-.05,1.6,.18,2.38,.41,.48,.14,.98,.3,1.29,.68,.56,.71,.17,1.73-.18,2.57Z"/><path class="o" d="M191.1,11.73c0,.07,0,.14,0,.22-.01,.02-.03,.04-.05,.06-.81,1.04-1.64,2.09-2.69,2.9-.77,.6-1.66,1.06-2.59,1.35-2.36-1.22-5.01-2.05-7.1-3.61,.29,.11,.58,.18,.89,.2,.64,.05,1.34-.17,1.69-.71,.21-.32,.3-.73,.6-.96,.52-.39,1.24,.01,1.85,.23,.84,.3,1.8,.22,2.59-.21,.97-.54,1.61-1.56,2.59-2.09,.71-.39,1.54-.48,2.37-.44-.13,1.01-.18,2.03-.15,3.05Z"/><path class="h" d="M192.59,3.66c-.2,.48-.38,.97-.54,1.46-1.09,.32-2.24,.39-3.32,.03-.81-.27-1.71-.78-2.47-.39-.63,.33-.86,1.14-1.45,1.53-1.06,.7-2.52-.33-3.72,.05-2.03,.65-1.66,4.5-3.77,4.8-.07,.01-.14,.02-.21,.02-.19-.24-.35-.5-.42-.79-.16-.64,.11-1.29,.38-1.89,.57-1.24,1.21-2.47,2.15-3.45,.93-.99,2.21-1.73,3.57-1.74,1.31-.02,2.95,.49,3.71-.57,.32-.46,.34-1.07,.6-1.57,.38-.72,1.21-1.1,2.01-1.15,.81-.05,1.6,.18,2.38,.41,.48,.14,.98,.3,1.29,.68,.56,.71,.17,1.73-.18,2.57Z"/><path class="i" d="M223.37,23.51c-.2,.21-.58,.47-1.09,.77-.73,.43-1.74,.96-2.93,1.54-2.69,.88-5.71,.78-8.33-.32-1.21-.51-2.33-1.22-3.45-1.91-6.32-3.94-12.75-7.7-19.29-11.27,0,0,0,0,0,0,.95-.11,4.96-.51,10.23,.02,6.05,.61,12.63,.72,17.11,2.16,3.66,1.18,7.87,5.11,8.18,7.6,.08,.56-.05,1.04-.41,1.41Z"/><path class="i" d="M188.26,12.32l35.54,10.04c0-15.21-35.54-10.04-35.54-10.04Z"/><path class="h" d="M223.37,23.51c-.2,.21-.58,.47-1.09,.77-.73,.43-1.74,.96-2.93,1.54-2.69,.88-5.71,.78-8.33-.32-1.21-.51-2.33-1.22-3.45-1.91-6.32-3.94-12.75-7.7-19.29-11.27,.47,.07,15.58,2.48,20.71,8.2,4.25,4.74,11.8,3.73,14.79,1.58,.08,.56-.05,1.04-.41,1.41Z"/><path class="h" d="M210.28,33.77c-4.02,8.07-10.37,7.34-10.37,7.34-4.23,.26-8.04-3.5-10.1-6.91-3.75-6.2-4.28-13.96-1.41-20.54l-.12-1.31s.1,.02,.14,.03c.65,1.24,1,2.64,1.17,4.01,.28,2.17,.18,4.36,.44,6.53,.21,1.78,.66,3.53,1.33,5.21,1.33,3.29,3.8,6.46,7.43,7.53,3.03,.89,6.35,.18,9.27-.99,.74-.3,1.47-.62,2.21-.91Z"/><path class="h" d="M192.16,16.87c.93,1.31,1.72,2.66,2.55,3.97,.83,1.3,1.69,2.56,2.67,3.72,.98,1.15,2.1,2.18,3.38,3.05,1.28,.86,2.71,1.54,4.35,1.96-1.69,.2-3.48-.22-5.01-.99-1.55-.76-2.89-1.86-3.97-3.12-1.07-1.26-1.9-2.67-2.53-4.12-.64-1.45-1.11-2.93-1.44-4.47Z"/><path class="i" d="M191.12,10.18s-4.46,4.69-12.56,4.05c0,0,1.96,1.34,5.03,.99,0,0-2.78,2.55-6.95,1.36,0,0,12.6,5.69,14.49-4.27,.78-1.21,.47-2.23-.01-2.14Z"/><path class="h" d="M175.81,49.02c0,3.87-.79,7.71-1.94,11.4-.11,.33-.21,.66-.33,.99-.78,.22-1.65,.19-2.46,0,2.39-3.69,3.68-8.09,4.73-12.4Z"/><path class="h" d="M204.13,37.86l-4.47,1.39c.91,1.36,1.36,3.02,1.28,4.65-.08,1.63-.71,3.23-1.75,4.49l-.07,.16c3.47-2.27,5.49-6.58,5.01-10.69Z"/><path class="f" d="M195.94,104.45c-.6-1.71-1.67-3.38-1.43-5.17,2.31-.1,3.42,3.05,5.62,3.77,.93,.3,2.21,.31,2.52,1.23,.21,.64-.22,1.29-.64,1.82-1.23,1.58-2.46,3.16-3.68,4.74-.39,.51-1.18,1.45-1.94,1.29-.79-.17-.18-1.6-.07-2.14,.37-1.83,.25-3.77-.38-5.54Z"/></g><g><path class="j" d="M40.49,37.68c-1.67,6.07,0,13.77,0,13.77l-.24,.93-1.58,6.05-.89,3.45h-.07c-.13,0-.26,0-.41,0-.23,0-.47-.01-.73-.03-.29-.02-.6-.04-.91-.08-.1,0-.21-.02-.33-.03-.15-.01-.3-.03-.45-.05-2.78-.33-6.27-1.02-8.95-1.76-1.06-.29-2-.6-2.72-.89-3.24-1.33-6.14-3.64-7.69-6.73-.33-.65-.59-1.33-.69-2.03-.03-.17-.05-.33-.06-.5-.03-.76,.15-1.5,.33-2.24,.48-2.02,.97-4.06,2.03-5.86,.47-.79,1.1-1.57,1.97-1.9,1.15-.44,2.44-.05,3.6,.34,.7,.23,1.88,.54,3.21,.91,2.83,.79,6.34,1.87,7.3,3.08,.37,.46,.84,1.05,1.42,.91,.71-.17,.69-1.14,.58-1.84-.52-3.18,.33-6.54,2.25-9.15,.43-.59,.92-1.14,1.46-1.65,.46-.43,1.03-.85,1.67-.78,.78,.08,1.28,.9,1.29,1.66,0,.76-.07,1.19-.43,1.86-.42,.8-.74,1.67-.99,2.58Z"/><path class="f" d="M155.71,85.43c-1.24-2.1-2.68-2.2-2.73-2.2-20.65,2.74-44.91-4.99-51.38-7.24-1.11-.39-2.28-.62-3.45-.69-22.62-1.34-37.12-7.57-41.85-9.42-.23-.09-.47-.18-.74-.26-.09-.03-.18-.06-.27-.09-.46-.15-.96-.3-1.5-.45-.11-.03-.22-.06-.33-.09-.11-.03-.22-.06-.34-.09-.34-.09-.69-.18-1.05-.26-.21-.05-.44-.1-.66-.16-.15-.04-.29-.07-.44-.1-.25-.06-.5-.11-.75-.17-1.14-.26-2.32-.5-3.48-.73-.13-.02-.26-.05-.39-.08-.67-.13-1.33-.26-1.98-.38-.22-.04-.43-.08-.64-.12-.16-.03-.32-.06-.48-.09-.08,0-.15-.02-.22-.04-.31-.06-.61-.11-.89-.16-.07,0-.13-.02-.2-.03-.18-.03-.37-.06-.54-.09-.12-.02-.24-.04-.36-.06-.64-.11-1.21-.2-1.68-.28-.17-.03-.33-.05-.47-.08-.11-.02-.21-.04-.31-.05-.05,0-.1-.02-.15-.03-.04,0-.08,0-.12-.02-.04,0-.08,0-.11-.01-.03,0-.07,0-.09-.01-.21-.03-.32-.05-.32-.05h-.07c-.13,0-.26,0-.41,0-.23,0-.47-.01-.73-.03-.29-.02-.6-.04-.91-.08-.1,0-.21-.02-.33-.03-.15-.01-.3-.03-.45-.05-2.78-.33-6.27-1.02-8.95-1.76-1.06-.29-2-.6-2.72-.89-3.24-1.33-6.14-3.64-7.69-6.73-.33-.65-.59-1.33-.69-2.03,.52,.54,1.13,.99,1.8,1.32,1.78,.88,3.86,.94,5.74,1.58,.52,.18,2.01,.54,3.56,.94,1.81,.46,3.7,.95,4.28,1.23,2.5,1.23,5.17,2.1,7.84,2.9,.21,.07,.42,.13,.62,.19,.13,.04,.26,.08,.38,.11,2,.61,4,1.21,5.99,1.82,.75,.23,1.51,.45,2.26,.69,1.83,.55,3.64,1.1,5.47,1.63,16.92,4.9,34.38,7.94,51.96,9.06,.96,.06,1.96,.13,2.78,.61,.89,.53,1.44,1.49,2.19,2.21,1.04,.99,2.43,1.51,3.82,1.9,11.89,3.29,24.93-1.78,36.75,1.72,2.57,.76,5.35,2.34,5.71,4.99,.1,.77-.02,1.54-.3,2.26Z"/><path class="m" d="M176.4,65.24c-.04,.46-.11,.92-.22,1.37-.51,2.11-1.78,3.97-3.76,4.83-.72,.32-1.48,.49-2.26,.54-1.24,.09-2.52-.09-3.72-.4-5.29-1.38-9.94-5.19-15.41-5.4-2.72-.11-5.38,.7-8.08,.97-3.01,.29-6.05-.08-9.06-.26-14.72-.9-30.22,2.63-43.8-3.13-2.89-1.22-5.62-2.85-8.66-3.65-3.15-.82-6.45-.71-9.7-.8-6.41-.18-12.8-1.15-18.97-2.91-1.19-.34-2.39-.71-3.51-1.22-.97-.44-1.89-.97-2.7-1.65-.23-.19-.44-.4-.65-.62,1.39,.22,2.85,.44,4.3,.64,5.44,.77,10.67,1.4,10.67,1.4,37.09,1.26,38.71,6.28,44.87,6.87,6.16,.6,29.43,.75,29.43,.75,26.87-6.23,40.64,2.71,40.64,2.71,.2,0,.41-.02,.61-.02Z"/></g><path class="m" d="M176.4,65.24c-.04,.46-.11,.92-.22,1.37-.51,2.11-1.78,3.97-3.76,4.83-.72,.32-1.48,.49-2.26,.54-1.24,.09-2.52-.09-3.72-.4-5.29-1.38-9.94-5.19-15.41-5.4-2.72-.11-5.38,.7-8.08,.97-3.01,.29-6.05-.08-9.06-.26-14.72-.9-30.22,2.63-43.8-3.13-2.89-1.22-5.62-2.85-8.66-3.65-3.15-.82-6.45-.71-9.7-.8-6.41-.18-12.8-1.15-18.97-2.91-1.19-.34-2.39-.71-3.51-1.22-.97-.44-1.89-.97-2.7-1.65-.23-.19-.44-.4-.65-.62,1.39,.22,2.85,.44,4.3,.64,5.44,.77,10.67,1.4,10.67,1.4,37.09,1.26,38.71,6.28,44.87,6.87,6.16,.6,29.43,.75,29.43,.75,26.87-6.23,40.64,2.71,40.64,2.71,.2,0,.41-.02,.61-.02Z"/></g><g><path class="p" d="M199.75,140.26s-7.79,12.89-9.6,14.33c0,0-.93-.32-2.23-.8-2.61-.97-6.69-2.62-7.59-3.72-1.36-1.65-12.09-5.95-14.91-8.04-2.01-1.49-6.41-5.37-9.56-7.85-1.28-1.01-2.36-1.79-2.98-2.08-2.14-.99-9.14-7.82-9.93-9.37,0,0,1.93-.98,3.75-1.38,.38-.09,.76-.14,1.1-.16,.88-.05,1.31-.68,1.59-1.48,.37-1.06,.45-2.41,.85-3.08l31.43-2.38,16.6,13.56,1.47,12.45Z"/><path class="n" d="M199.75,140.26s-7.79,12.89-9.6,14.33c0,0-.93-.32-2.23-.8,.63-1,1.45-1.94,2.15-2.89,1.42-1.92,2.41-4.71,.82-6.49-.92-1.03-2.49-1.41-3.22-2.57-.51-.82-.47-1.85-.63-2.8-.61-3.62-4.07-6.09-7.49-7.62-5.62-2.53-11.79-3.62-17.69-5.44-4.48-1.38-8.97-3.29-12.47-6.26,.37-1.06,.45-2.41,.85-3.08l31.43-2.38,16.6,13.56,1.47,12.45Z"/><path class="k" d="M220.27,117.95c-.62,13.24-11.01,18.32-12.72,18.67-2.15,.44-7.79,3.64-7.79,3.64-2.16-3.59-11.97-9-20.77-12.71-1.49-.63-2.95-1.21-4.34-1.73-2.41-.89-4.6-1.58-6.36-1.99-.63-.15-1.22-.26-1.73-.33-.83-.11-1.67-.27-2.52-.49-3.25-.81-6.51-2.29-9.04-3.61-.1-.05-.18-.09-.28-.15-1.93-1.02-3.41-1.94-4.07-2.37-.13-.08-.26-.17-.39-.26,.79-.78,.98-1.94,1.06-3.03,.08-1.08,.08-2.22,.6-3.19,.21-.39,.5-.75,.6-1.18,.07-.33,.02-.67,0-1.01-.04-1.35,.64-2.71,1.77-3.5h0s.09,0,.14,0c.39,.02,1.55,.08,2.81-.06,1.24-.13,2.58-.44,3.43-1.12,.25-.2,.69-.47,1.27-.8,3.64-2.07,12.99-6.76,18.22-14.06,.47-.64,.9-1.31,1.29-2l.22,.55c.68,9.81,10.39,19.29,22.58,24.91,12.2,5.62,14.34-5.73,14.34-5.73,1.36,4.39,1.81,8.22,1.65,11.53Z"/><path class="q" d="M180.23,112.19c-.58,2.19-1.71,4.26-3.23,5.98-.44,.51-.92,.99-1.43,1.45-1.15,1.03-2.43,1.92-3.8,2.66-1.05,.57-2.27,1.25-3.49,1.54-.23,.06-.94-.14-1.17-.12-1.15,.11-1.72-.27-2.78-.6-.09-.03-.2-.06-.29-.09-3.12-.98-6.15-2.15-9.04-3.61-.09-.05-.18-.09-.27-.15-1.4-.71-2.75-1.49-4.07-2.37-.13-.08-.26-.17-.39-.26,.79-.78,.98-1.94,1.06-3.03,.08-1.08,.09-2.22,.6-3.19,.21-.39,.51-.75,.6-1.18,.08-.33,.02-.67,.01-1.01-.05-1.35,.64-2.71,1.78-3.5,.04,0,.09,0,.13,0,.87,.07,1.94,.17,2.81-.06,1.24-.13,2.58-.44,3.43-1.12,.25-.2,.69-.47,1.27-.8,2.98-1.7,9.8-5.16,15.04-10.36,.11-.1,.21-.21,.31-.31,.5,1.44,.8,2.94,.9,4.46,.02,.36,.03,.71,.04,1.07,.03,1.42-.02,2.84,.25,4.23,.23,1.19,.68,2.32,1.2,3.41,.21,.44,.51,.88,.7,1.33l.11,.47c-.01-.08-.03-.16-.04-.23l-.03-.14c.02,.06,.05,.12,.07,.18,.12,.36,.1,.88,.13,1.24,.1,1.38-.05,2.76-.4,4.09Z"/><path class="g" d="M220.27,117.95c-.62,13.24-11.01,18.32-12.72,18.67-2.15,.44-7.79,3.64-7.79,3.64-2.16-3.59-11.97-9-20.77-12.71,4.39-2.58,8.17-6.15,10.93-10.37,.48-.74,.96-1.53,1.71-2.02,.75-.49,1.86-.59,2.5,.03,.54,.53,.58,1.37,1.01,1.99,1.19,1.69,4.14,.54,5.85,1.74,.76,.53,1.13,1.41,1.61,2.19,1.98,3.23,6.49,4.73,10.08,3.34,3.16-1.22,5.17-4.13,7.59-6.49Z"/><path class="q" d="M165.25,134.94c-2.17,.78-4.57,.29-6.83-.2-.85-.18-1.7-.37-2.55-.56-1.28-1.01-2.36-1.79-2.98-2.08-2.14-.99-9.14-7.82-9.93-9.37,0,0,1.93-.98,3.75-1.38,1.58,2.17,3.83,3.86,6.22,5.19,2.92,1.63,6.09,2.79,9.12,4.23,1.74,.83,3.71,2.33,3.21,4.16Z"/></g><path class="k" d="M179.3,92.36c.22-1.22,.33-2.32,.38-3.42,.05-1.1,.03-2.17,.02-3.27-.02-1.1,0-2.23,.13-3.4,.12-1.17,.27-2.38,.41-3.58,.31-2.4,.74-4.73,1.56-7.06,.21-.58,.46-1.15,.75-1.69,.29-.53,.56-1.03,.87-1.56,.31-.52,.65-1.03,1.08-1.5,.22-.23,.46-.44,.75-.61,.28-.17,.39-.16,.72-.14l.42,.12c-.52,.06-1.06,.59-1.35,1.05-.29,.46-.51,.98-.71,1.51-.19,.53-.39,1.1-.58,1.64-.17,.53-.3,1.07-.4,1.61-.2,1.09-.3,2.23-.37,3.37-.08,1.14-.12,2.28-.12,3.42,0,1.14,.11,2.26,.22,3.43,.11,1.17,.12,2.38-.06,3.61-.18,1.23-.51,2.48-1.06,3.65-.55,1.16-1.33,2.26-2.39,2.99l-.28-.18Z"/><path class="k" d="M211.5,75.86c.73,.19,1.35,1.02,1.9,1.57,.54,.56,.96,1.21,1.31,1.9,.68,1.38,1.04,2.85,1.39,4.27,.33,1.44,.6,2.89,.8,4.36,.19,1.47,.31,2.95,.42,4.39,.11,1.45,.27,2.87,.48,4.26l.58,4.05c.2,1.32,.52,2.76,.65,4.29,.13,1.52,.06,3.21-.67,4.6l-.33-.05c-.24-1.47-.73-2.72-1.28-4-.54-1.28-1.16-2.6-1.6-4.1-.44-1.5-.62-3.04-.62-4.55,0-1.51,.1-2.98,.14-4.43,.04-1.45,.07-2.87,.04-4.29-.02-1.42-.1-2.84-.24-4.26-.14-1.43-.27-2.84-.7-4.15-.42-1.29-1.07-2.96-2.37-3.54l.11-.31Z"/></g></g></g><g><path class="k" d="M173.6,166.04c0,.21-.2,.53-.29,.72-.12,.25-.24,.5-.36,.74-.24,.47-.98,.69-1.25,1.15-.54,.92-1.13,1.8-1.77,2.66-1.74,2.32-3.8,4.38-6.05,6.22-2.25,1.84-4.69,3.45-7.21,4.88-2.23,1.26-4.55,2.41-6.54,4.02-.12,.1-.25,.2-.37,.31-.11,.1-.23,.2-.35,.31-1.1,1.01-2.07,2.19-2.72,3.54-.27,.58-.63,1.3-.58,1.96,.02,.25,.09,.48,.1,.73,.02,.49-.06,.98-.09,1.46-.07,1.07-.12,2.15-.27,3.21-.44,3.24-1.78,6.31-2.57,9.5-1.16,4.7-1.13,9.56-1.55,14.37-.71,8.15-2.74,16.15-4.76,24.11-1.29,5.07-2.58,10.16-4.4,15.08-1.02,2.76-2.2,5.47-3.17,8.24-1.39,3.97-2.34,8.08-2.81,12.24-.42,3.67-.64,7.57-.07,11.23,.26,1.69,.68,14.31,.67,16.04-.02,3.7-.04,7.4-.06,11.1-.04,7.39-.68,11.39-.72,18.79-.02,3.77-.04,7.54-.06,11.31,0,0-4.76,.61-10.06,.87-3.32,.17-6.84,.19-9.54-.15-1.24-.16-2.3-.39-3.09-.72,0,0,1.19-3.84-1.49-20.02-2.68-16.18-1.97-37.23-.89-47.07,1.07-9.84-1.32-21.52-.96-35.36,0,0-1.82-25.69-2.52-45.12-.3-8.53-.39-15.86,0-19.27,0,0-10.8-49.2,15.27-57.38,0,0,2.32-.5,11.25,0s7.86-.97,15-2.32h.89s6.97,7.92,10.54,25.64c.68,3.36,2.05,6.59,4.26,9.23,2.79,3.34,6.72,5.5,10.89,6.59,1.53,.4,3.59,.92,5.17,1.06,.53,.05,1.07,.08,1.6,.09,.3,0,.63-.04,.92,.01Z"/><path class="g" d="M144.42,185.56c1.73,.38,3.52,.8,5.34,1.17-.11,.1-.23,.2-.35,.31-1.1,1.01-2.07,2.19-2.72,3.54-.27,.58-.63,1.3-.58,1.96,.02,.25,.09,.48,.1,.73,.02,.49-.06,.98-.09,1.46-.07,1.07-.12,2.15-.27,3.21-.44,3.24-1.78,6.31-2.57,9.5-1.16,4.7-1.13,9.56-1.55,14.37-.71,8.15-2.74,16.15-4.76,24.11-1.29,5.07-2.58,10.16-4.4,15.08-1.02,2.76-2.2,5.47-3.17,8.24-1.39,3.97-2.34,8.08-2.81,12.24-.42,3.67-.64,7.57-.07,11.23,.26,1.69,.68,14.31,.67,16.04-.02,3.7-.04,7.4-.06,11.1-.04,7.39-.68,11.39-.72,18.79-.02,3.77-.04,7.54-.06,11.31,0,0-4.76,.61-10.06,.87,.21-3.93,.43-7.85,.64-11.77,.29-5.38,.59-10.77,1.58-16.06,1.84-9.79,6.05-19.91,2.81-29.34-1.56-4.54-4.82-8.91-3.92-13.62,.57-2.94,2.67-5.3,4.34-7.79,3.18-4.74,4.94-10.43,4.97-16.15,.02-3.41-.49-7.09,1.26-10.01,.79-1.31,1.97-2.35,2.75-3.67,1.16-1.98,1.29-4.38,1.38-6.68,.54-14.32,.16-30.23-9.6-40.72-1.39-1.5-2.98-2.89-3.88-4.72-.9-1.84-.91-4.32,.63-5.66,1.14-.99,2.76-1.11,4.27-1.14,7.01-.14,14.04,.55,20.88,2.07Z"/><path class="q" d="M111.59,251.46c-1.05,6.55-2.53,13.02-3.38,19.59-1.07,8.29-1.12,16.68-1.16,25.04-.1,18.2-.2,36.39-.3,54.58-1.24-.16-2.3-.39-3.09-.72,0,0,1.19-3.84-1.49-20.02-2.68-16.18-1.97-37.23-.89-47.07,1.07-9.84-1.32-21.52-.96-35.36,0,0-1.82-25.69-2.52-45.12,2.1-.95,4.21-1.9,6.31-2.85,1.05-.48,2.18-.97,3.33-.82,2.64,.33,3.71,3.53,4.13,6.16,2.47,15.4,2.48,31.19,.01,46.59Z"/></g><path class="g" d="M166.98,184.82c-.08,.06-.15,.12-.23,.18-.06-.2-.12-.41-.18-.61l.42,.43Z"/><g><path class="p" d="M173.6,166.04c0,.21-.2,.53-.29,.72-.12,.25-.24,.5-.36,.74-.24,.47-.98,.69-1.25,1.15-.54,.92-1.13,1.8-1.77,2.66-1.74,2.32-3.8,4.38-6.05,6.22-2,1.63-4.13,3.08-6.36,4.39-1.64-.62-3.21-1.46-4.63-2.47-5.77-4.09-9.46-10.55-11.76-17.24-2.3-6.69-3.39-13.72-5.06-20.59-1.34-5.52-3.12-11.06-6.07-15.89,1.01-.1,1.81-.27,2.56-.48,1.71-.48,3.24-1.17,6.75-1.84h.89s6.97,7.92,10.54,25.64c.68,3.36,2.05,6.59,4.26,9.23,2.79,3.34,6.72,5.5,10.89,6.59,.36,.09,.76,.2,1.17,.3,1.31,.33,2.8,.66,4,.76,.53,.05,1.07,.08,1.6,.09,.3,0,.63-.04,.92,.01Z"/><path class="n" d="M173.6,166.04c0,.21-.2,.53-.29,.72-.12,.25-.24,.5-.36,.74-.24,.47-.98,.69-1.25,1.15-.54,.92-1.13,1.8-1.77,2.66-1.74,2.32-3.8,4.38-6.05,6.22-2,1.63-4.13,3.08-6.36,4.39-1.64-.62-3.21-1.46-4.63-2.47-5.77-4.09-9.46-10.55-11.76-17.24-2.3-6.69-3.39-13.72-5.06-20.59-1.34-5.52-3.12-11.06-6.07-15.89,1.01-.1,1.81-.27,2.56-.48,2.5,2.18,4.14,5.57,5.26,8.8,3.52,10.15,4.59,21.16,9.47,30.73,1.63,3.21,3.83,6.34,7.09,7.87,3.26,1.52,7.75,.84,9.56-2.27,.66-1.14,.92-2.47,1.6-3.59,.41-.67,.93-1.21,1.53-1.62,1.31,.33,2.8,.66,4,.76,.53,.05,1.07,.08,1.6,.09,.3,0,.63-.04,.92,.01Z"/></g><g class="l"><path class="f" d="M50.18,53.54c-.18,.39-.4,.77-.62,1.14-.1,.17-.21,.33-.33,.5-1.09,1.65-2.46,3.09-3.72,4.63-.15,.18-.3,.37-.45,.56-.63,.79-1.23,1.6-1.8,2.44-.08,0-.15-.02-.22-.04-.31-.06-.61-.11-.89-.16-.07,0-.13-.02-.2-.03-.18-.03-.37-.06-.54-.09-.12-.02-.24-.04-.36-.06-.64-.11-1.21-.2-1.68-.28-.17-.03-.33-.05-.47-.08-.11-.02-.21-.04-.31-.05-.05,0-.1-.02-.15-.03-.04,0-.08,0-.12-.02-.04,0-.08,0-.11-.01-.03,0-.07,0-.09-.01-.21-.03-.32-.05-.32-.05h-.07c-.13,0-.26,0-.41,0-.23,0-.47-.01-.73-.03-.29-.02-.6-.04-.91-.08-.1,0-.21-.02-.33-.03-.15-.01-.3-.03-.45-.05-2.78-.33-6.27-1.02-8.95-1.76v-18.9c2.83,.79,6.34,1.87,7.3,3.08,.37,.46,.84,1.05,1.42,.91,.71-.17,.69-1.14,.58-1.84-.52-3.18,.33-6.54,2.25-9.15,.84,1.33,1.85,2.57,2.99,3.67-1.67,6.07,0,13.77,0,13.77l-.24,.93c.13-.3,.21-.46,.21-.46,1.41,.31,3.33,.64,5.42,.97,1.39,.22,2.85,.44,4.3,.64Z"/></g></g><g><path class="j" d="M46.8,52.56c-.34,2.8-2.69,4.85-5.02,6.47l-.18,.13c-2.38,1.64-5.01,3.33-6.01,6.04-.56,1.53-.52,3.21-.48,4.83,.12,4.24,.24,8.48,.35,12.72l-9.08-1.74-10.54-2.01c3.86-16.45,6.45-33.19,7.75-50.03,.32-4.04,.51-8.33-1.37-11.93-.39-.76-.88-1.49-1.01-2.34-.06-.44,0-.92,.21-1.31,.19-.36,.49-.65,.88-.75,1-.26,1.86,.71,2.48,1.55,.62,.83,1.64,1.72,2.57,1.26,.26-.13,.49-.37,.77-.44h.06c.68-.13,1.08,.76,1.09,1.45,0,.69-.04,1.53,.55,1.91,.25,.16,.55,.19,.82,.32,1.04,.52,.71,2.03,.53,3.18-.29,1.85,.25,3.73,.88,5.49,2.13,5.94,5.47,11.43,9.76,16.05,2.45,2.64,5.43,5.58,4.99,9.15Z"/><path class="f" d="M46.8,52.56c-.34,2.8-2.69,4.85-5.02,6.47,.01-2.15-.04-4.31-.71-6.35-1.17-3.52-4.02-6.19-6.08-9.28-3.04-4.58-4.31-10.09-5.09-15.53-.61-4.29-.96-8.62-1.77-12.86h.06c.68-.13,1.08,.76,1.09,1.45,0,.69-.04,1.53,.55,1.91,.25,.16,.55,.19,.82,.32,1.04,.52,.71,2.03,.53,3.18-.29,1.85,.25,3.73,.88,5.49,2.13,5.94,5.47,11.43,9.76,16.05,2.45,2.64,5.43,5.58,4.99,9.15Z"/><path class="m" d="M27.76,77.38c-.32,1.25-.78,2.48-1.39,3.62l-10.54-2.01c3.86-16.45,6.45-33.19,7.75-50.03,.32-4.04,.51-8.33-1.37-11.93-.39-.76-.88-1.49-1.01-2.34-.06-.44,0-.92,.21-1.31,4.07,5.26,4.92,12.52,4.71,19.26-.24,7.3-1.48,14.69,0,21.84,.46,2.24,1.19,4.43,1.64,6.68,.48,2.37,.64,4.8,.72,7.22,.09,3.02,.03,6.08-.72,9Z"/></g><g><g><path class="k" d="M132.83,159.88c-1.3,4.01-3.35,7.91-6.35,10.8-.9,.88-1.9,1.66-2.98,2.32-4.5,2.76-9.93,4.59-15.19,4.02-1.79-.2-3.59-.51-5.23-1.23-1.5-.66-2.83-1.66-4.23-2.51-4.83-2.95-10.47-4.24-16.02-5.34-15.51-3.07-31.26-4.95-47.06-5.64-7.13-.31-16.24-1.05-22.87-3.69C6.27,155.97,.37,150.1,.02,142.98c-.1-2.07,.26-4.12,.79-6.14,.31-1.22,.69-2.43,1.05-3.63,1.3-4.29,2.59-8.65,3.83-13.06,3.71-13.23,6.93-26.89,8.26-40.24,.1-1.06,.24-2.21,.97-2.99,.58-.62,1.44-.9,2.27-1.1,.45-.11,.91-.21,1.38-.29,3.27-.58,6.67-.4,9.89,.46,2.41,.65,4.72,1.69,6.78,3.09,.56,.38,1.13,.81,1.46,1.4,.55,1.01,.31,2.26,.06,3.38-2.25,10.23-3.73,20.62-4.42,31.07-.42,6.32-.63,12.93-3.76,18.44h.07c.21,.06,.43,.1,.64,.14,7.31,1.37,14.61,1.02,21.91-.09,19.67-3,39.31-11.59,58.98-7.41,7.78-2.3,16.76,3.37,20.93,10.33,1.63,2.72,2.63,5.74,3.1,8.86,.73,4.86,.16,9.98-1.36,14.67Z"/><path class="g" d="M126.48,170.68c-.9,.88-1.9,1.66-2.98,2.32-4.5,2.76-9.93,4.59-15.19,4.02-1.79-.2-3.59-.51-5.23-1.23-1.5-.66-2.83-1.66-4.23-2.51-4.83-2.95-10.47-4.24-16.02-5.34-15.51-3.07-31.26-4.95-47.06-5.64-7.13-.31-16.24-1.05-22.87-3.69C6.27,155.97,.37,150.1,.02,142.98c-.1-2.07,.26-4.12,.79-6.14,1.07,3.66,2.91,7.04,5.59,9.8,6.12,6.32,15.28,8.5,23.99,9.75,22.41,3.22,45.23,2.22,67.71-.41,3.33-.39,6.72-.82,10.04-.28,3.32,.53,6.62,2.18,8.34,5.06,1.06,1.78,1.47,3.91,2.61,5.65,1.62,2.45,4.48,3.77,7.4,4.28Z"/><path class="q" d="M134.19,145.2c-.32,.08-.64,.15-.97,.21-6.59,1.22-13.12-1.81-19.71-3-11.71-2.11-23.6,1.63-35.48,2.46-3.06,.22-6.26,.21-9-1.15-2.24-1.12-3.96-3.03-5.87-4.64-3.42-2.88-7.59-4.84-11.98-5.67,19.67-3,39.31-11.59,58.98-7.41,7.78-2.3,16.76,3.37,20.93,10.33,1.63,2.72,2.63,5.74,3.1,8.86Z"/><path class="g" d="M36.74,83.86c-2.25,10.23-3.73,20.62-4.42,31.07-.42,6.32-.63,12.93-3.76,18.44,.24,.05-.24-.04,0,0-1,.6-1.31,1.29-2.36,1.79-1.75,.84-3.86,1.52-5.55,.59-1.55-.86-2.18-2.85-1.96-4.61s1.08-3.36,1.88-4.94c7.81-15.35,10.57-33.2,7.88-50.2,2.41,.65,4.72,1.69,6.78,3.09,.56,.38,1.13,.81,1.46,1.4,.55,1.01,.31,2.26,.06,3.38Z"/></g><path class="q" d="M13.05,105.97c-2.18,4.86-4.73,9.53-7.37,14.17,3.71-13.23,6.93-26.89,8.26-40.24,.1-1.06,.24-2.21,.97-2.99,.58-.62,1.44-.9,2.27-1.1,.45-.11,.91-.21,1.38-.29,.11,.59,.19,1.18,.25,1.77,.98,9.81-1.72,19.68-5.75,28.68Z"/></g></g></g></g></g></g></svg>